<svg width="320" height="307" viewBox="0 0 320 307" fill="none" xmlns="http://www.w3.org/2000/svg">
<path d="M42.9206 269.977V275.542H84.5828V269.977H42.9206Z" fill="#E0E0E0"/>
<path d="M48.6038 270.199C48.7444 270.199 48.8628 271.368 48.8628 272.811C48.8628 274.254 48.7444 275.416 48.6038 275.416C48.4632 275.416 48.3374 274.247 48.3374 272.811C48.3374 271.376 48.4558 270.199 48.6038 270.199Z" fill="#FAFAFA"/>
<path d="M47.6936 270.088C47.8416 270.088 47.9526 271.257 47.9526 272.693C47.9526 274.129 47.8416 275.305 47.6936 275.305C47.5456 275.305 47.4346 274.136 47.4346 272.693C47.4346 271.25 47.5456 270.088 47.6936 270.088Z" fill="#FAFAFA"/>
<path d="M81.3637 270.199C81.5117 270.199 81.6301 271.368 81.6301 272.811C81.6301 274.254 81.5117 275.416 81.3637 275.416C81.2157 275.416 81.1047 274.247 81.1047 272.811C81.1047 271.376 81.2231 270.199 81.3637 270.199Z" fill="#FAFAFA"/>
<path d="M80.4609 270.088C80.6015 270.088 80.7199 271.257 80.7199 272.693C80.7199 274.129 80.6015 275.305 80.4609 275.305C80.3203 275.305 80.1945 274.136 80.1945 272.693C80.1945 271.25 80.3129 270.088 80.4609 270.088Z" fill="#FAFAFA"/>
<path d="M75.0145 272.922C75.0145 273.07 70.2415 273.181 64.3585 273.181C58.4754 273.181 53.7024 273.07 53.7024 272.922C53.7024 272.774 58.4754 272.663 64.3585 272.663C70.2415 272.663 75.0145 272.774 75.0145 272.922Z" fill="#FAFAFA"/>
<path d="M42.743 295.034V306.163H84.4052V295.034H42.743Z" fill="#E0E0E0"/>
<path d="M84.938 303.033C84.938 303.033 84.8714 303.085 84.716 303.159C84.5606 303.233 84.3312 303.344 84.0204 303.477C83.1148 303.861 82.1654 304.132 81.1935 304.284C79.6364 304.566 78.0297 304.338 76.6129 303.633C75.7366 303.166 74.9892 302.49 74.4373 301.664C73.8038 300.724 73.5403 299.583 73.6973 298.46C73.7883 297.85 74.0442 297.277 74.4373 296.802C74.6479 296.542 74.9158 296.335 75.2202 296.196C75.5245 296.058 75.8569 295.992 76.1911 296.003C76.5351 296.031 76.8697 296.13 77.1739 296.293C77.4782 296.456 77.7457 296.68 77.9597 296.95C78.4154 297.488 78.6967 298.151 78.7663 298.852C78.8231 299.574 78.7243 300.3 78.4766 300.98C78.229 301.66 77.8382 302.28 77.3307 302.796C76.2763 303.911 74.8546 304.608 73.3273 304.757C71.7546 304.908 70.168 304.711 68.6801 304.18C67.0899 303.683 65.6785 302.734 64.6175 301.45C64.0702 300.76 63.7405 299.922 63.6703 299.045C63.626 298.588 63.6826 298.127 63.836 297.695C63.9895 297.263 64.2361 296.87 64.5583 296.543C64.9109 296.205 65.3726 296.003 65.8607 295.974C66.3431 295.96 66.818 296.095 67.2223 296.358C68.0032 296.87 68.553 297.667 68.7541 298.578C68.9283 299.468 68.8685 300.388 68.5806 301.248C68.2926 302.108 67.7863 302.879 67.1113 303.485C65.7886 304.601 64.1461 305.269 62.4197 305.394C60.7833 305.582 59.1256 305.418 57.5578 304.913C56.0189 304.429 54.7056 303.407 53.8578 302.034C53.4363 301.383 53.1749 300.641 53.0951 299.869C53.0154 299.098 53.1195 298.318 53.399 297.594C53.5374 297.231 53.7654 296.909 54.0617 296.658C54.358 296.407 54.713 296.235 55.0936 296.159C55.4597 296.093 55.8354 296.104 56.1971 296.19C56.5588 296.277 56.8987 296.437 57.1952 296.662C57.7146 297.118 58.0863 297.718 58.2629 298.386C58.4396 299.055 58.4131 299.76 58.1868 300.414C57.7818 301.58 57.0528 302.607 56.0852 303.374C54.4825 304.731 52.4713 305.513 50.3724 305.594C49.0949 305.639 47.8221 305.415 46.6365 304.937C45.451 304.459 44.3791 303.737 43.4904 302.819C43.3124 302.635 43.1445 302.443 42.9872 302.241C42.9316 302.174 42.8821 302.102 42.8392 302.027C43.7188 302.998 44.7699 303.798 45.9398 304.387C47.3182 305.064 48.846 305.38 50.3798 305.305C52.4047 305.19 54.3349 304.41 55.8706 303.085C56.772 302.355 57.4492 301.385 57.8242 300.288C58.0202 299.716 58.0426 299.099 57.8886 298.514C57.7345 297.929 57.4109 297.403 56.9584 297.002C56.7098 296.817 56.426 296.685 56.1244 296.614C55.8228 296.542 55.5098 296.534 55.2046 296.588C54.8952 296.652 54.6074 296.794 54.369 297.002C54.1305 297.209 53.9494 297.474 53.843 297.772C53.5997 298.425 53.5138 299.127 53.5922 299.82C53.6707 300.513 53.9112 301.178 54.2944 301.76C55.0889 303.028 56.3128 303.969 57.7428 304.41C59.2429 304.885 60.827 305.037 62.3901 304.854C64.0057 304.733 65.543 304.11 66.7857 303.07C67.3952 302.521 67.852 301.824 68.1114 301.045C68.3708 300.267 68.424 299.435 68.2657 298.63C68.0989 297.848 67.6345 297.16 66.9707 296.714C66.6713 296.492 66.3036 296.382 65.9317 296.404C65.5599 296.426 65.2074 296.577 64.9357 296.832C64.6666 297.104 64.4608 297.432 64.3329 297.793C64.205 298.153 64.1581 298.538 64.1957 298.919C64.258 299.696 64.549 300.438 65.0319 301.05C66.0292 302.254 67.3523 303.146 68.8429 303.618C70.2637 304.129 71.7791 304.323 73.2829 304.188C74.6906 304.052 76.0031 303.416 76.9829 302.397C77.45 301.929 77.8113 301.367 78.0424 300.748C78.2734 300.129 78.3689 299.467 78.3223 298.808C78.2973 298.209 78.0701 297.636 77.6776 297.183C77.2851 296.73 76.7507 296.424 76.1615 296.314C75.8873 296.305 75.6146 296.359 75.3645 296.472C75.1144 296.585 74.8934 296.754 74.7185 296.965C74.3576 297.386 74.1195 297.898 74.0303 298.445C73.8789 299.481 74.119 300.537 74.7037 301.405C75.2169 302.196 75.9155 302.848 76.7387 303.307C78.1059 304.009 79.6616 304.255 81.1787 304.01C82.1389 303.879 83.0818 303.643 83.9908 303.307C84.6124 303.152 84.9306 303.011 84.938 303.033Z" fill="#FAFAFA"/>
<path d="M46.4652 275.697V295.011H84.4051V275.697H46.4652Z" fill="#EBEBEB"/>
<path d="M52.77 276.363C52.9106 276.363 53.029 280.544 53.029 285.71C53.029 290.875 52.9106 295.056 52.77 295.056C52.6294 295.056 52.5036 290.875 52.5036 285.71C52.5036 280.544 52.622 276.363 52.77 276.363Z" fill="#E0E0E0"/>
<path d="M55.6486 276.119C55.7892 276.119 55.9076 280.256 55.9076 285.347C55.9076 290.438 55.7892 294.575 55.6486 294.575C55.508 294.575 55.3822 290.446 55.3822 285.347C55.3822 280.248 55.5006 276.119 55.6486 276.119Z" fill="#E0E0E0"/>
<path d="M80.1205 275.527C80.2611 275.527 80.3795 279.878 80.3795 285.251C80.3795 290.623 80.2611 294.967 80.1205 294.967C79.9799 294.967 79.8541 290.616 79.8541 285.251C79.8541 279.886 79.9725 275.527 80.1205 275.527Z" fill="#E0E0E0"/>
<path d="M76.7387 275.764C76.8793 275.764 76.9977 279.997 76.9977 285.229C76.9977 290.46 76.8793 294.693 76.7387 294.693C76.5981 294.693 76.4723 290.46 76.4723 285.229C76.4723 279.997 76.5907 275.764 76.7387 275.764Z" fill="#E0E0E0"/>
<path d="M280.972 233.539C284.909 231.504 289.534 231.245 293.907 231.963C296.253 232.355 298.695 233.051 300.294 234.82C301.892 236.588 302.188 239.681 300.36 241.191C299.265 242.094 297.748 242.234 296.327 242.212C292.908 242.175 289.12 241.576 286.389 243.633C284.828 244.802 283.792 246.756 281.949 247.333C280.106 247.91 278.071 246.822 277.109 245.18C276.22 243.466 276.024 241.476 276.562 239.622C276.78 238.337 277.291 237.12 278.056 236.065C278.821 235.01 279.819 234.146 280.972 233.539Z" fill="#EBEBEB"/>
<path d="M271.959 216.142C274.364 219.576 279.041 218.436 281.209 216.342C283.377 214.247 284.295 211.206 285.124 208.305C287.033 201.69 288.949 194.741 287.536 188C287.197 185.955 286.298 184.044 284.939 182.479C284.251 181.708 283.374 181.13 282.394 180.803C281.413 180.475 280.365 180.411 279.352 180.614C276.998 181.243 275.533 183.574 274.475 185.743C271.357 192.228 269.721 199.326 269.687 206.522C269.687 209.867 270.072 213.374 271.959 216.142Z" fill="#EBEBEB"/>
<path d="M265.38 221.07C267.993 217.97 268.488 213.448 267.327 209.571C266.165 205.693 263.538 202.378 260.511 199.684C256.95 196.514 252.805 194.068 248.309 192.484C246.569 191.784 244.699 191.466 242.825 191.552C241.888 191.606 240.979 191.888 240.177 192.375C239.375 192.861 238.704 193.536 238.222 194.341C236.935 196.791 238.17 199.758 239.502 202.185C241.85 206.453 244.527 210.53 247.509 214.381C249.914 217.481 252.689 220.538 256.323 221.936C259.956 223.335 263.789 223.165 265.728 220.626" fill="#EBEBEB"/>
<path d="M271.796 267.957C271.923 267.445 271.998 266.922 272.018 266.396C272.129 265.263 272.262 263.835 272.433 262.141C272.645 260.041 272.963 257.954 273.387 255.887C273.944 253.364 274.704 250.889 275.659 248.487C276.597 246.102 277.865 243.86 279.426 241.827C280.698 240.171 282.323 238.818 284.184 237.868C285.448 237.247 286.801 236.826 288.195 236.618C288.719 236.602 289.24 236.527 289.749 236.396C289.222 236.338 288.691 236.338 288.165 236.396C286.718 236.506 285.302 236.874 283.984 237.484C282.027 238.409 280.31 239.774 278.967 241.472C277.335 243.536 276.018 245.83 275.06 248.28C274.104 250.71 273.361 253.218 272.84 255.777C272.437 257.867 272.157 259.98 272.003 262.104C271.87 263.909 271.818 265.374 271.796 266.388C271.741 266.91 271.741 267.435 271.796 267.957Z" fill="#E0E0E0"/>
<path d="M272.092 264.679C272.137 264.435 272.152 264.186 272.137 263.939C272.137 263.399 272.137 262.71 272.137 261.867C272.137 260.076 272.137 257.471 272.225 254.26C272.388 247.836 272.965 240.939 274.009 231.171C275.023 222.01 276.377 211.339 277.812 204.406C278.116 202.829 278.427 201.408 278.723 200.165C279.019 198.922 279.233 197.849 279.463 196.983C279.692 196.117 279.818 195.503 279.944 194.97C280.01 194.728 280.055 194.481 280.077 194.23C279.964 194.446 279.879 194.674 279.825 194.911C279.662 195.429 279.463 196.088 279.218 196.894C278.974 197.701 278.678 198.818 278.367 200.062C278.057 201.305 277.701 202.718 277.368 204.294C275.591 212.495 274.254 220.785 273.365 229.129C272.299 238.897 271.818 247.792 271.774 254.23C271.737 257.449 271.774 260.054 271.885 261.852C271.937 262.696 271.981 263.384 272.011 263.924C272.007 264.178 272.034 264.432 272.092 264.679Z" fill="#E0E0E0"/>
<path d="M272.137 247.525C272.193 246.806 272.193 246.084 272.137 245.365C272.055 243.973 271.863 241.961 271.471 239.504C270.999 236.624 270.364 233.772 269.569 230.964C268.636 227.509 267.441 224.13 265.995 220.856C263.519 214.821 259.965 209.287 255.509 204.524C254.732 203.71 253.906 202.944 253.037 202.23C252.66 201.912 252.297 201.593 251.986 201.342L251.032 200.683C250.456 200.244 249.844 199.853 249.204 199.514C249.1 199.655 251.786 201.231 255.176 204.842C259.487 209.647 262.945 215.153 265.403 221.122C266.816 224.373 268.01 227.716 268.977 231.127C269.917 234.265 270.538 237.151 271.012 239.578C271.485 242.005 271.715 244.018 271.87 245.387C271.901 246.106 271.99 246.821 272.137 247.525Z" fill="#E0E0E0"/>
<path d="M254.406 275.179L256.13 298.726H286.374L288.098 275.179H254.406Z" fill="#EBEBEB"/>
<path d="M291.702 265.9H251.483V275.179H291.702V265.9Z" fill="#EBEBEB"/>
<path d="M251.483 297.823V300.399H253.377H291.044V297.823H251.483Z" fill="#E0E0E0"/>
<path d="M255.228 304.639L253.378 300.117H289.601L287.44 304.639H255.228Z" fill="#E0E0E0"/>
<path d="M287.536 282.875C287.499 282.953 287.452 283.025 287.395 283.09C287.27 283.253 287.122 283.445 286.944 283.689L285.175 285.946L285.101 286.05L285.027 285.939C283.917 284.407 282.437 282.365 280.698 279.952H280.92L276.658 285.991L276.525 286.176L276.377 285.998L271.345 279.967H271.633L271.36 280.315L266.86 285.998L266.705 286.191L266.572 285.991C265.033 283.823 263.612 281.788 262.302 279.96H262.554L257.299 285.946L257.211 286.05L257.137 285.932L255.494 283.171C255.316 282.868 255.183 282.624 255.072 282.431C255.017 282.351 254.973 282.264 254.939 282.172C255.007 282.241 255.067 282.318 255.116 282.402L255.583 283.142L257.307 285.858H257.144L262.324 279.797L262.45 279.649L262.568 279.812L266.875 285.821H266.579L271.093 280.145L271.367 279.79L271.515 279.612L271.663 279.79L276.702 285.813H276.421L280.728 279.804L280.854 279.627L280.972 279.804L285.212 285.858H285.057C285.834 284.925 286.441 284.193 286.892 283.638L287.381 283.068C287.469 282.927 287.529 282.868 287.536 282.875Z" fill="#F5F5F5"/>
<path d="M288.52 275.024C288.52 275.128 280.935 275.209 271.589 275.209C262.243 275.209 254.658 275.128 254.658 275.024C254.658 274.92 262.235 274.839 271.589 274.839C280.943 274.839 288.52 274.92 288.52 275.024Z" fill="#F5F5F5"/>
<path d="M116.055 29.7276C116.055 29.7276 115.988 29.7276 115.877 29.6758L115.389 29.4834L113.524 28.7064L106.679 25.7464L84.1831 15.9488L83.3987 15.601H83.5615L61.5168 25.0656L54.8568 27.8628L53.0364 28.6028C52.829 28.6981 52.6135 28.7748 52.3926 28.8322C52.5891 28.7151 52.7944 28.6137 53.0068 28.5288L54.7976 27.7148L61.4576 24.7918L83.4505 15.2532H83.5319H83.6133L84.3977 15.5936L106.849 25.5096L113.635 28.551L115.47 29.402L115.944 29.6314C115.985 29.6591 116.022 29.6913 116.055 29.7276Z" fill="#E0E0E0"/>
<path d="M151.146 26.5012H6.6308V134.712H151.146V26.5012Z" fill="#E0E0E0"/>
<path d="M146.639 31.5333H11.685V130.265H146.639V31.5333Z" fill="#FAFAFA"/>
<path d="M41.4924 74.6681C41.4924 74.6681 41.633 91.2368 42.4766 96.2984L63.2633 95.3142C63.2633 95.3142 61.4429 79.0341 62.1459 74.6681H41.4924Z" fill="#E0E0E0"/>
<path d="M51.734 77.0065H52.0374C52.3268 76.9958 52.6165 77.0106 52.9032 77.0509C53.3587 77.1185 53.8022 77.2506 54.2204 77.4431C54.7741 77.7173 55.2634 78.1057 55.656 78.5827C56.1387 79.1627 56.4806 79.8466 56.6551 80.5807C56.8176 81.4403 56.7435 82.3279 56.4404 83.1485C56.2856 83.5948 56.0899 84.0258 55.8558 84.4361C55.6075 84.8537 55.3851 85.2862 55.1898 85.7311C54.7754 86.6749 54.4916 87.6707 54.3462 88.6911V88.7577H54.2796H52.2298H50.0764H49.995V88.6837C49.9027 87.6684 49.5594 86.6919 48.996 85.8421C48.7444 85.4129 48.4706 85.0207 48.256 84.6137C47.9874 84.2307 47.7403 83.8329 47.516 83.4223C47.1364 82.6362 47.0222 81.7481 47.1904 80.8915C47.3112 80.152 47.586 79.4461 47.997 78.8195C48.348 78.316 48.8084 77.8985 49.3438 77.5985C50.0048 77.2479 50.7296 77.0339 51.475 76.9695H51.771C51.771 76.9695 51.771 76.9695 51.697 76.9695H51.475C51.1926 77.0028 50.9131 77.0572 50.6388 77.1323C50.2012 77.2465 49.7807 77.4182 49.3882 77.6429C48.8646 77.9388 48.4164 78.3516 48.0784 78.8491C47.6962 79.4702 47.4444 80.1626 47.3384 80.8841C47.1769 81.7142 47.2913 82.5744 47.664 83.3335C47.8906 83.738 48.1376 84.1307 48.404 84.5101C48.663 84.9023 48.9368 85.3093 49.1884 85.7385C49.7725 86.6077 50.1264 87.6109 50.217 88.6541L50.1356 88.5727H52.289H54.3462L54.2648 88.6467C54.4128 87.6132 54.7016 86.6049 55.1232 85.6497C55.3264 85.2011 55.5536 84.7639 55.804 84.3399C56.0339 83.9388 56.2271 83.5178 56.3812 83.0819C56.6808 82.2865 56.7601 81.4249 56.6106 80.5881C56.4419 79.8717 56.1159 79.2018 55.656 78.6271C55.2743 78.1559 54.7978 77.7702 54.2574 77.4949C53.8479 77.2969 53.4116 77.1597 52.9624 77.0879C52.6807 77.0447 52.3964 77.02 52.1114 77.0139H51.882C51.7636 77.0139 51.734 77.0139 51.734 77.0065Z" fill="white"/>
<path d="M52.7996 88.5579C52.7981 88.5357 52.7981 88.5134 52.7996 88.4913V88.2989C52.7996 88.1287 52.733 87.8771 52.6886 87.5589C52.5924 86.9077 52.4518 85.9753 52.363 84.8135C52.363 84.5249 52.3186 84.2215 52.3112 83.9033C52.2926 83.5705 52.2926 83.237 52.3112 82.9042C52.3192 82.5472 52.3972 82.1953 52.5406 81.8682C52.7006 81.515 52.9851 81.2331 53.3398 81.0764C53.5288 80.9971 53.7369 80.9751 53.9383 81.0133C54.1396 81.0514 54.3253 81.148 54.4721 81.291C54.5502 81.3634 54.6118 81.4517 54.6527 81.5501C54.6935 81.6484 54.7127 81.7544 54.7089 81.8608C54.7046 82.0752 54.632 82.2826 54.5017 82.4528C54.3678 82.6258 54.1955 82.7652 53.9984 82.8598C53.8029 82.9518 53.5965 83.0189 53.3842 83.0597C52.5173 83.2369 51.6267 83.267 50.7498 83.1484C50.5329 83.1189 50.3212 83.0591 50.1208 82.9708C49.9254 82.883 49.7493 82.7572 49.6028 82.6008C49.4527 82.4443 49.3478 82.2499 49.2994 82.0384C49.2529 81.8313 49.279 81.6144 49.3734 81.4242C49.4591 81.2326 49.6156 81.0815 49.81 81.0024C49.9024 80.9627 50.0018 80.9423 50.1023 80.9423C50.2028 80.9423 50.3023 80.9627 50.3946 81.0024C50.5733 81.0835 50.7267 81.2113 50.8386 81.3724C50.9429 81.5305 51.018 81.7059 51.0606 81.8904C51.1234 82.2423 51.158 82.5987 51.1642 82.9561L51.2678 84.8579C51.3196 86.0197 51.3714 86.9595 51.401 87.6181C51.401 87.9363 51.401 88.1879 51.401 88.3581V88.6171C51.4026 88.5949 51.4026 88.5726 51.401 88.5505C51.401 88.5061 51.401 88.4395 51.401 88.3581C51.401 88.2767 51.401 87.9289 51.3566 87.6181C51.3566 86.9595 51.2604 86.0197 51.1938 84.8579C51.1938 84.2807 51.1272 83.6443 51.0902 82.9561C51.0855 82.6031 51.0483 82.2514 50.9792 81.9052C50.943 81.7281 50.8727 81.5597 50.772 81.4094C50.6622 81.2587 50.5175 81.1368 50.3502 81.0542C50.2648 81.0178 50.173 80.999 50.0801 80.999C49.9873 80.999 49.8954 81.0178 49.81 81.0542C49.6299 81.1292 49.4846 81.2692 49.403 81.4464C49.3178 81.6262 49.2944 81.8292 49.3364 82.0236C49.3863 82.2205 49.4856 82.4014 49.625 82.549C49.9254 82.8453 50.316 83.0328 50.735 83.0819C51.1692 83.1388 51.6073 83.1586 52.0448 83.1411C52.4824 83.1296 52.9182 83.0801 53.3472 82.9931C53.555 82.9534 53.7566 82.8862 53.9466 82.7933C54.1341 82.7032 54.2986 82.5716 54.4277 82.4084C54.5499 82.2485 54.6196 82.0546 54.6274 81.8534C54.627 81.7555 54.6072 81.6587 54.5691 81.5685C54.531 81.4783 54.4754 81.3966 54.4055 81.328C54.2662 81.1953 54.0918 81.1052 53.903 81.0684C53.7141 81.0317 53.5187 81.0499 53.3398 81.1208C53.0113 81.2692 52.7482 81.5323 52.5998 81.8608C52.4591 82.1836 52.3813 82.5302 52.3704 82.882C52.3704 83.2224 52.3704 83.5481 52.3704 83.8663C52.3704 84.1845 52.3704 84.4879 52.4222 84.7839C52.511 85.9457 52.6442 86.8781 52.7256 87.5219C52.77 87.8475 52.807 88.0917 52.8292 88.2619V88.4543C52.8235 88.4898 52.8135 88.5246 52.7996 88.5579Z" fill="white"/>
<path d="M50.0394 88.669C50.0731 88.897 50.0929 89.1268 50.0986 89.3572C50.0986 89.8506 50.1282 90.45 50.1874 91.1554V91.111L51.5934 92.7464H51.5194L53.14 92.6576H53.0734L53.8726 91.6808L54.2796 91.185V91.2516C54.2796 90.297 54.2352 89.4016 54.2204 88.5876L54.3092 88.669H51.2826H50.0394C50.1351 88.6554 50.2323 88.6554 50.328 88.669L51.179 88.6246L54.2574 88.5062H54.3462V88.595C54.3462 89.4164 54.398 90.3118 54.4276 91.259V91.2664C54.2944 91.4292 54.1612 91.5994 54.0206 91.7622L53.214 92.7464H53.1696L51.549 92.8278H51.5194L50.143 91.1924C50.143 90.4524 50.143 89.8604 50.143 89.3424C50.0952 89.1202 50.0606 88.8953 50.0394 88.669Z" fill="white"/>
<path d="M54.2426 91.0074C54.2426 91.0074 54.1834 91.0074 54.0872 90.9408C53.9496 90.8792 53.8088 90.8249 53.6654 90.778C53.1903 90.6121 52.6883 90.5368 52.1854 90.556C51.6771 90.5671 51.1753 90.6725 50.7054 90.8668L50.2984 91.0592L50.1504 91.1332C50.1886 91.0933 50.2337 91.0606 50.2836 91.037C50.4148 90.9573 50.5507 90.8856 50.6906 90.8224C51.1573 90.6152 51.6602 90.5021 52.1706 90.4894C52.6753 90.4707 53.1787 90.5538 53.6506 90.7336C53.7933 90.7846 53.9318 90.8464 54.065 90.9186L54.2426 91.0074Z" fill="white"/>
<path d="M54.2352 90.3636L54.0872 90.297L53.6654 90.1268C53.1892 89.9653 52.688 89.8901 52.1854 89.9048C51.678 89.923 51.1774 90.0281 50.7054 90.2156C50.5278 90.2896 50.3946 90.3562 50.2984 90.408L50.1504 90.482L50.2836 90.3858C50.4136 90.3061 50.5497 90.2368 50.6906 90.1786C51.1567 89.9687 51.6597 89.853 52.1706 89.8382C52.6749 89.8268 53.1768 89.9096 53.6506 90.0824C53.8282 90.1564 53.9688 90.223 54.065 90.2748C54.1612 90.3266 54.2426 90.3562 54.2352 90.3636Z" fill="white"/>
<path d="M54.1982 89.7419L54.0502 89.6827C53.9466 89.6383 53.806 89.5717 53.6284 89.5125C53.1521 89.3514 52.651 89.2762 52.1484 89.2905C51.64 89.3006 51.1379 89.406 50.6684 89.6013C50.4908 89.6753 50.3576 89.7419 50.2614 89.7937L50.1134 89.8677L50.2466 89.7715C50.3769 89.6902 50.5129 89.6185 50.6536 89.5569C51.1215 89.3535 51.6237 89.2405 52.1336 89.2239C52.6378 89.2133 53.1396 89.2961 53.6136 89.4681C53.7561 89.5226 53.8945 89.5869 54.028 89.6605C54.0896 89.6762 54.1474 89.7038 54.1982 89.7419Z" fill="white"/>
<path d="M18.3451 47.6062C18.3451 47.6062 18.4857 64.1823 19.3293 69.2365L40.116 68.2523C40.116 68.2523 38.2882 51.9722 38.9912 47.6062H18.3451Z" fill="#EBEBEB"/>
<path d="M35.8609 54.5327C33.5538 54.8742 31.2287 55.0818 28.8975 55.1543C26.5731 55.3686 24.2377 55.4403 21.9045 55.3689C24.2122 55.0317 26.537 54.8242 28.8679 54.7473C31.1929 54.5419 33.5277 54.4702 35.8609 54.5327Z" fill="white"/>
<path d="M35.8609 58.0402C33.5543 58.3876 31.2291 58.5976 28.8975 58.6692C26.575 58.8746 24.2426 58.9463 21.9119 58.8838C24.219 58.5418 26.5441 58.3342 28.8753 58.2622C31.1975 58.0524 33.53 57.9783 35.8609 58.0402Z" fill="white"/>
<path d="M32.3311 61.4885C31.0273 61.7697 29.6984 61.9185 28.3647 61.9325C27.041 62.0673 25.7071 62.0673 24.3835 61.9325C25.6848 61.6516 27.0112 61.5029 28.3425 61.4885C29.6686 61.3538 31.005 61.3538 32.3311 61.4885Z" fill="white"/>
<path d="M17.3608 96.3354C17.3608 96.3354 17.5014 112.904 18.345 117.966L39.1317 116.982C39.1317 116.982 37.3039 100.701 38.0069 96.3354H17.3608Z" fill="#EBEBEB"/>
<path d="M34.8767 103.291C32.57 103.638 30.2448 103.848 27.9133 103.92C25.5908 104.126 23.2584 104.197 20.9277 104.135C23.2323 103.793 25.5549 103.585 27.8837 103.513C30.2084 103.304 32.5434 103.229 34.8767 103.291Z" fill="white"/>
<path d="M34.8767 106.806C32.5697 107.149 30.2446 107.357 27.9133 107.428C25.5908 107.633 23.2584 107.705 20.9277 107.643C23.2348 107.301 25.5599 107.093 27.8911 107.021C30.2136 106.816 32.546 106.744 34.8767 106.806Z" fill="white"/>
<path d="M31.3469 110.255C30.0456 110.535 28.719 110.682 27.3879 110.691C26.063 110.839 24.7266 110.851 23.3993 110.728C24.7006 110.447 26.027 110.299 27.3583 110.284C28.6833 110.137 30.0199 110.127 31.3469 110.255Z" fill="white"/>
<path d="M74.1709 51.9648L76.2281 99.7691L135.902 100.487L133.223 52.5938L74.1709 51.9648Z" fill="#EBEBEB"/>
<path d="M132.757 51.6244H73.4753V96.3872H132.757V51.6244Z" fill="#F5F5F5"/>
<path d="M132.757 96.3872C132.757 96.3872 132.757 96.0986 132.757 95.551C132.757 95.0034 132.757 94.2042 132.757 93.1682C132.757 91.0666 132.757 87.9882 132.713 84.1106C132.713 76.3036 132.661 65.1369 132.624 51.6245L132.794 51.7873H73.5197L73.7269 51.5875C73.7269 67.6825 73.7269 82.9266 73.7269 96.3502L73.5419 96.1652L116.299 96.2541L128.465 96.3058H131.699H132.535H132.824H131.736L128.48 96.4464L116.366 96.4983L73.4457 96.5871H73.2607V96.4094C73.2607 82.9858 73.2607 67.7417 73.2607 51.6467V51.4395H73.4679H132.742H132.92V51.6097C132.92 65.1591 132.853 76.3702 132.831 84.1698C132.831 88.0548 132.831 91.0962 132.787 93.1904C132.787 94.2116 132.787 94.996 132.787 95.5436C132.772 96.1208 132.757 96.3872 132.757 96.3872Z" fill="#E0E0E0"/>
<path d="M104.659 61.1039H80.6311V91.3478H104.659V61.1039Z" fill="#F5F5F5"/>
<path d="M104.659 91.3479C104.651 91.2964 104.651 91.2439 104.659 91.1925V90.7633C104.659 90.3637 104.659 89.816 104.659 89.113C104.659 87.633 104.659 85.5536 104.615 82.9044C104.615 77.5838 104.555 70.0506 104.518 61.1039L104.703 61.2889H80.6755C80.6237 61.2889 81.0604 60.9041 80.8754 61.0891V69.3106C80.8754 71.9968 80.8754 74.6164 80.8754 77.1546C80.8754 82.2384 80.8754 86.9966 80.8754 91.3183L80.7126 91.1481L98.11 91.2369L102.987 91.2813H104.282H104.74C104.6 91.2915 104.459 91.2915 104.319 91.2813H103.061L98.2136 91.3257L80.7126 91.4145H80.5424V91.2443C80.5424 86.9226 80.5424 82.1644 80.5424 77.0806C80.5424 74.5424 80.5424 71.9006 80.5424 69.2366V61.1187C80.3574 61.2963 80.7866 60.8597 80.7496 60.9115H104.777H104.962V61.0965C104.925 70.0876 104.888 77.6652 104.866 83.0154L104.822 89.1796C104.822 89.8703 104.822 90.4105 104.822 90.8003C104.822 90.9631 104.822 91.0963 104.822 91.2073C104.773 91.2604 104.719 91.3076 104.659 91.3479Z" fill="#E0E0E0"/>
<path d="M127.599 54.1848H81.5487V58.5434H127.599V54.1848Z" fill="#F5F5F5"/>
<path d="M127.599 58.5434C127.599 58.5434 127.599 58.4324 127.599 58.2474C127.599 58.0624 127.599 57.7516 127.599 57.3964C127.599 56.6564 127.599 55.5686 127.547 54.1848L127.629 54.2662C119.866 54.3402 102.165 54.392 81.5783 54.392C81.9853 53.9776 81.6893 54.2736 81.7855 54.1848V58.5286L81.5857 58.3214L114.227 58.4102L124.025 58.4694H126.689H127.392C127.473 58.4634 127.555 58.4634 127.636 58.4694H127.422H126.748H124.129L114.375 58.536L81.5857 58.6174H81.3859V58.4176C81.3859 57.722 81.3859 57.0042 81.3859 56.279V54.059L81.5931 53.8518C102.18 53.8518 119.881 53.9036 127.644 53.9776H127.732V54.059C127.732 55.4576 127.732 56.5528 127.688 57.3224C127.688 57.6702 127.688 57.9366 127.688 58.1438C127.682 58.2812 127.652 58.4164 127.599 58.5434Z" fill="#E0E0E0"/>
<path d="M127.599 61.1039H107.597V79.3302H127.599V61.1039Z" fill="#F5F5F5"/>
<path d="M127.599 79.3302C127.599 79.3302 127.599 79.2044 127.599 78.9824V77.9908C127.599 77.1028 127.599 75.8521 127.555 74.2907C127.555 71.0791 127.503 66.5577 127.466 61.1187L127.636 61.2963H107.656L107.856 61.0965V65.9879C107.856 67.5863 107.856 69.1551 107.856 70.6869C107.856 73.7431 107.856 76.607 107.856 79.3154L107.671 79.1378L122.101 79.2266L126.193 79.2784H127.288C127.416 79.2676 127.545 79.2676 127.673 79.2784C127.557 79.289 127.441 79.289 127.325 79.2784H126.267L122.219 79.3228L107.671 79.4116H107.493V79.2266C107.493 76.5551 107.493 73.6543 107.493 70.5981C107.493 69.0663 107.493 67.4975 107.493 65.8991V61.0077C107.308 61.1853 107.737 60.7561 107.7 60.8005H127.681H127.858V60.9707C127.821 66.4541 127.792 71.0199 127.769 74.2907C127.769 75.8447 127.732 77.0806 127.725 77.9908C127.725 78.3805 127.725 78.6987 127.725 78.9454C127.701 79.0788 127.658 79.2083 127.599 79.3302Z" fill="#E0E0E0"/>
<path d="M127.599 82.1865H107.597V91.3478H127.599V82.1865Z" fill="#F5F5F5"/>
<path d="M127.599 91.3477C127.599 91.3477 127.599 91.1109 127.599 90.6817L127.562 88.8465C127.562 87.2259 127.518 84.9689 127.481 82.1865L127.629 82.3345L107.649 82.3937C107.464 82.5787 107.893 82.1421 107.848 82.1939V86.9077C107.848 88.4395 107.848 89.9269 107.848 91.3477L107.649 91.1553L121.953 91.2441L126.127 91.3033H127.251H127.651C127.533 91.3142 127.414 91.3142 127.296 91.3033H126.208L122.086 91.3625L107.649 91.4513H107.456V91.2589C107.456 89.8381 107.456 88.3507 107.456 86.8189V82.1051C107.412 82.1051 107.841 81.7129 107.663 81.8979L127.644 81.9497H127.74V82.0977C127.74 84.9171 127.681 87.2111 127.666 88.8465C127.666 89.5865 127.666 90.2007 127.666 90.6521C127.666 90.8856 127.644 91.1185 127.599 91.3477Z" fill="#E0E0E0"/>
<path d="M104.06 61.1556C96.6152 71.4343 88.0608 81.0691 80.6237 91.3478L104.06 61.1556Z" fill="white"/>
<path d="M80.6311 91.3478C80.6311 91.3478 80.6829 91.222 80.8235 91.0074L81.4525 90.0898C82.0001 89.2906 82.8215 88.1584 83.8575 86.7746C85.9222 83.9921 88.8748 80.2329 92.19 76.1259C95.5052 72.0189 98.4874 68.2893 100.604 65.5587L103.112 62.3249L103.801 61.4442C103.963 61.2518 104.052 61.1482 104.067 61.1556C104.013 61.2762 103.946 61.3904 103.867 61.496L103.238 62.4137C102.691 63.2129 101.869 64.3451 100.833 65.7363C98.7686 68.5113 95.816 72.2705 92.5008 76.3775C89.1856 80.4845 86.2108 84.2141 84.0869 86.9448L81.5783 90.186L80.8901 91.0592C80.8153 91.1651 80.7284 91.262 80.6311 91.3478Z" fill="#E0E0E0"/>
<path d="M104.659 91.3478C104.57 91.4144 99.1164 84.6878 92.486 76.3553C85.8556 68.0229 80.5423 61.1779 80.6459 61.1039C80.7495 61.0299 86.1812 67.7639 92.819 76.1037C99.4568 84.4436 104.748 91.2664 104.659 91.3478Z" fill="#E0E0E0"/>
<path d="M76.2281 61.1704C76.2281 61.9139 76.0076 62.6407 75.5946 63.2589C75.1815 63.8771 74.5944 64.3589 73.9075 64.6434C73.2206 64.9279 72.4647 65.0024 71.7355 64.8573C71.0063 64.7123 70.3365 64.3543 69.8107 63.8285C69.285 63.3028 68.927 62.633 68.7819 61.9037C68.6369 61.1745 68.7113 60.4187 68.9958 59.7318C69.2804 59.0449 69.7622 58.4577 70.3804 58.0447C70.9986 57.6316 71.7254 57.4111 72.4689 57.4111C73.4653 57.4131 74.4203 57.8098 75.1249 58.5143C75.8295 59.2189 76.2262 60.1739 76.2281 61.1704Z" fill="#E0E0E0"/>
<path d="M137.715 52.0462C137.715 52.7897 137.495 53.5165 137.081 54.1347C136.668 54.7529 136.081 55.2347 135.394 55.5193C134.707 55.8038 133.952 55.8782 133.222 55.7332C132.493 55.5881 131.823 55.2301 131.298 54.7044C130.772 54.1786 130.414 53.5088 130.269 52.7796C130.124 52.0504 130.198 51.2945 130.483 50.6076C130.767 49.9207 131.249 49.3336 131.867 48.9205C132.485 48.5075 133.212 48.287 133.956 48.287C134.952 48.2889 135.907 48.6856 136.612 49.3902C137.316 50.0948 137.713 51.0498 137.715 52.0462Z" fill="#E0E0E0"/>
<path d="M284.768 78.2275H241.449V141.024H284.768V78.2275Z" fill="#E0E0E0"/>
<path d="M282.6 78.2275H239.28V141.024H282.6V78.2275Z" fill="#F5F5F5"/>
<path d="M277.22 85.0282H244.66V134.224H277.22V85.0282Z" fill="white"/>
<path d="M277.22 134.223C277.22 134.223 277.22 134.135 277.22 133.979C277.22 133.824 277.22 133.587 277.22 133.284C277.22 132.662 277.22 131.759 277.22 130.583C277.22 128.229 277.22 124.788 277.22 120.452C277.22 111.779 277.22 99.4951 277.169 85.0281L277.28 85.1391H244.66L244.779 85.0207C244.779 103.58 244.779 120.689 244.779 134.216L244.682 134.12L268.363 134.172H274.912H276.628H277.228H276.651H274.949H268.422L244.668 134.216H244.571V134.127C244.571 120.6 244.571 103.491 244.571 84.9319V84.8135H244.66H277.22H277.324V84.9171C277.324 99.4137 277.287 111.72 277.272 120.437C277.272 124.766 277.272 128.192 277.272 130.546C277.272 131.707 277.272 132.603 277.272 133.217C277.272 133.52 277.272 133.742 277.272 133.905L277.22 134.223Z" fill="#E0E0E0"/>
<path d="M282.719 78.2275C282.51 78.6261 282.262 79.0028 281.979 79.3523C281.475 80.0257 280.758 80.936 279.944 81.9276C279.13 82.9192 278.367 83.7924 277.805 84.4214C277.518 84.7736 277.198 85.0981 276.85 85.3908C277.097 85.009 277.374 84.6477 277.679 84.3104L279.766 81.7795L281.845 79.2487C282.111 78.8875 282.403 78.5462 282.719 78.2275Z" fill="#E0E0E0"/>
<path d="M277.383 134.061C279 136.636 280.904 139.02 283.059 141.165L277.383 134.061Z" fill="white"/>
<path d="M283.059 141.165C282.699 140.901 282.369 140.598 282.075 140.262C281.318 139.496 280.602 138.69 279.929 137.85C279.256 137.009 278.626 136.134 278.042 135.23C277.781 134.865 277.561 134.473 277.383 134.061C277.674 134.399 277.941 134.758 278.182 135.134C278.656 135.807 279.329 136.717 280.114 137.702C280.898 138.686 281.646 139.537 282.193 140.151C282.508 140.466 282.797 140.805 283.059 141.165Z" fill="#E0E0E0"/>
<path d="M239.273 140.972L244.949 133.972L239.273 140.972Z" fill="white"/>
<path d="M244.949 133.972C244.993 133.972 243.765 135.615 242.203 137.546C241.278 138.74 240.29 139.883 239.243 140.972C241.011 138.541 242.906 136.204 244.919 133.972H244.949Z" fill="#E0E0E0"/>
<path d="M239.28 78.2275C240.253 79.2784 241.171 80.3774 242.033 81.5206C242.952 82.6193 243.809 83.7681 244.601 84.9616C243.626 83.9058 242.707 82.7991 241.848 81.6464C240.927 80.557 240.07 79.4155 239.28 78.2275Z" fill="#E0E0E0"/>
<path d="M267.075 95.0182H256.175V125.973H267.075V95.0182Z" fill="#E0E0E0"/>
<path d="M274.785 11.5028L268.583 11.5364L268.75 42.3941L274.952 42.3605L274.785 11.5028Z" fill="#E0E0E0"/>
<path d="M230.918 11.585L214.861 11.6719L214.953 28.7065L231.011 28.6196L230.918 11.585Z" fill="#EBEBEB"/>
<path d="M246.894 11.5059L230.837 11.5928L230.929 28.6274L246.987 28.5405L246.894 11.5059Z" fill="#F5F5F5"/>
<path d="M214.883 16.3929C225.553 16.4817 236.254 16.3929 246.925 16.2449C246.97 16.2449 247.013 16.227 247.045 16.195C247.077 16.1631 247.095 16.1198 247.095 16.0747C247.095 16.0296 247.077 15.9863 247.045 15.9543C247.013 15.9224 246.97 15.9045 246.925 15.9045C236.244 15.8453 225.563 15.9094 214.883 16.0969C214.843 16.0969 214.806 16.1125 214.778 16.1402C214.75 16.168 214.735 16.2056 214.735 16.2449C214.735 16.2841 214.75 16.3218 214.778 16.3495C214.806 16.3773 214.843 16.3929 214.883 16.3929Z" fill="#E0E0E0"/>
<path d="M234.021 28.3438L204.843 28.5017L204.918 42.384L234.096 42.2261L234.021 28.3438Z" fill="#EBEBEB"/>
<path d="M263.065 28.1867L233.887 28.3446L233.962 42.2269L263.14 42.069L263.065 28.1867Z" fill="#F5F5F5"/>
<path d="M204.863 32.3695C224.251 32.5915 243.698 32.3695 263.079 32.0809C263.124 32.0809 263.167 32.063 263.199 32.0311C263.231 31.9992 263.249 31.9559 263.249 31.9107C263.249 31.8656 263.231 31.8223 263.199 31.7904C263.167 31.7585 263.124 31.7405 263.079 31.7405C243.691 31.6369 224.244 31.6517 204.863 32.0735C204.824 32.0735 204.786 32.0891 204.758 32.1169C204.73 32.1446 204.715 32.1823 204.715 32.2215C204.715 32.2608 204.73 32.2984 204.758 32.3262C204.786 32.3539 204.824 32.3695 204.863 32.3695Z" fill="#E0E0E0"/>
<path d="M306.998 42.3892H193.955V47.362H306.998V42.3892Z" fill="#E0E0E0"/>
<path d="M217.051 44.7794H212.463V61.7477H217.051V44.7794Z" fill="#E0E0E0"/>
<path d="M285.553 44.7794H280.965V61.7477H285.553V44.7794Z" fill="#E0E0E0"/>
<path d="M280.835 1.76114e-05L274.634 0.0335693L274.863 42.4721L281.064 42.4386L280.835 1.76114e-05Z" fill="#EBEBEB"/>
<path d="M290.527 7.90258L280.892 7.95471L281.078 42.3496L290.713 42.2974L290.527 7.90258Z" fill="#F5F5F5"/>
<path d="M290.459 14.5355C287.256 14.7617 284.042 14.7617 280.839 14.5355C284.042 14.3191 287.256 14.3191 290.459 14.5355Z" fill="#E0E0E0"/>
<path d="M290.459 13.0925C287.256 13.3187 284.042 13.3187 280.839 13.0925C284.042 12.8761 287.256 12.8761 290.459 13.0925Z" fill="#E0E0E0"/>
<path d="M290.459 37.1276C287.256 37.3539 284.042 37.3539 280.839 37.1276C284.042 36.9112 287.256 36.9112 290.459 37.1276Z" fill="#E0E0E0"/>
<path d="M290.459 35.6848C287.256 35.911 284.042 35.911 280.839 35.6848C284.042 35.4684 287.256 35.4684 290.459 35.6848Z" fill="#E0E0E0"/>
<path d="M285.797 32.5323C285.701 32.5323 285.627 29.0617 285.627 24.7845C285.627 20.5072 285.701 17.0366 285.797 17.0366C285.893 17.0366 285.96 20.5072 285.96 24.7845C285.96 29.0617 285.886 32.5323 285.797 32.5323Z" fill="#E0E0E0"/>
<path d="M301.049 16.3558H290.563V42.3151H301.049V16.3558Z" fill="#EBEBEB"/>
<path d="M296.105 35.5886C295.793 35.6067 295.481 35.5588 295.188 35.4478C294.896 35.3368 294.63 35.1653 294.409 34.9446C294.187 34.7238 294.015 34.4587 293.903 34.1667C293.791 33.8747 293.742 33.5624 293.759 33.2501C293.743 32.9099 293.812 32.5708 293.96 32.2643C294.109 31.9577 294.333 31.6936 294.61 31.4963L294.847 31.8293C294.625 31.9916 294.446 32.2061 294.326 32.4539C294.206 32.7016 294.149 32.9751 294.159 33.2501C294.159 33.7663 294.364 34.2613 294.729 34.6263C295.094 34.9913 295.589 35.1964 296.105 35.1964C296.621 35.1964 297.117 34.9913 297.481 34.6263C297.846 34.2613 298.052 33.7663 298.052 33.2501C298.062 32.9742 298.005 32.6999 297.883 32.4519C297.762 32.2038 297.581 31.9899 297.356 31.8293L297.6 31.4963C297.875 31.6963 298.095 31.9612 298.242 32.2672C298.39 32.5732 298.459 32.9109 298.444 33.2501C298.461 33.5617 298.412 33.8734 298.301 34.1649C298.189 34.4563 298.017 34.721 297.797 34.9417C297.576 35.1623 297.311 35.334 297.02 35.4454C296.729 35.5569 296.417 35.6057 296.105 35.5886Z" fill="#FAFAFA"/>
<path d="M297.852 30.8525L297.504 30.6527C297.868 30.1742 298.063 29.5888 298.059 28.9877C298.059 28.0183 297.711 27.6261 297.193 27.6261C295.846 27.6261 296.838 30.6897 295.025 30.6897C294.329 30.6897 293.759 30.1051 293.759 28.9359C293.75 28.3751 293.907 27.8241 294.211 27.3523L294.566 27.5595C294.287 27.9664 294.142 28.4502 294.152 28.9433C294.152 29.8461 294.522 30.2457 295.017 30.2457C296.401 30.2457 295.424 27.1821 297.186 27.1821C297.926 27.1821 298.444 27.8333 298.444 29.0099C298.466 29.6742 298.257 30.3257 297.852 30.8525Z" fill="#FAFAFA"/>
<path d="M297.852 26.6271L297.504 26.4273C297.868 25.9487 298.063 25.3633 298.059 24.7623C298.059 23.7929 297.711 23.4007 297.193 23.4007C295.846 23.4007 296.838 26.4569 295.025 26.4569C294.329 26.4569 293.759 25.8797 293.759 24.7105C293.75 24.1496 293.907 23.5986 294.211 23.1269L294.566 23.3267C294.288 23.7367 294.143 24.2225 294.152 24.7179C294.152 25.6207 294.522 26.0203 295.017 26.0203C296.401 26.0203 295.424 22.9567 297.186 22.9567C297.926 22.9567 298.444 23.6005 298.444 24.7771C298.467 25.4438 298.258 26.0979 297.852 26.6271Z" fill="#FAFAFA"/>
<path d="M277.642 9.0446C278.627 9.0446 279.426 8.24614 279.426 7.26119C279.426 6.27624 278.627 5.47778 277.642 5.47778C276.657 5.47778 275.859 6.27624 275.859 7.26119C275.859 8.24614 276.657 9.0446 277.642 9.0446Z" fill="#E0E0E0"/>
<path d="M278.19 12.16H277.087V37.4089H278.19V12.16Z" fill="#E0E0E0"/>
<path d="M320 305.867C320 305.971 248.523 306.06 160.374 306.06C72.2247 306.06 0.732971 305.986 0.732971 305.867C0.732971 305.749 72.1951 305.675 160.374 305.675C248.553 305.675 320 305.778 320 305.867Z" fill="#263238"/>
<path d="M87.1728 51.4838C75.2957 70.1615 76.0727 96.0616 89.0524 113.992C97.703 125.95 110.675 133.972 120.976 144.524C131.277 155.077 139.106 170.654 133.667 184.374C128.132 198.337 111.918 204.013 99.7824 212.864C86.3924 222.616 77.3023 237.178 74.4211 253.491C71.54 269.803 75.092 286.598 84.3311 300.347H210.443C210.443 300.347 232.598 258.13 204.115 225.947C175.633 193.764 160.337 193.246 161.388 172.141C162.438 151.036 177.209 144.191 185.652 136.273C194.096 128.355 235.233 109.907 210.968 51.4764L87.1728 51.4838Z" fill="#FAFAFA"/>
<path d="M87.1727 51.4838H89.341H95.7346H120.347L210.968 51.4172H211.064V51.506C212.922 55.9302 214.503 60.4653 215.8 65.0851C217.162 69.922 218.059 74.8778 218.479 79.8852C218.915 85.1193 218.647 90.3884 217.68 95.551C216.618 100.903 214.693 106.046 211.982 110.78C210.577 113.195 208.988 115.498 207.231 117.67C205.437 119.87 203.496 121.947 201.422 123.886C199.321 125.86 197.12 127.725 194.828 129.473C192.534 131.249 190.137 132.921 187.798 134.697C186.629 135.578 185.578 136.569 184.439 137.561C183.299 138.553 182.167 139.478 180.998 140.41C178.667 142.275 176.314 144.11 174.094 146.175C169.46 150.191 165.9 155.297 163.734 161.034C162.693 163.976 162.036 167.04 161.78 170.151C161.713 170.891 161.61 171.705 161.58 172.489C161.55 173.274 161.521 174.058 161.58 174.842C161.597 176.417 161.755 177.987 162.054 179.534C162.64 182.668 163.92 185.631 165.798 188.207C167.731 190.782 169.92 193.155 172.332 195.289C177.12 199.662 182.204 203.843 187.066 208.357C191.928 212.871 196.686 217.578 201.274 222.558C203.615 225.023 205.804 227.628 207.83 230.357C209.869 233.121 211.64 236.072 213.121 239.171C216.116 245.451 217.956 252.219 218.553 259.151C219.156 266.179 218.743 273.257 217.325 280.167C216.635 283.658 215.731 287.103 214.616 290.483C213.521 293.89 212.185 297.216 210.62 300.436L210.568 300.539H84.2275L84.1757 300.458C78.2618 291.554 74.6348 281.328 73.6159 270.688C72.5908 260.466 74.09 250.15 77.9819 240.643C81.6808 231.556 87.3764 223.418 94.6468 216.83C98.1749 213.716 101.985 210.936 106.028 208.527C109.965 206.085 113.939 203.821 117.69 201.349C121.446 199.002 124.896 196.198 127.962 193.002C130.89 189.863 133.061 186.097 134.311 181.991C135.406 177.984 135.578 173.782 134.814 169.699C134.084 165.76 132.77 161.951 130.914 158.4C129.14 154.98 127.012 151.756 124.565 148.779C122.204 145.924 119.636 143.246 116.884 140.765C111.548 135.852 106.08 131.552 101.166 127.134C98.702 124.914 96.371 122.694 94.2176 120.423C92.1304 118.198 90.2064 115.827 88.4604 113.326C85.3039 108.74 82.8705 103.696 81.2453 98.3704C79.8218 93.7717 78.996 89.0089 78.7885 84.1994C78.6849 83.1042 78.7293 82.0238 78.7293 80.9656C78.7293 79.9074 78.7293 78.8788 78.8255 77.8798C78.9217 76.8807 78.9735 75.9039 79.0475 74.9197C79.1215 73.9355 79.3213 73.0549 79.4471 72.1595C80.2647 66.7086 81.9327 61.4199 84.3903 56.4863C84.7232 55.723 85.1038 54.9816 85.53 54.2662L86.4402 52.7196C86.9212 51.8982 87.1802 51.4838 87.1802 51.4838L86.4402 52.7418L85.5595 54.2662C85.1436 54.9847 84.7681 55.7259 84.4347 56.4863C81.9994 61.4318 80.3515 66.7275 79.5507 72.1817C79.4249 73.0697 79.2769 73.9873 79.1659 74.9271C79.0549 75.8669 79.0179 76.8511 78.9439 77.8501C78.8699 78.8492 78.8699 79.8778 78.8625 80.9286C78.8551 81.9794 78.8255 83.0598 78.9291 84.155C79.1432 88.9486 79.9764 93.6944 81.4081 98.2742C83.0314 103.58 85.4624 108.605 88.6158 113.171C90.3574 115.661 92.2792 118.02 94.3656 120.23C96.5116 122.509 98.8426 124.729 101.307 126.89C106.22 131.33 111.667 135.585 117.039 140.506C119.813 143.005 122.4 145.703 124.78 148.58C127.24 151.577 129.38 154.824 131.166 158.266C133.039 161.84 134.366 165.674 135.103 169.64C135.878 173.766 135.706 178.015 134.6 182.065C133.344 186.219 131.152 190.029 128.191 193.202C125.11 196.416 121.646 199.24 117.875 201.608C114.109 204.087 110.135 206.352 106.206 208.794C102.18 211.196 98.3847 213.966 94.8688 217.067C87.6431 223.621 81.9809 231.713 78.3001 240.747C74.4317 250.205 72.9452 260.469 73.9711 270.636C74.9901 281.216 78.599 291.382 84.4791 300.236L84.3311 300.155H210.443L210.272 300.258C211.835 297.047 213.165 293.728 214.254 290.327C215.362 286.962 216.262 283.532 216.947 280.056C218.359 273.18 218.77 266.137 218.168 259.144C217.583 252.249 215.755 245.518 212.774 239.274C211.303 236.198 209.546 233.267 207.527 230.52C205.506 227.804 203.326 225.21 201 222.75C196.437 217.782 191.708 213.056 186.814 208.572C181.96 204.065 176.891 199.891 172.088 195.496C169.657 193.345 167.448 190.955 165.495 188.362C163.58 185.755 162.268 182.755 161.654 179.578C161.358 178.009 161.197 176.417 161.173 174.82C161.136 174.028 161.173 173.237 161.173 172.445C161.173 171.653 161.306 170.869 161.365 170.084C161.637 166.955 162.309 163.874 163.364 160.916C165.548 155.129 169.142 149.978 173.82 145.93C176.04 143.873 178.415 142.008 180.746 140.151C181.915 139.219 183.062 138.279 184.18 137.317C185.297 136.355 186.4 135.319 187.554 134.431C189.907 132.655 192.298 130.982 194.584 129.214C196.869 127.473 199.065 125.619 201.163 123.656C203.224 121.726 205.154 119.662 206.942 117.477C208.686 115.313 210.266 113.023 211.671 110.625C214.367 105.923 216.282 100.815 217.339 95.4992C218.302 90.3786 218.573 85.1519 218.146 79.9592C217.732 74.9526 216.843 69.9969 215.489 65.1591C214.211 60.5265 212.649 55.9768 210.813 51.5356L210.938 51.617L120.369 51.5504H95.742H89.3336L87.1727 51.4838Z" fill="#263238"/>
<path d="M205.936 85.7386C224.51 88.7948 195.228 121.695 178.645 134.675C169.025 142.186 158.738 150.341 154.18 161.648C149 174.48 152.841 188.895 150.339 201.801C150.259 202.246 150.013 202.644 149.651 202.915C149.289 203.186 148.838 203.31 148.388 203.262C147.938 203.215 147.523 202.998 147.226 202.657C146.93 202.316 146.773 201.875 146.787 201.423C146.906 192.95 146.684 184.485 145.307 176.145C143.317 164.305 138.773 152.62 130.507 143.955C123.736 136.873 114.864 132.174 107.649 125.558C97.111 115.901 86.2848 103.447 85.2266 89.1944C85.2266 89.1944 105.458 72.9143 116.692 74.9494C129.819 77.3544 142.74 97.6083 163.075 95.292C177.224 93.6714 184.394 82.2014 205.936 85.7386Z" fill="#BAF0B6"/>
<path d="M207.586 261.822C207.12 257.175 205.877 251.921 201.755 249.731C199.261 248.399 196.22 248.547 193.482 249.264C190.744 249.982 188.176 251.233 185.467 252.039C180.083 253.623 174.333 253.439 169.062 251.514C164.022 249.664 159.7 246.334 155.001 243.685C150.302 241.036 144.849 239.097 139.639 240.392C130.655 242.612 125.979 253.445 117.098 256.058C113.147 257.212 108.907 256.561 104.896 255.658C100.885 254.755 96.852 253.579 92.745 253.734C89.5186 253.852 86.1664 254.97 83.9094 257.175L83.8502 257.242C83.4744 257.61 83.1326 258.011 82.8289 258.44C80.0761 262.14 79.6321 267.047 80.4831 271.531C81.4303 276.556 83.7762 281.196 86.2922 285.643C89.2522 290.882 92.6266 296.092 97.5254 299.585C103.579 303.899 111.178 300.924 118.586 301.509C135.85 302.87 154.424 303.795 171.696 302.463C180.82 301.723 189.367 302.744 196.604 297.143C201.696 293.206 205.011 287.271 206.609 281.04C208.208 274.809 208.23 268.223 207.586 261.822Z" fill="#BAF0B6"/>
<g opacity="0.24">
<path d="M174.996 252.927C174.027 254.407 173.605 256.42 174.545 257.93C175.485 259.44 176.765 260.823 177.165 262.562C177.808 265.286 176.166 267.95 174.945 270.473C172.685 274.985 171.831 280.071 172.495 285.073C173.195 290.092 175.787 294.653 179.74 297.823C181.494 299.178 183.773 300.229 185.889 299.563C187.88 298.941 189.16 296.921 189.589 294.871C190.018 292.821 189.656 290.712 189.397 288.647C188.192 279.025 188.441 269.276 190.137 259.728C190.418 258.137 190.684 256.317 189.678 255.051C188.952 254.314 188.03 253.801 187.021 253.571C183.173 252.291 179.022 253.712 175.033 252.957" fill="black"/>
</g>
<path d="M75.0737 306.075C75.0737 306.075 74.7259 300.288 82.2739 297.061H214.92C214.92 297.061 221.839 300.569 222.69 305.941L75.0737 306.075Z" fill="#263238"/>
<path d="M212.1 52.1868L211.886 52.283L87.158 51.4838C87.158 51.4838 86.714 51.2026 86.0554 50.6772C85.2778 50.0681 84.7105 49.2308 84.4331 48.2829C84.1557 47.3349 84.1821 46.3239 84.5086 45.3917C84.8351 44.4595 85.4454 43.6529 86.2537 43.0852C87.0619 42.5176 88.0277 42.2172 89.0154 42.2264L210.08 43.2032C215.06 43.2476 216.629 50.0556 212.1 52.1868Z" fill="#263238"/>
<g opacity="0.24">
<path d="M192.12 99.769C192.372 100.25 191.432 101.249 189.648 102.877C187.865 104.505 185.208 106.644 181.908 109.33C177.945 112.604 173.74 115.572 169.328 118.21C166.587 119.797 163.703 121.122 160.714 122.169C159.094 122.729 157.441 123.186 155.764 123.538C154.002 123.912 152.213 124.145 150.413 124.233C146.768 124.432 143.118 123.929 139.661 122.753C136.605 121.642 133.701 120.15 131.018 118.313C128.532 116.671 126.393 115.043 124.358 113.481C122.323 111.92 120.51 110.418 118.867 108.997C112.318 103.321 108.87 99.1474 109.536 98.3408C110.202 97.5342 114.864 100.161 122.116 104.601L128.036 108.227C130.16 109.515 132.431 110.943 134.755 112.26C137.061 113.614 139.504 114.718 142.044 115.553C144.643 116.331 147.357 116.652 150.066 116.5C155.749 116.204 161.262 114.206 166.035 111.898C170.808 109.589 175.13 106.895 178.874 104.794C181.837 103.045 184.935 101.535 188.139 100.28C190.485 99.4582 191.905 99.3028 192.12 99.769Z" fill="black"/>
</g>
<path d="M146.876 217.259C147.401 217.051 147.986 217.057 148.506 217.277C149.025 217.497 149.437 217.912 149.653 218.434C149.868 218.955 149.87 219.541 149.657 220.063C149.444 220.586 149.033 221.004 148.515 221.226C147.996 221.448 147.411 221.457 146.886 221.251C146.36 221.045 145.937 220.64 145.708 220.124C145.479 219.609 145.462 219.024 145.662 218.496C145.861 217.968 146.26 217.54 146.773 217.304" fill="#BAF0B6"/>
<path d="M102.269 120.408C102.107 120.275 101.958 120.126 101.825 119.964L100.619 118.646C100.108 118.062 99.4346 117.381 98.7464 116.515L96.3932 113.555C95.5866 112.416 94.6764 111.187 93.7588 109.855L92.4046 107.702C92.1752 107.332 91.931 106.962 91.709 106.57L91.0578 105.371C89.0884 101.881 87.5455 98.1662 86.4624 94.3078C85.374 90.4525 84.787 86.4731 84.716 82.4677C84.716 81.5427 84.7678 80.6473 84.7826 79.7667C84.7826 79.3301 84.7826 78.9009 84.8418 78.4791C84.901 78.0573 84.9306 77.6429 84.975 77.2359C85.0712 76.4219 85.1304 75.6301 85.2414 74.8753C85.3524 74.1205 85.5078 73.3953 85.6336 72.7219C85.8408 71.3381 86.2108 70.1319 86.4698 69.0219C86.6104 68.4891 86.7214 67.9859 86.862 67.5419L87.269 66.3061L87.8388 64.6115C87.8932 64.4097 87.9676 64.2139 88.0608 64.0269C88.0304 64.2333 87.9808 64.4364 87.9128 64.6337C87.787 65.0629 87.6242 65.6327 87.4096 66.3505L87.0396 67.5863C86.9138 68.0377 86.8102 68.5409 86.677 69.0663C86.4402 70.1393 86.0924 71.3529 85.937 72.7663C85.8186 73.4471 85.7002 74.1649 85.5744 74.9123C85.4486 75.6597 85.419 76.4441 85.3302 77.2581C85.3302 77.6651 85.2488 78.0721 85.2044 78.4939C85.16 78.9157 85.2044 79.3449 85.16 79.7741C85.16 80.6473 85.1008 81.5353 85.1082 82.4529C85.1804 86.4347 85.7598 90.3911 86.8324 94.2264C87.9097 98.0565 89.4322 101.747 91.3686 105.223C91.5832 105.622 91.7978 106.022 92.005 106.422C92.2122 106.821 92.4712 107.162 92.6932 107.546L94.0252 109.7C94.928 111.061 95.8234 112.29 96.6078 113.4L98.9166 116.36C99.5826 117.24 100.241 117.929 100.73 118.535L101.884 119.904C102.023 120.064 102.151 120.232 102.269 120.408Z" fill="#263238"/>
<path d="M95.2462 230.343C95.2829 230.257 95.3275 230.175 95.3794 230.098L95.8234 229.403C96.0232 229.092 96.2674 228.722 96.5634 228.278L97.0296 227.538C97.2146 227.294 97.4292 227.05 97.6438 226.798L99.1238 225.022C99.6936 224.408 100.345 223.771 101.033 223.076C102.629 221.539 104.325 220.11 106.109 218.799C110.039 215.839 115.108 212.879 120.599 209.408C123.486 207.629 126.261 205.674 128.909 203.554C131.749 201.292 134.258 198.641 136.361 195.681C140.21 189.767 142.301 182.882 142.392 175.827C142.486 170.076 141.522 164.357 139.55 158.954C138.244 155.309 136.604 151.791 134.651 148.446C133.963 147.255 133.401 146.352 133.016 145.738L132.579 145.042C132.483 144.887 132.439 144.798 132.439 144.798C132.505 144.865 132.562 144.939 132.609 145.02L133.083 145.701C133.49 146.293 134.074 147.181 134.777 148.372C136.79 151.699 138.475 155.213 139.809 158.866C141.834 164.291 142.838 170.044 142.769 175.834C142.738 177.503 142.602 179.169 142.362 180.822C142.122 182.55 141.759 184.259 141.274 185.935C140.264 189.484 138.692 192.849 136.62 195.903C134.495 198.896 131.959 201.574 129.087 203.858C126.423 205.979 123.633 207.936 120.732 209.719C115.219 213.16 110.142 216.09 106.213 219.028C104.429 220.322 102.728 221.729 101.122 223.239C100.434 223.927 99.775 224.548 99.1978 225.155L97.7178 226.894C97.4958 227.161 97.2812 227.405 97.0962 227.634L96.6152 228.337L95.8752 229.44L95.4016 230.113C95.3561 230.194 95.3041 230.27 95.2462 230.343Z" fill="#263238"/>
<path d="M88.3642 243.418C88.3195 243.539 88.2651 243.655 88.2014 243.766L87.6686 244.706C87.4318 245.106 87.1506 245.609 86.862 246.186C86.5733 246.763 86.2033 247.444 85.8925 248.221C85.7297 248.606 85.5521 249.005 85.3745 249.42C85.1969 249.834 85.049 250.293 84.8714 250.752C84.5161 251.67 84.2349 252.676 83.9093 253.712C82.6222 258.351 82.1786 263.183 82.5995 267.979C82.7253 269.074 82.8141 270.125 83.0065 271.087C83.0879 271.568 83.1545 272.042 83.2507 272.486C83.3469 272.93 83.4505 273.359 83.5467 273.766C83.7095 274.587 83.9537 275.305 84.1313 275.942C84.3089 276.578 84.4865 277.126 84.6493 277.57L84.9972 278.591C85.0471 278.706 85.0795 278.828 85.0933 278.953C85.022 278.851 84.9648 278.739 84.9231 278.62C84.8121 278.347 84.6789 278.021 84.5087 277.621C84.2851 277.095 84.0899 276.556 83.9241 276.008C83.7243 275.372 83.4653 274.654 83.2803 273.833C83.1767 273.426 83.0731 272.996 82.9621 272.552C82.8511 272.108 82.7845 271.627 82.6883 271.146C82.4811 270.17 82.3775 269.119 82.2443 268.016C81.7811 263.191 82.2279 258.321 83.5615 253.66C83.8945 252.595 84.1905 251.581 84.5679 250.663C84.7529 250.204 84.9009 249.753 85.0933 249.331L85.6409 248.125C85.9666 247.385 86.381 246.697 86.6696 246.105C86.9303 245.596 87.2194 245.101 87.5354 244.625L88.1274 243.714C88.2754 243.515 88.3494 243.411 88.3642 243.418Z" fill="#263238"/>
<path d="M179.851 261.208L179.703 261.312L179.244 261.6L177.446 262.681L176.143 263.421C175.655 263.695 175.115 263.946 174.538 264.235C173.368 264.797 172.081 265.515 170.556 266.092L168.188 267.062C167.367 267.387 166.472 267.646 165.569 267.957C163.771 268.616 161.772 269.089 159.693 269.629C150.563 271.768 141.092 272.02 131.862 270.369C129.745 269.94 127.732 269.57 125.897 269.008C124.98 268.741 124.077 268.534 123.233 268.268L120.821 267.387C119.274 266.891 117.942 266.248 116.751 265.744C116.159 265.485 115.604 265.256 115.108 265.004L113.761 264.301L111.911 263.317L111.437 263.051L111.282 262.955C111.282 262.955 111.349 262.955 111.46 263.021L111.948 263.251L113.828 264.168L115.182 264.834C115.685 265.071 116.248 265.286 116.84 265.537C118.031 266.011 119.363 266.64 120.917 267.113L123.3 267.979C124.143 268.26 125.046 268.46 125.964 268.719C127.792 269.267 129.797 269.615 131.884 270.036C141.072 271.627 150.485 271.376 159.575 269.296C161.647 268.764 163.637 268.312 165.436 267.668C166.338 267.365 167.226 267.121 168.048 266.795L170.416 265.855C171.94 265.293 173.235 264.597 174.404 264.057C174.982 263.776 175.529 263.532 176.018 263.317L177.335 262.577L179.163 261.556L179.644 261.304C179.792 261.223 179.851 261.201 179.851 261.208Z" fill="#263238"/>
<path d="M187.569 104.586C187.524 104.64 187.471 104.687 187.414 104.727L186.925 105.127C186.474 105.489 185.845 106 185.038 106.607C183.395 107.909 181.013 109.796 178.001 112.046C174.496 114.729 170.82 117.181 166.997 119.386C164.723 120.659 162.353 121.75 159.908 122.65C157.27 123.61 154.519 124.221 151.723 124.47C146.288 124.775 140.868 123.647 136.006 121.199C133.903 120.131 131.873 118.925 129.93 117.588C128.125 116.315 126.474 115.08 125.017 113.888C122.057 111.535 119.792 109.544 118.194 108.183L116.366 106.599L115.9 106.185L115.744 106.029C115.744 106.029 115.811 106.029 115.922 106.148L116.418 106.54L118.29 108.064C119.918 109.396 122.242 111.35 125.187 113.674C126.667 114.835 128.302 116.056 130.115 117.314C132.051 118.628 134.071 119.815 136.161 120.866C140.975 123.266 146.331 124.37 151.701 124.071C154.463 123.826 157.182 123.224 159.789 122.28C162.218 121.392 164.573 120.316 166.834 119.061C170.652 116.895 174.332 114.496 177.853 111.875C180.872 109.655 183.277 107.805 184.957 106.54L186.888 105.06L187.399 104.69C187.45 104.647 187.507 104.612 187.569 104.586Z" fill="#263238"/>
<g opacity="0.24">
<path d="M120.828 267.424C124.336 264.716 129.264 265.367 133.601 266.285C137.937 267.202 142.303 268.675 146.691 268.061C149.999 267.594 153.033 265.974 156.311 265.263C159.589 264.553 163.534 265.078 165.347 267.883C150.856 272.552 135.242 272.391 120.85 267.424" fill="black"/>
</g>
<path d="M243.18 247.341L227.27 229.499L227.107 251.189L231.903 265.101L184.232 273.366L182.211 235.752L178.778 206.892C178.574 205.171 178.945 203.432 179.834 201.944C180.723 200.457 182.079 199.306 183.691 198.671L196.812 193.49L215.312 196.88L222.749 199.707C225.867 200.894 228.647 202.827 230.844 205.338L253.222 230.927" fill="#22983C"/>
<path d="M226.16 225.207C227.059 225.195 227.955 225.131 228.846 225.015C230.993 224.687 232.992 223.726 234.589 222.255C236.186 220.783 237.306 218.869 237.808 216.756C237.992 215.874 238.128 214.982 238.215 214.085C238.275 214.327 238.297 214.576 238.281 214.825C238.287 215.496 238.217 216.167 238.074 216.823C237.626 219.02 236.498 221.021 234.85 222.542C233.202 224.062 231.117 225.026 228.891 225.296C228.226 225.382 227.554 225.397 226.885 225.34C226.638 225.335 226.393 225.29 226.16 225.207Z" fill="white"/>
<path d="M227.544 250.263C227.655 250.263 227.685 242.745 227.611 233.48C227.537 224.215 227.381 216.704 227.27 216.704C227.159 216.704 227.13 224.215 227.204 233.488C227.278 242.76 227.433 250.263 227.544 250.263Z" fill="#263238"/>
<path d="M225.798 255.777L196.997 244.181C195.858 243.722 194.87 242.955 194.145 241.965C193.419 240.975 192.984 239.803 192.89 238.579L190.781 210.962C190.781 210.962 191.032 199.211 183.691 198.641L179.54 200.284C174.145 203.147 172.813 211.006 173.546 217.067C174.589 225.681 175.026 237.876 176.188 245.35C177.15 251.47 180.628 256.85 186.637 258.426L222.112 266.107L225.798 255.777Z" fill="#22983C"/>
<path d="M191.195 215.173C191.243 215.379 191.273 215.59 191.284 215.802C191.328 216.253 191.395 216.86 191.469 217.622C191.617 219.243 191.824 221.522 192.076 224.319C192.327 227.116 192.608 230.528 192.934 234.257C193.008 235.197 193.089 236.152 193.171 237.128C193.228 238.122 193.352 239.111 193.541 240.089C193.742 241.077 194.243 241.979 194.976 242.671C195.766 243.365 196.663 243.925 197.633 244.329C205.573 247.762 212.892 250.604 218.205 252.595L224.517 254.918L226.234 255.547C226.435 255.614 226.63 255.695 226.819 255.791C226.609 255.753 226.404 255.696 226.205 255.621L224.466 255.059C222.986 254.556 220.766 253.808 218.116 252.839C212.766 250.915 205.44 248.118 197.47 244.699C196.462 244.275 195.53 243.69 194.71 242.967C193.923 242.22 193.386 241.248 193.171 240.185C192.98 239.193 192.859 238.189 192.808 237.18C192.727 236.196 192.653 235.241 192.579 234.302C192.29 230.602 192.024 227.198 191.839 224.356C191.654 221.514 191.469 219.272 191.35 217.652C191.299 216.912 191.262 216.275 191.239 215.824C191.206 215.608 191.191 215.391 191.195 215.173Z" fill="#263238"/>
<path d="M174.693 230.187C174.723 230.308 174.74 230.432 174.745 230.557L174.841 231.623C174.93 232.607 175.041 233.932 175.181 235.545C175.322 237.158 175.544 239.163 175.833 241.339C176.116 243.695 176.548 246.031 177.128 248.332C177.4 249.517 177.876 250.646 178.534 251.669C179.176 252.609 179.897 253.492 180.687 254.311C182.034 255.697 183.589 256.863 185.297 257.767C186.889 258.576 188.597 259.135 190.359 259.425C190.234 259.441 190.107 259.441 189.981 259.425C189.624 259.401 189.268 259.354 188.916 259.284C187.614 259.042 186.353 258.615 185.171 258.019C183.415 257.135 181.816 255.97 180.435 254.57C179.617 253.742 178.874 252.843 178.215 251.884C177.524 250.833 177.023 249.668 176.735 248.443C176.148 246.124 175.72 243.768 175.455 241.391C175.189 239.171 175.011 237.232 174.893 235.574C174.774 233.917 174.708 232.57 174.671 231.638C174.671 231.208 174.671 230.853 174.671 230.565C174.658 230.438 174.666 230.311 174.693 230.187Z" fill="#263238"/>
<path d="M187.007 249.509C187.082 248.969 187.261 248.449 187.532 247.977C188.125 246.797 188.948 245.748 189.952 244.891C190.956 244.033 192.121 243.384 193.378 242.982C193.888 242.787 194.431 242.694 194.976 242.708C194.492 242.91 193.998 243.088 193.496 243.241C192.307 243.701 191.203 244.359 190.233 245.187C189.265 246.017 188.442 247.002 187.798 248.103C187.28 248.954 187.066 249.531 187.007 249.509Z" fill="#263238"/>
<path d="M192.675 228.507C192.738 228.526 192.798 228.553 192.853 228.589L193.371 228.863C194.039 229.192 194.726 229.481 195.428 229.728C198.017 230.637 200.795 230.876 203.501 230.424C207.522 229.707 211.114 227.474 213.536 224.186C214.983 222.287 215.891 220.031 216.163 217.659C216.297 216.412 216.166 215.151 215.778 213.959C215.369 212.742 214.655 211.649 213.706 210.784C212.77 209.908 211.591 209.336 210.324 209.141C209.724 209.034 209.107 209.064 208.52 209.229C207.933 209.395 207.391 209.691 206.935 210.096C206.522 210.501 206.283 211.05 206.269 211.628C206.282 212.202 206.479 212.758 206.831 213.212C207.199 213.65 207.65 214.011 208.158 214.274C208.666 214.537 209.221 214.697 209.791 214.743C211.795 214.993 213.83 214.736 215.708 213.995C217.587 213.254 219.25 212.053 220.544 210.503C221.525 209.297 222.263 207.912 222.719 206.426C223.059 205.299 223.244 204.132 223.267 202.955C223.275 202.212 223.22 201.469 223.104 200.735C223.06 200.506 223.023 200.313 223 200.165C222.994 200.099 222.994 200.032 223 199.965C223.306 200.922 223.456 201.921 223.444 202.925C223.452 204.119 223.287 205.308 222.956 206.455C222.132 209.22 220.354 211.602 217.937 213.178C215.521 214.754 212.624 215.422 209.762 215.062C209.151 215.008 208.556 214.833 208.013 214.549C207.469 214.264 206.987 213.875 206.595 213.404C206.193 212.887 205.969 212.253 205.958 211.598C205.959 210.925 206.225 210.279 206.698 209.8C207.195 209.356 207.786 209.03 208.427 208.845C209.067 208.661 209.741 208.623 210.398 208.734C211.744 208.934 212.997 209.541 213.987 210.473C214.989 211.379 215.739 212.529 216.163 213.811C216.566 215.051 216.702 216.362 216.562 217.659C216.274 220.083 215.335 222.384 213.847 224.319C211.792 227.122 208.876 229.175 205.545 230.164C202.213 231.153 198.649 231.023 195.398 229.795C194.438 229.488 193.522 229.055 192.675 228.507Z" fill="white"/>
<path d="M173.805 221.144C173.93 220.923 174.09 220.723 174.279 220.552C174.752 220.052 175.272 219.598 175.833 219.198C177.722 217.9 179.919 217.122 182.204 216.941C183.458 216.8 184.725 216.852 185.963 217.097C186.969 217.305 187.942 217.649 188.857 218.118C189.47 218.427 190.059 218.783 190.618 219.183C190.834 219.316 191.029 219.48 191.195 219.672C191.151 219.731 190.292 219.08 188.738 218.362C186.713 217.423 184.466 217.064 182.248 217.326C180.022 217.502 177.872 218.221 175.988 219.42C174.56 220.375 173.857 221.196 173.805 221.144Z" fill="white"/>
<path d="M178.415 201.394C179.117 202.055 179.901 202.624 180.746 203.088C181.67 203.562 182.674 203.858 183.706 203.962C184.963 204.088 186.232 203.91 187.406 203.444C188.557 202.953 189.573 202.191 190.366 201.224C191.021 200.416 191.523 199.496 191.846 198.508C192.112 197.58 192.264 196.623 192.298 195.659C192.37 195.914 192.402 196.178 192.394 196.443C192.406 197.169 192.309 197.892 192.105 198.589C191.804 199.629 191.301 200.599 190.625 201.446C189.814 202.507 188.736 203.334 187.501 203.844C186.267 204.353 184.919 204.527 183.595 204.346C182.522 204.225 181.484 203.893 180.539 203.37C179.903 203.02 179.324 202.576 178.822 202.052C178.647 201.86 178.509 201.636 178.415 201.394Z" fill="white"/>
<path d="M203.516 246.808C203.517 246.624 203.537 246.44 203.575 246.26C203.679 245.746 203.85 245.248 204.086 244.78C205.027 243.056 206.555 241.728 208.393 241.036C211.098 239.96 214.091 239.853 216.866 240.732C218.39 241.184 220.137 241.746 221.306 243.233C221.6 243.613 221.785 244.066 221.843 244.543C221.9 245.02 221.827 245.503 221.631 245.942C221.185 246.798 220.463 247.478 219.582 247.873C218.731 248.294 217.8 248.526 216.851 248.554C215.909 248.6 214.981 248.311 214.231 247.74C213.885 247.445 213.603 247.081 213.402 246.673C213.201 246.264 213.085 245.819 213.062 245.365C213.014 244.515 213.147 243.665 213.454 242.871C214.57 240.173 216.694 238.017 219.374 236.862C221.153 236.069 223.101 235.734 225.043 235.885C225.75 235.939 226.446 236.086 227.115 236.322C227.115 236.374 226.375 236.129 225.028 236.033C223.42 235.946 221.811 236.188 220.299 236.744C218.787 237.3 217.405 238.158 216.237 239.267C215.152 240.306 214.306 241.569 213.758 242.967C213.471 243.714 213.347 244.514 213.395 245.313C213.417 245.718 213.521 246.114 213.702 246.476C213.882 246.839 214.136 247.161 214.446 247.422C215.123 247.942 215.962 248.204 216.814 248.162C217.704 248.139 218.577 247.921 219.374 247.525C220.179 247.167 220.84 246.549 221.254 245.772C221.421 245.394 221.482 244.978 221.433 244.568C221.384 244.157 221.225 243.768 220.973 243.441C220.457 242.789 219.795 242.267 219.041 241.916C218.31 241.567 217.55 241.282 216.77 241.065C214.068 240.191 211.149 240.267 208.496 241.28C206.699 241.93 205.185 243.19 204.219 244.839C203.899 245.461 203.662 246.123 203.516 246.808Z" fill="white"/>
<path d="M184.335 257.205C184.335 257.131 185.43 257.042 187.095 256.465C189.269 255.699 191.216 254.401 192.76 252.69C194.303 250.979 195.393 248.908 195.931 246.667C196.353 244.95 196.338 243.833 196.412 243.84C196.464 244.096 196.476 244.358 196.449 244.617C196.432 245.327 196.348 246.033 196.197 246.726C195.718 249.039 194.63 251.183 193.045 252.935C191.461 254.687 189.438 255.985 187.184 256.694C186.51 256.914 185.816 257.07 185.112 257.16C184.857 257.213 184.595 257.227 184.335 257.205Z" fill="white"/>
<path d="M174.996 235.737C175.106 235.676 175.223 235.629 175.344 235.597C175.581 235.523 175.921 235.419 176.373 235.301C177.654 234.964 178.98 234.829 180.302 234.901C181.221 234.97 182.121 235.193 182.966 235.56C183.95 235.984 184.807 236.657 185.453 237.513C186.161 238.484 186.504 239.674 186.422 240.873C186.374 241.511 186.179 242.129 185.852 242.678C185.521 243.258 184.997 243.703 184.372 243.936C184.043 244.049 183.689 244.072 183.348 244.005C183.006 243.937 182.688 243.781 182.426 243.552C181.982 243.062 181.741 242.422 181.753 241.761C181.714 240.582 181.947 239.41 182.433 238.335C183.109 236.803 184.277 235.54 185.751 234.748C187.226 233.956 188.923 233.679 190.573 233.961C190.928 234.016 191.277 234.103 191.617 234.22C191.846 234.309 191.965 234.361 191.957 234.376C191.95 234.39 191.461 234.22 190.551 234.109C189.265 233.954 187.96 234.121 186.755 234.598C184.97 235.314 183.541 236.708 182.781 238.475C182.329 239.502 182.114 240.617 182.152 241.739C182.137 242.305 182.338 242.855 182.715 243.278C182.927 243.458 183.182 243.581 183.456 243.633C183.73 243.684 184.012 243.664 184.276 243.574C184.824 243.371 185.285 242.984 185.578 242.479C185.873 241.98 186.05 241.421 186.096 240.843C186.174 239.732 185.863 238.628 185.216 237.72C184.615 236.906 183.811 236.263 182.885 235.856C182.075 235.488 181.21 235.258 180.324 235.175C179.03 235.078 177.729 235.171 176.462 235.449C175.507 235.634 175.011 235.767 174.996 235.737Z" fill="white"/>
<g opacity="0.3">
<path d="M217.517 252.484C214.439 250.744 211.427 249.405 208.208 247.947C204.989 246.49 201.829 244.602 199.72 241.761C195.746 236.403 196.197 228.67 192.135 223.387C192.401 226.939 192.665 230.493 192.927 234.05C193.171 237.306 192.675 240.532 194.769 242.745C196.538 244.61 199.986 246.038 202.428 246.845C207.335 248.465 212.618 250.87 217.517 252.484Z" fill="black"/>
</g>
<path d="M267.6 293.073C267.6 293.073 291.702 299.733 292.672 300.088C294.152 300.599 293.878 305.919 291.621 305.83C290.548 305.793 273.121 306.482 270.901 306.348C268.681 306.215 262.021 303.588 262.021 303.588L267.6 293.073Z" fill="#22983C"/>
<path d="M277.613 302.271C277.91 301.385 278.266 300.52 278.678 299.681C279.197 298.905 279.766 298.163 280.38 297.461C279.523 297.93 278.811 298.627 278.323 299.474C277.835 300.321 277.589 301.286 277.613 302.264V302.271Z" fill="#263238"/>
<path d="M275.097 301.131C275.215 301.131 275.459 300.014 276.103 298.756C276.747 297.498 277.502 296.617 277.42 296.536C276.717 297.084 276.144 297.781 275.742 298.576C275.34 299.372 275.12 300.247 275.097 301.139V301.131Z" fill="#263238"/>
<path d="M272.78 300.502C272.899 299.64 273.087 298.789 273.343 297.957C273.721 297.172 274.159 296.417 274.653 295.7C273.888 296.214 273.3 296.95 272.965 297.808C272.63 298.666 272.566 299.606 272.78 300.502Z" fill="#263238"/>
<path d="M273.173 297.387C273.385 296.815 273.473 296.205 273.432 295.596C273.424 294.933 273.342 294.273 273.187 293.628C273.095 293.247 272.973 292.873 272.825 292.51C272.755 292.281 272.622 292.075 272.44 291.918C272.318 291.828 272.169 291.783 272.018 291.791C271.866 291.799 271.723 291.86 271.611 291.963C271.424 292.142 271.311 292.385 271.293 292.643C271.275 292.855 271.275 293.068 271.293 293.28C271.295 293.677 271.345 294.072 271.441 294.456C271.601 295.102 271.85 295.722 272.181 296.299C272.446 296.855 272.812 297.357 273.261 297.779C273.321 297.779 272.914 297.18 272.433 296.195C272.151 295.626 271.94 295.025 271.804 294.405C271.726 294.042 271.686 293.673 271.685 293.302C271.685 292.932 271.685 292.473 271.907 292.296C271.951 292.256 272.007 292.234 272.066 292.234C272.125 292.234 272.182 292.256 272.225 292.296C272.346 292.414 272.437 292.558 272.492 292.717C272.633 293.065 272.755 293.421 272.854 293.783C273.024 294.397 273.13 295.027 273.173 295.663C273.217 296.699 273.106 297.38 273.173 297.387Z" fill="#263238"/>
<path d="M273.143 297.143C272.652 296.938 272.12 296.852 271.589 296.891C271.013 296.891 270.439 296.961 269.88 297.098C269.535 297.177 269.202 297.298 268.888 297.461C268.691 297.561 268.531 297.723 268.434 297.922C268.336 298.121 268.306 298.346 268.348 298.564C268.403 298.771 268.512 298.961 268.664 299.113C268.816 299.265 269.006 299.374 269.214 299.429C269.568 299.518 269.939 299.518 270.294 299.429C270.864 299.299 271.4 299.047 271.863 298.689C272.301 298.396 272.681 298.021 272.98 297.587C272.535 297.847 272.107 298.136 271.7 298.453C271.252 298.76 270.75 298.978 270.22 299.096C269.926 299.17 269.618 299.17 269.325 299.096C269.186 299.061 269.058 298.99 268.956 298.89C268.853 298.79 268.779 298.665 268.74 298.527C268.717 298.391 268.74 298.252 268.804 298.13C268.868 298.008 268.971 297.911 269.095 297.853C269.37 297.702 269.664 297.587 269.968 297.513C270.5 297.361 271.045 297.267 271.596 297.232C272.536 297.113 273.128 297.209 273.143 297.143Z" fill="#263238"/>
<path d="M281.313 302.53C281.416 301.793 281.577 301.066 281.794 300.354C282.132 299.693 282.526 299.062 282.97 298.467C282.268 298.85 281.72 299.463 281.418 300.203C281.116 300.944 281.079 301.765 281.313 302.53Z" fill="#263238"/>
<path d="M264.5 303.647C264.792 303.832 265.105 303.981 265.432 304.091C266.307 304.423 267.202 304.7 268.111 304.92C271.133 305.579 274.224 305.873 277.317 305.793C280.928 305.749 284.184 305.586 286.544 305.49L289.334 305.342C289.677 305.336 290.019 305.302 290.356 305.238C290.015 305.185 289.671 305.168 289.327 305.187H286.537L277.317 305.364C274.253 305.443 271.189 305.195 268.178 304.624C265.869 304.158 264.529 303.566 264.5 303.647Z" fill="#263238"/>
<path d="M263.789 304.195C263.789 304.247 264.478 303.862 265.595 303.374C267.015 302.703 268.595 302.447 270.153 302.634C271.686 302.966 273.07 303.786 274.098 304.972C274.525 305.477 274.988 305.952 275.481 306.393C275.164 305.804 274.768 305.262 274.305 304.78C273.83 304.227 273.294 303.731 272.706 303.3C271.971 302.755 271.116 302.395 270.213 302.249C268.577 302.051 266.92 302.363 265.469 303.144C264.856 303.402 264.289 303.756 263.789 304.195Z" fill="#263238"/>
<path d="M241.989 286.42C241.989 286.42 219.182 301.353 218.368 301.96C217.14 302.885 218.546 307.303 220.677 306.541C221.683 306.178 240.82 300.85 242.877 300.051C244.934 299.252 250.477 294.767 250.477 294.767L241.989 286.42Z" fill="#22983C"/>
<path d="M235.218 298.231C234.943 297.292 234.415 296.446 233.692 295.787C232.969 295.128 232.079 294.681 231.118 294.494C231.92 294.974 232.689 295.508 233.42 296.092C234.063 296.767 234.664 297.481 235.218 298.231Z" fill="#263238"/>
<path d="M237.26 296.381C236.97 295.536 236.496 294.766 235.873 294.126C235.25 293.487 234.493 292.993 233.656 292.681C233.597 292.784 234.596 293.421 235.58 294.397C236.565 295.374 237.157 296.44 237.26 296.381Z" fill="#263238"/>
<path d="M239.317 295.063C239.314 294.132 238.96 293.236 238.326 292.555C237.796 291.802 237.004 291.275 236.106 291.075C236.792 291.611 237.438 292.197 238.037 292.829C238.523 293.538 238.951 294.286 239.317 295.063Z" fill="#263238"/>
<path d="M238 292.229C238.059 292.229 237.749 291.585 237.49 290.52C237.334 289.902 237.242 289.269 237.216 288.633C237.19 288.258 237.19 287.882 237.216 287.508C237.213 287.339 237.257 287.173 237.342 287.027C237.374 286.977 237.424 286.941 237.482 286.927C237.54 286.913 237.601 286.922 237.652 286.953C237.911 287.056 238.045 287.5 238.17 287.856C238.279 288.208 238.353 288.57 238.392 288.936C238.45 289.57 238.43 290.209 238.333 290.838C238.178 291.918 237.963 292.577 238.022 292.599C238.327 292.07 238.528 291.487 238.614 290.882C238.756 290.234 238.806 289.569 238.762 288.906C238.733 288.51 238.661 288.118 238.548 287.737C238.487 287.533 238.413 287.333 238.326 287.138C238.227 286.896 238.043 286.698 237.808 286.583C237.671 286.519 237.515 286.505 237.369 286.545C237.223 286.584 237.095 286.673 237.009 286.797C236.886 287.003 236.822 287.239 236.824 287.478C236.742 288.532 236.863 289.592 237.179 290.601C237.335 291.196 237.615 291.751 238 292.229Z" fill="#263238"/>
<path d="M237.919 291.985C237.919 292.044 238.481 291.778 239.399 291.548C239.935 291.42 240.483 291.345 241.034 291.326C241.349 291.305 241.665 291.325 241.974 291.386C242.11 291.404 242.237 291.466 242.335 291.562C242.434 291.658 242.499 291.783 242.522 291.918C242.528 292.065 242.495 292.211 242.426 292.342C242.357 292.472 242.255 292.581 242.129 292.658C241.875 292.818 241.586 292.915 241.286 292.94C240.745 292.992 240.199 292.937 239.68 292.777C239.198 292.596 238.703 292.45 238.2 292.34C238.618 292.674 239.095 292.925 239.606 293.08C240.155 293.29 240.744 293.379 241.33 293.339C241.695 293.32 242.049 293.208 242.359 293.014C242.542 292.901 242.691 292.741 242.792 292.551C242.892 292.361 242.939 292.148 242.929 291.933C242.903 291.713 242.805 291.507 242.652 291.347C242.498 291.186 242.297 291.081 242.078 291.045C241.731 290.984 241.378 290.969 241.027 291.001C240.451 291.039 239.883 291.146 239.332 291.319C238.816 291.429 238.332 291.657 237.919 291.985Z" fill="#263238"/>
<path d="M223.578 305.719C223.578 305.756 223.962 305.49 224.14 304.839C224.317 303.988 224.164 303.101 223.711 302.36C223.492 301.963 223.244 301.582 222.971 301.22C222.748 300.912 222.487 300.633 222.194 300.391C221.984 300.218 221.725 300.112 221.454 300.088C221.261 300.088 221.165 300.125 221.165 300.147C221.165 300.169 221.572 300.184 221.994 300.613C222.243 300.865 222.464 301.143 222.653 301.442C222.918 301.799 223.165 302.17 223.393 302.552C223.801 303.216 223.978 303.997 223.896 304.772C223.809 305.094 223.703 305.41 223.578 305.719Z" fill="#263238"/>
<path d="M231.769 299.599C231.8 299.199 231.744 298.797 231.605 298.42C231.465 298.043 231.246 297.701 230.963 297.416C230.735 297.086 230.437 296.809 230.091 296.605C229.744 296.402 229.357 296.277 228.957 296.24C229.562 296.669 230.129 297.149 230.652 297.675C231.078 298.284 231.452 298.928 231.769 299.599Z" fill="#263238"/>
<path d="M248.131 295.559C247.776 295.757 247.44 295.984 247.124 296.24C246.221 296.868 245.282 297.443 244.312 297.964C242.878 298.725 241.395 299.39 239.872 299.955C238.141 300.599 236.172 301.205 234.16 301.797C230.053 302.981 226.338 304.062 223.659 304.868L220.47 305.867C220.076 305.972 219.692 306.111 219.323 306.282C219.726 306.227 220.124 306.14 220.514 306.023L223.718 305.127C226.419 304.387 230.141 303.351 234.248 302.167C236.298 301.568 238.244 300.946 239.976 300.28C241.517 299.695 243.013 298.997 244.453 298.194C245.42 297.646 246.345 297.028 247.221 296.344C247.545 296.108 247.85 295.845 248.131 295.559Z" fill="#263238"/>
<path d="M248.974 295.863C248.361 295.592 247.71 295.418 247.043 295.345C245.422 295.044 243.747 295.251 242.248 295.937C241.437 296.361 240.741 296.975 240.22 297.727C239.791 298.321 239.431 298.961 239.147 299.637C238.85 300.236 238.639 300.873 238.518 301.531C238.853 300.959 239.15 300.366 239.406 299.755C240.023 298.31 241.093 297.105 242.455 296.321C243.887 295.677 245.472 295.449 247.028 295.663C248.212 295.759 248.96 295.922 248.974 295.863Z" fill="#263238"/>
<path d="M289.386 250.005C289.386 250.005 296.231 252.447 296.253 260.12C296.313 274.809 266.564 291.008 266.564 291.008L226.974 264.782L224.495 263.776C224.495 263.776 277.96 243.707 289.386 250.005Z" fill="#263238"/>
<path d="M247.028 278.028C247.393 277.826 247.739 277.594 248.064 277.333C248.708 276.859 249.633 276.164 250.765 275.283C253.037 273.537 256.116 271.05 259.438 268.201C262.761 265.352 265.676 262.681 267.748 260.705C268.784 259.721 269.613 258.907 270.183 258.337C270.491 258.059 270.773 257.755 271.027 257.427C270.686 257.665 270.367 257.933 270.072 258.226L267.556 260.498C265.432 262.414 262.487 265.056 259.172 267.898C255.857 270.739 252.808 273.255 250.595 275.061L247.968 277.207C247.633 277.455 247.319 277.73 247.028 278.028Z" fill="#455A64"/>
<path d="M278.212 255.495C275.623 255.221 273.031 255.985 271.004 257.619C271.071 257.73 272.484 256.805 274.512 256.228C276.54 255.651 278.212 255.621 278.212 255.495Z" fill="#455A64"/>
<path d="M274.801 253.179C273.885 253.568 273.079 254.176 272.454 254.951C271.829 255.725 271.405 256.642 271.219 257.619C271.337 257.619 271.767 256.428 272.766 255.207C273.765 253.986 274.867 253.283 274.801 253.179Z" fill="#455A64"/>
<path d="M291.562 299.71C291.562 299.666 291.088 299.57 290.541 300.021C289.895 300.623 289.49 301.438 289.401 302.315C289.271 303.178 289.395 304.06 289.756 304.854C290.037 305.453 290.348 305.734 290.385 305.705C290.288 305.376 290.166 305.054 290.022 304.743C289.763 303.982 289.687 303.17 289.801 302.375C289.888 301.582 290.213 300.834 290.733 300.228C291.155 299.792 291.569 299.777 291.562 299.71Z" fill="#263238"/>
<path d="M280.277 225.991L266.18 261.734L205.477 262.725L204.352 259.44L225.627 258.67L235.854 226.961L280.277 225.991Z" fill="#455A64"/>
<path d="M251.927 241.487C252.393 241.253 252.917 241.159 253.436 241.215C253.954 241.271 254.445 241.476 254.85 241.805C255.194 242.129 255.432 242.548 255.534 243.009C255.635 243.469 255.596 243.95 255.42 244.388C255.23 244.825 254.921 245.2 254.529 245.471C254.136 245.742 253.676 245.897 253.2 245.92C252.699 245.952 252.201 245.82 251.781 245.543C251.362 245.267 251.044 244.861 250.876 244.388C250.718 243.859 250.731 243.293 250.915 242.771C251.098 242.25 251.442 241.8 251.898 241.487" fill="#EBEBEB"/>
<path d="M270.309 292.799C270.309 292.799 214.379 256.109 212.1 255.347C209.821 254.585 204.271 250.959 198.743 252.483C193.215 254.008 188.242 258.973 185.763 266.225C184.343 270.369 183.677 277.436 183.358 282.742C182.934 289.087 184.991 295.348 189.093 300.206C190.911 302.473 193.325 304.188 196.064 305.157C196.649 305.342 197.256 305.497 197.877 305.63C208.452 307.924 219.337 303.174 225.257 294.131L226.56 292.148C226.56 292.148 263.153 305.586 263.723 305.401L270.309 292.799Z" fill="#263238"/>
<path d="M201.118 282.698C201.217 282.748 201.318 282.792 201.422 282.831L202.34 283.194L205.884 284.563L219.064 289.528C224.658 291.615 231.362 294.101 238.888 296.839C246.414 299.577 254.747 302.574 263.656 305.586L263.812 305.645L263.893 305.49L268.266 297.143L270.486 292.888L270.568 292.725L270.412 292.629L227.751 265.545L214.934 257.464L211.456 255.288L210.546 254.733C210.339 254.607 210.228 254.556 210.228 254.556L210.524 254.77L211.412 255.355L214.853 257.575L227.64 265.781L270.235 292.969L270.161 292.703C269.458 294.057 268.681 295.5 267.941 296.958L263.575 305.305L263.819 305.209C254.939 302.204 246.577 299.215 239.044 296.499L219.189 289.276L205.936 284.407L202.369 283.105L201.437 282.779L201.118 282.698Z" fill="#455A64"/>
<path d="M206.92 152.42C207.875 149.838 209.984 148.72 212.655 148.076C213.999 147.764 215.398 147.78 216.734 148.124C218.07 148.468 219.303 149.13 220.329 150.052C221.683 151.288 222.675 153.012 224.347 153.752C227.107 155.003 230.637 153.175 233.227 154.707C234.005 155.165 234.601 155.879 234.912 156.727C235.223 157.574 235.231 158.503 234.935 159.356C234.638 160.209 234.055 160.933 233.285 161.405C232.515 161.877 231.606 162.067 230.711 161.944C232.509 162.788 232.842 165.496 231.607 167.05C230.371 168.604 228.084 169.026 226.168 168.486C224.278 167.835 222.603 166.681 221.321 165.148C219.974 163.668 218.79 162.077 217.325 160.708C215.918 159.279 214.052 158.394 212.056 158.207C209.37 158.103 206.876 159.916 205.477 162.203C204.078 164.49 203.538 167.206 203.146 169.87C202.754 172.534 202.458 175.242 201.429 177.728C201.311 178.024 201.133 178.343 200.83 178.409C200.378 178.505 200.053 178.01 199.875 177.588C197.85 172.835 196.779 167.731 196.723 162.566C196.686 159.606 197.026 156.771 198.884 154.426C200.741 152.08 205.026 150.622 206.898 152.383" fill="#263238"/>
<path d="M200.615 164.357L196.501 194.238C196.336 195.445 196.418 196.672 196.743 197.846C197.068 199.02 197.628 200.115 198.389 201.066C199.151 202.016 200.098 202.802 201.172 203.375C202.247 203.948 203.427 204.296 204.641 204.398C206.939 204.598 209.225 203.906 211.027 202.467C212.829 201.027 214.008 198.95 214.32 196.665C214.624 194.445 214.883 192.543 214.934 192.314C214.934 192.314 222.638 192.647 224.221 185.195C224.961 181.591 225.96 174.043 226.767 167.206C227.174 163.667 226.236 160.105 224.138 157.226C222.041 154.348 218.938 152.363 215.445 151.665L214.705 151.525C206.824 150.4 201.496 156.468 200.615 164.357Z" fill="#FFBE9D"/>
<path d="M214.927 192.21C211.463 191.575 208.267 189.923 205.744 187.467C205.744 187.467 206.972 193.298 214.557 194.127L214.927 192.21Z" fill="#EB996E"/>
<path d="M223.548 171.779C223.496 172.057 223.336 172.304 223.104 172.466C222.871 172.628 222.584 172.692 222.305 172.645C222.167 172.629 222.034 172.586 221.913 172.518C221.793 172.45 221.687 172.358 221.603 172.249C221.519 172.139 221.457 172.013 221.423 171.879C221.388 171.745 221.381 171.605 221.402 171.468C221.453 171.188 221.611 170.939 221.844 170.776C222.077 170.613 222.365 170.547 222.645 170.595C222.783 170.611 222.916 170.655 223.037 170.724C223.158 170.793 223.263 170.885 223.348 170.995C223.432 171.106 223.493 171.232 223.527 171.367C223.562 171.501 223.569 171.641 223.548 171.779Z" fill="#263238"/>
<path d="M224.392 170.55C224.229 170.669 223.541 169.907 222.394 169.677C221.247 169.448 220.285 169.862 220.174 169.677C220.063 169.492 220.314 169.381 220.736 169.189C221.298 168.939 221.925 168.874 222.527 169.004C223.124 169.118 223.669 169.422 224.081 169.87C224.399 170.225 224.466 170.506 224.392 170.55Z" fill="#263238"/>
<path d="M212.211 169.914C212.161 170.194 212.002 170.442 211.769 170.606C211.536 170.769 211.248 170.834 210.968 170.787C210.83 170.77 210.697 170.725 210.577 170.656C210.456 170.587 210.351 170.495 210.266 170.385C210.181 170.275 210.119 170.149 210.084 170.015C210.048 169.881 210.039 169.741 210.058 169.603C210.113 169.326 210.274 169.081 210.505 168.918C210.736 168.756 211.021 168.688 211.301 168.73C211.439 168.746 211.573 168.79 211.694 168.859C211.815 168.928 211.921 169.02 212.005 169.13C212.09 169.24 212.152 169.367 212.188 169.501C212.223 169.636 212.231 169.776 212.211 169.914Z" fill="#263238"/>
<path d="M213.062 168.515C212.899 168.626 212.211 167.864 211.064 167.635C209.917 167.405 208.955 167.82 208.844 167.635C208.733 167.45 208.985 167.339 209.407 167.146C209.97 166.9 210.596 166.836 211.197 166.961C211.795 167.082 212.34 167.385 212.759 167.827C213.07 168.227 213.136 168.464 213.062 168.515Z" fill="#263238"/>
<path d="M215.526 177.847C216.169 177.775 216.818 177.788 217.458 177.884C217.761 177.884 218.05 177.884 218.139 177.714C218.233 177.42 218.233 177.104 218.139 176.811C218.005 176.071 217.865 175.242 217.717 174.398C217.147 170.98 216.799 168.197 216.932 168.175C217.066 168.153 217.672 170.906 218.213 174.324C218.346 175.168 218.479 175.967 218.597 176.737C218.713 177.128 218.684 177.549 218.516 177.921C218.453 178.014 218.37 178.092 218.272 178.149C218.175 178.205 218.066 178.238 217.954 178.246C217.784 178.27 217.612 178.27 217.443 178.246C216.79 178.194 216.146 178.059 215.526 177.847Z" fill="#263238"/>
<path d="M211.989 177.98C212.182 177.98 211.93 179.253 212.818 180.348C213.706 181.443 215.038 181.576 215.038 181.754C215.038 181.932 214.698 181.932 214.135 181.835C213.402 181.7 212.74 181.313 212.263 180.74C211.811 180.185 211.591 179.478 211.649 178.764C211.708 178.232 211.908 177.95 211.989 177.98Z" fill="#263238"/>
<path d="M214.254 164.068C214.083 164.364 212.966 163.986 211.582 163.875C210.198 163.764 209.044 163.92 208.918 163.602C208.866 163.454 209.118 163.202 209.614 162.988C210.272 162.728 210.981 162.626 211.686 162.691C212.394 162.746 213.079 162.969 213.684 163.343C214.135 163.639 214.32 163.935 214.254 164.068Z" fill="#263238"/>
<path d="M224.628 167.146C224.377 167.368 223.644 166.939 222.69 166.732C221.735 166.525 220.899 166.562 220.773 166.251C220.714 166.103 220.891 165.866 221.298 165.689C221.828 165.48 222.41 165.441 222.963 165.578C223.521 165.695 224.027 165.988 224.406 166.414C224.68 166.747 224.747 167.035 224.628 167.146Z" fill="#263238"/>
<path d="M200.119 170.01C200.001 169.929 195.287 167.465 194.429 172.608C193.57 177.751 198.913 177.551 198.943 177.403C198.972 177.255 200.119 170.01 200.119 170.01Z" fill="#FFBE9D"/>
<path d="M197.7 175.19C197.7 175.19 197.603 175.242 197.441 175.286C197.212 175.341 196.971 175.307 196.767 175.19C196.468 174.926 196.245 174.586 196.122 174.205C196 173.825 195.982 173.419 196.072 173.029C196.131 172.585 196.29 172.16 196.538 171.786C196.608 171.633 196.714 171.498 196.846 171.394C196.979 171.29 197.134 171.219 197.3 171.187C197.408 171.178 197.517 171.207 197.606 171.269C197.695 171.331 197.76 171.422 197.788 171.527C197.833 171.675 197.788 171.779 197.788 171.786C197.788 171.794 197.914 171.72 197.907 171.505C197.899 171.373 197.847 171.248 197.759 171.15C197.699 171.083 197.626 171.03 197.544 170.993C197.463 170.956 197.375 170.937 197.285 170.935C197.068 170.941 196.856 171.003 196.67 171.115C196.483 171.226 196.328 171.383 196.22 171.572C195.926 171.981 195.735 172.456 195.665 172.955C195.524 173.999 195.894 175.057 196.604 175.39C196.736 175.454 196.88 175.487 197.026 175.487C197.172 175.487 197.317 175.454 197.448 175.39C197.67 175.316 197.714 175.205 197.7 175.19Z" fill="#EB996E"/>
<path d="M228.617 166.007C226.878 166.1 225.142 165.78 223.55 165.073C221.959 164.365 220.558 163.291 219.463 161.937C217.983 160.027 216.999 157.534 214.86 156.379C214.124 156.017 213.323 155.804 212.503 155.753C211.684 155.702 210.863 155.815 210.087 156.083C208.543 156.635 207.128 157.496 205.929 158.614C206.609 162.699 204.796 166.754 203.028 170.454C202.875 170.891 202.581 171.263 202.191 171.512C201.496 171.86 200.667 171.313 200.245 170.654C199.654 169.55 199.397 168.298 199.505 167.05C199.521 164.207 200.1 161.395 201.207 158.777C202.332 156.151 204.203 153.912 206.587 152.339C209.645 150.471 213.309 149.864 216.807 150.644C220.284 151.453 223.419 153.335 225.768 156.024C226.913 157.216 227.744 158.673 228.188 160.264" fill="#263238"/>
<path d="M21.5197 286.516C21.552 286.408 21.5967 286.304 21.6529 286.205L22.0673 285.31C22.5776 284.152 22.9909 282.954 23.3031 281.728C24.1171 278.546 24.3983 273.685 23.1921 267.912C22.5431 264.764 21.6878 261.662 20.6317 258.625C19.5439 255.332 18.2859 251.84 17.2572 248.058C16.0959 244.114 15.5346 240.018 15.5922 235.907C15.7476 231.608 17.0204 227.316 18.4191 223.046C19.8177 218.776 21.2607 214.588 21.6899 210.385C22.1749 206.34 21.3639 202.247 19.3737 198.693C17.5162 195.274 15.1926 192.358 13.4536 189.332C11.8237 186.529 10.6215 183.498 9.88682 180.34C8.8386 175.762 8.76297 171.015 9.66481 166.406C9.99656 164.722 10.4923 163.073 11.1448 161.485C11.1275 161.598 11.1002 161.71 11.0634 161.818L10.7674 162.758C9.02629 168.441 8.83975 174.487 10.2272 180.266C10.9688 183.388 12.1735 186.381 13.8014 189.147C15.5404 192.107 17.8788 195.067 19.7659 198.493C21.787 202.117 22.6131 206.286 22.1265 210.407C21.6899 214.684 20.2321 218.895 18.8409 223.164C17.4497 227.434 16.1842 231.675 16.0288 235.9C15.9644 239.969 16.5107 244.025 17.6495 247.932C18.6633 251.692 19.9139 255.184 20.9795 258.492C22.0267 261.546 22.8697 264.666 23.5029 267.831C24.6795 273.648 24.3391 278.561 23.5029 281.751C23.1767 282.981 22.7357 284.177 22.1857 285.325C21.9933 285.695 21.8379 285.983 21.7269 286.205C21.668 286.315 21.5986 286.419 21.5197 286.516Z" fill="#263238"/>
<path d="M15.8143 192.314C15.8143 192.314 12.2697 180.992 18.6263 174.361C18.6755 174.308 18.7386 174.269 18.8085 174.25C18.8784 174.23 18.9524 174.23 19.0222 174.25C19.092 174.27 19.1549 174.309 19.2039 174.363C19.2529 174.416 19.2861 174.482 19.2997 174.554C19.6401 176.426 20.0619 182.124 15.8143 192.314Z" fill="#BAF0B6"/>
<path d="M17.9381 178.135C17.9262 178.837 17.8444 179.536 17.6939 180.222C17.4645 181.702 17.1907 183.352 16.8873 185.217C16.5839 187.082 16.3249 188.776 16.0955 190.212C16.0356 190.913 15.9092 191.607 15.7181 192.284C15.6582 191.581 15.6806 190.873 15.7847 190.175C15.9031 188.88 16.1325 187.104 16.4507 185.15C16.7689 183.197 17.1093 181.45 17.3905 180.17C17.4942 179.473 17.678 178.79 17.9381 178.135Z" fill="#263238"/>
<path d="M19.9731 219.028C19.9731 219.028 22.1413 207.358 30.8585 204.487C30.9272 204.463 31.0013 204.458 31.0723 204.474C31.1434 204.49 31.2087 204.525 31.2609 204.576C31.3131 204.626 31.3502 204.691 31.368 204.761C31.3858 204.832 31.3836 204.906 31.3617 204.975C30.7993 206.766 28.4979 212.005 19.9731 219.028Z" fill="#BAF0B6"/>
<path d="M28.4831 207.484C28.1446 208.099 27.7455 208.679 27.2917 209.215C26.4185 210.385 25.3825 211.746 24.2429 213.256L21.1793 217.304C20.7968 217.893 20.3608 218.445 19.8769 218.954C20.152 218.304 20.5022 217.688 20.9203 217.119C21.6603 216.031 22.6593 214.566 23.8803 212.989C25.1013 211.413 26.2039 210.029 27.0401 209.023C27.4601 208.456 27.9443 207.939 28.4831 207.484Z" fill="#263238"/>
<path d="M17.6199 248.295C17.6199 248.295 16.3027 236.499 23.8063 231.201C23.8654 231.158 23.9352 231.133 24.0078 231.128C24.0805 231.123 24.1532 231.138 24.2177 231.172C24.2823 231.205 24.3361 231.257 24.3733 231.319C24.4104 231.382 24.4293 231.454 24.4279 231.527C24.4057 233.421 23.7323 239.097 17.6199 248.295Z" fill="#BAF0B6"/>
<path d="M22.4077 234.775C22.267 235.464 22.0536 236.136 21.7713 236.781C21.2681 238.15 20.6835 239.741 20.0249 241.531L18.3007 246.282C18.1173 246.958 17.8695 247.615 17.5607 248.243C17.639 247.542 17.7954 246.852 18.0269 246.186C18.3895 244.935 18.9519 243.226 19.6401 241.376C20.3283 239.526 21.0017 237.861 21.5123 236.67C21.7381 236.006 22.0385 235.371 22.4077 234.775Z" fill="#263238"/>
<path d="M24.1837 277.747C24.1837 277.747 23.2883 265.907 30.9769 260.89C31.037 260.849 31.1075 260.825 31.1803 260.821C31.2532 260.818 31.3256 260.835 31.3894 260.87C31.4532 260.905 31.5059 260.958 31.5415 261.021C31.5772 261.085 31.5943 261.157 31.5911 261.23C31.4949 263.117 30.6217 268.764 24.1837 277.747Z" fill="#BAF0B6"/>
<path d="M29.4525 264.427C29.275 265.112 29.027 265.777 28.7125 266.41C28.1575 267.757 27.5137 269.37 26.7959 271.087L24.8941 275.779C24.7002 276.432 24.4476 277.066 24.1393 277.673C24.2388 276.976 24.4201 276.293 24.6795 275.638C25.0791 274.402 25.7081 272.723 26.4629 270.895C27.2177 269.067 27.9429 267.424 28.4979 266.255C28.748 265.612 29.0682 264.999 29.4525 264.427Z" fill="#263238"/>
<path d="M10.723 182.368C10.723 182.368 0.207585 176.877 0.000383694 167.694C-0.00284228 167.621 0.014325 167.549 0.0499564 167.485C0.0855879 167.421 0.13827 167.369 0.202082 167.334C0.265894 167.298 0.338305 167.281 0.411176 167.285C0.484047 167.288 0.55449 167.312 0.614585 167.354C2.17599 168.434 6.50501 172.156 10.723 182.368Z" fill="#BAF0B6"/>
<path d="M2.18341 170.846C2.67494 171.348 3.11383 171.898 3.49321 172.489L6.45323 176.589L9.41324 180.681C9.86417 181.218 10.2654 181.795 10.612 182.405C10.0556 181.96 9.55825 181.445 9.13204 180.873C8.29584 179.882 7.19323 178.461 6.03883 176.855C4.88442 175.249 3.87802 173.762 3.17501 172.667C2.77612 172.1 2.44343 171.489 2.18341 170.846Z" fill="#263238"/>
<path d="M22.0155 206.707C22.0155 206.707 11.1892 201.867 10.4196 192.713C10.4135 192.641 10.4273 192.569 10.4596 192.505C10.4919 192.44 10.5413 192.386 10.6025 192.347C10.6638 192.309 10.7343 192.289 10.8065 192.288C10.8787 192.287 10.9497 192.306 11.0116 192.343C12.6396 193.298 17.1907 196.754 22.0155 206.707Z" fill="#BAF0B6"/>
<path d="M12.795 195.71C13.3146 196.183 13.7856 196.706 14.2011 197.272L17.4127 201.186L20.6317 205.086C21.1121 205.584 21.5433 206.126 21.9193 206.707C21.355 206.272 20.8412 205.776 20.3875 205.227C19.4921 204.28 18.3081 202.933 17.0575 201.401C15.8069 199.869 14.7117 198.441 13.9495 197.398C13.5021 196.881 13.1148 196.315 12.795 195.71Z" fill="#263238"/>
<path d="M15.7847 233.821C15.7847 233.821 8.34762 224.571 11.8404 216.061C11.867 215.993 11.9116 215.935 11.9694 215.891C12.0272 215.848 12.0959 215.821 12.1678 215.814C12.2398 215.807 12.3123 215.82 12.3773 215.852C12.4423 215.884 12.4972 215.933 12.536 215.994C13.535 217.629 15.9993 222.772 15.7847 233.821Z" fill="#BAF0B6"/>
<path d="M12.573 219.842C12.8219 220.498 13.003 221.177 13.1132 221.87C13.424 223.298 13.7866 224.97 14.1936 226.82C14.6006 228.67 14.9336 230.335 15.2814 231.756C15.4794 232.43 15.6156 233.121 15.6884 233.821C15.3598 233.193 15.1112 232.527 14.9484 231.837C14.5784 230.587 14.1418 228.877 13.7274 226.909C13.313 224.941 12.9874 223.209 12.7802 221.936C12.6348 221.248 12.5653 220.545 12.573 219.842Z" fill="#263238"/>
<path d="M23.1551 265.744C23.1551 265.744 12.4028 260.727 11.796 251.551C11.7914 251.48 11.8063 251.408 11.8391 251.345C11.872 251.282 11.9216 251.228 11.9825 251.191C12.0435 251.154 12.1135 251.134 12.1849 251.133C12.2564 251.133 12.3266 251.152 12.388 251.188C14.0012 252.202 18.4931 255.732 23.1551 265.744Z" fill="#BAF0B6"/>
<path d="M14.1122 254.607C14.626 255.087 15.0897 255.617 15.496 256.191C16.3989 257.338 17.4645 258.677 18.6411 260.157L21.7935 264.116C22.2675 264.634 22.6935 265.194 23.0663 265.789C22.5157 265.356 22.0189 264.859 21.5863 264.309C20.7131 263.354 19.5513 261.985 18.3303 260.431C17.1093 258.877 15.9993 257.441 15.2592 256.383C14.8144 255.834 14.4299 255.239 14.1122 254.607Z" fill="#263238"/>
<path d="M44.5634 219.087C44.5737 219.176 44.5737 219.265 44.5634 219.354C44.5634 219.561 44.5634 219.805 44.5634 220.094C44.5634 220.834 44.4894 221.773 44.4376 222.972C44.297 225.503 44.1046 229.025 43.8752 233.251C43.1352 237.543 40.9151 242.301 37.9551 246.919C35.8017 250.323 33.5151 253.423 31.5985 256.302C29.8266 258.815 28.2317 261.448 26.8255 264.183C25.906 266.038 25.1628 267.976 24.6055 269.97C24.4131 270.673 24.2725 271.228 24.1911 271.605C24.1584 271.8 24.1063 271.991 24.0357 272.175C24.0381 271.978 24.0604 271.782 24.1023 271.59C24.1541 271.206 24.2725 270.643 24.4353 269.925C24.9375 267.885 25.6466 265.902 26.5517 264.005C27.9271 261.238 29.5025 258.574 31.2655 256.036C33.1969 253.135 35.4465 250.034 37.5925 246.652C40.5525 242.049 42.6838 237.365 43.5126 233.14C43.8086 228.929 44.0528 225.407 44.2526 222.876C44.3488 221.677 44.4302 220.715 44.482 220.005C44.482 219.709 44.5412 219.457 44.5634 219.265C44.557 219.206 44.557 219.146 44.5634 219.087Z" fill="#263238"/>
<path d="M38.1994 246.075C38.1994 246.075 42.7504 235.116 37.0228 227.937C36.9784 227.88 36.9188 227.836 36.8508 227.81C36.7828 227.784 36.709 227.778 36.6376 227.792C36.5662 227.806 36.5 227.839 36.4465 227.888C36.393 227.938 36.3543 228.001 36.3346 228.071C35.7944 229.906 34.8546 235.567 38.1994 246.075Z" fill="#BAF0B6"/>
<path d="M37.3335 231.763C37.5298 232.439 37.6514 233.133 37.6961 233.835C37.8589 235.123 38.0365 236.906 38.1771 238.882C38.3177 240.858 38.3843 242.649 38.3843 243.944C38.4299 244.647 38.3877 245.353 38.2585 246.045C38.1299 245.357 38.068 244.659 38.0735 243.959C37.9773 242.479 37.8589 240.799 37.7331 238.912C37.6073 237.025 37.4815 235.315 37.3853 233.865C37.299 233.168 37.2817 232.464 37.3335 231.763Z" fill="#263238"/>
<g opacity="0.3">
<path d="M38.1994 246.075C38.1994 246.075 42.7504 235.116 37.0228 227.937C36.9784 227.88 36.9188 227.836 36.8508 227.81C36.7828 227.784 36.709 227.778 36.6376 227.792C36.5662 227.806 36.5 227.839 36.4465 227.888C36.393 227.938 36.3543 228.001 36.3346 228.071C35.7944 229.906 34.8546 235.567 38.1994 246.075Z" fill="black"/>
</g>
<path d="M24.0653 272.478C24.0653 272.478 27.7135 261.193 21.4235 254.504C21.3747 254.45 21.3122 254.412 21.2428 254.392C21.1734 254.372 21.0998 254.371 21.0302 254.39C20.9605 254.409 20.8975 254.447 20.8481 254.5C20.7987 254.553 20.7648 254.618 20.7501 254.689C20.3875 256.554 19.9139 262.244 24.0653 272.478Z" fill="#BAF0B6"/>
<path d="M22.0747 258.278C22.3261 258.937 22.5024 259.622 22.6001 260.32C22.8665 261.586 23.1921 263.347 23.4955 265.308C23.7989 267.269 24.0061 269.045 24.1097 270.34C24.2102 271.038 24.2252 271.747 24.1541 272.449C23.9739 271.77 23.855 271.077 23.7989 270.377C23.5843 268.897 23.3327 267.247 23.0589 265.374C22.7851 263.502 22.5187 261.815 22.3189 260.372C22.1688 259.684 22.087 258.982 22.0747 258.278Z" fill="#263238"/>
<g opacity="0.3">
<path d="M24.0653 272.478C24.0653 272.478 27.7135 261.193 21.4235 254.504C21.3747 254.45 21.3122 254.412 21.2428 254.392C21.1734 254.372 21.0998 254.371 21.0302 254.39C20.9605 254.409 20.8975 254.447 20.8481 254.5C20.7987 254.553 20.7648 254.618 20.7501 254.689C20.3875 256.554 19.9139 262.244 24.0653 272.478Z" fill="black"/>
</g>
<path d="M43.9566 232.688C43.9566 232.688 53.6802 225.88 52.696 216.749C52.6897 216.676 52.6633 216.607 52.6199 216.549C52.5765 216.49 52.5178 216.445 52.4502 216.419C52.3827 216.392 52.309 216.384 52.2374 216.397C52.1658 216.409 52.0992 216.441 52.0448 216.49C50.6388 217.807 46.8204 222.018 43.9566 232.688Z" fill="#BAF0B6"/>
<g opacity="0.3">
<path d="M43.9566 232.688C43.9566 232.688 53.6802 225.88 52.696 216.749C52.6897 216.676 52.6633 216.607 52.6199 216.549C52.5765 216.49 52.5178 216.445 52.4502 216.419C52.3827 216.392 52.309 216.384 52.2374 216.397C52.1658 216.409 52.0992 216.441 52.0448 216.49C50.6388 217.807 46.8204 222.018 43.9566 232.688Z" fill="black"/>
</g>
<path d="M50.9422 220.16C50.7458 220.834 50.4753 221.484 50.1356 222.099C49.5806 223.275 48.774 224.874 47.8342 226.62C46.8944 228.367 45.9916 229.913 45.2886 231.008C44.9525 231.627 44.5371 232.199 44.0528 232.711C44.3197 232.061 44.6442 231.437 45.0222 230.846L47.442 226.406L49.8544 221.966C50.1539 221.328 50.5184 220.723 50.9422 220.16Z" fill="#263238"/>
<path d="M27.9799 261.29C27.9799 261.29 39.6794 259.462 42.8466 250.833C42.8728 250.765 42.8795 250.691 42.8659 250.62C42.8524 250.548 42.8192 250.482 42.77 250.428C42.7208 250.374 42.6576 250.335 42.5875 250.315C42.5174 250.295 42.4431 250.295 42.373 250.315C40.5452 250.833 35.2394 252.972 27.9799 261.29Z" fill="#BAF0B6"/>
<g opacity="0.3">
<path d="M27.9799 261.29C27.9799 261.29 39.6794 259.462 42.8466 250.833C42.8728 250.765 42.8795 250.691 42.8659 250.62C42.8524 250.548 42.8192 250.482 42.77 250.428C42.7208 250.374 42.6576 250.335 42.5875 250.315C42.5174 250.295 42.4431 250.295 42.373 250.315C40.5452 250.833 35.2394 252.972 27.9799 261.29Z" fill="black"/>
</g>
<path d="M39.7682 253.12C39.2955 253.635 38.7696 254.099 38.1994 254.504C37.1856 255.318 35.7574 256.398 34.1442 257.545C32.5309 258.692 31.0361 259.691 29.9335 260.372C29.3539 260.774 28.7277 261.104 28.0687 261.356C28.592 260.889 29.1568 260.47 29.7559 260.106L33.8926 257.19L38.0144 254.23C38.5589 253.8 39.1467 253.428 39.7682 253.12Z" fill="#263238"/>
<path d="M16.7985 282.868L13.3796 305.882H34.6917L31.9241 282.868H16.7985Z" fill="#455A64"/>
<path d="M32.7825 289.994C32.7825 290.12 28.9345 290.216 24.1837 290.216C19.4329 290.216 15.5923 290.12 15.5923 289.994C18.4505 289.775 21.318 289.701 24.1837 289.772C27.0519 289.701 29.9218 289.775 32.7825 289.994Z" fill="#263238"/>
<path d="M33.2044 291.807C33.2044 291.926 29.2305 292.029 24.3243 292.029C19.4181 292.029 15.4443 291.926 15.4443 291.807C15.4443 291.689 19.4181 291.585 24.3243 291.585C29.2305 291.585 33.2044 291.704 33.2044 291.807Z" fill="#263238"/>
</svg>
