<svg width="177" height="51" viewBox="0 0 177 51" fill="none" xmlns="http://www.w3.org/2000/svg">
<path d="M4.0564 50V3.74373H11.4136V44.8343H22.9189V50H4.0564ZM34.7649 50.6261C33.4604 50.6261 32.2081 50.4435 31.008 50.0783C29.8601 49.713 28.8687 48.9564 28.0339 47.8085C27.2512 46.6084 26.8598 44.7821 26.8598 42.3298V37.712C26.8598 35.1552 27.5903 33.1202 29.0513 31.6071C30.5645 30.0417 32.8082 28.659 35.7824 27.4589C37.5043 26.7284 38.8609 26.0761 39.8523 25.5022C40.8959 24.9282 41.6525 24.2499 42.1221 23.4672C42.5917 22.6845 42.8265 21.6149 42.8265 20.2582V18.3015C42.8265 17.3101 42.6178 16.5536 42.2003 16.0318C41.8351 15.51 41.3394 15.1447 40.7133 14.936C40.1393 14.6751 39.461 14.5447 38.6783 14.5447C36.9564 14.5447 35.8085 15.0665 35.2345 16.11C34.7127 17.1536 34.4518 18.8233 34.4518 21.1192V24.4064H27.7991V20.4148C27.7991 18.4842 28.06 16.7884 28.5817 15.3274C29.1035 13.8142 30.1471 12.6402 31.7125 11.8053C33.2778 10.9183 35.5998 10.4748 38.6783 10.4748C41.8612 10.4748 44.2614 10.7878 45.8789 11.414C47.5486 12.0401 48.6966 13.0054 49.3227 14.3099C49.9489 15.5622 50.2619 17.1797 50.2619 19.1625V50H42.9047V45.5387C42.383 47.1563 41.3394 48.4086 39.774 49.2956C38.2609 50.1826 36.5911 50.6261 34.7649 50.6261ZM37.8173 45.6953C39.5914 45.6953 40.8437 45.0691 41.5742 43.8168C42.3569 42.5124 42.7482 40.7122 42.7482 38.4164V27.5371C42.383 28.1633 41.7307 28.7372 40.7915 29.259C39.8523 29.7808 38.9392 30.3287 38.0521 30.9027C36.7477 31.6853 35.7563 32.5202 35.078 33.4072C34.3996 34.2421 34.0605 35.4161 34.0605 36.9293V40.6079C34.0605 42.0167 34.217 43.1124 34.5301 43.8951C34.8953 44.6256 35.365 45.1213 35.9389 45.3822C36.5651 45.5909 37.1912 45.6953 37.8173 45.6953ZM66.6755 50.5479C64.9015 50.5479 63.3883 50.3652 62.136 50C60.8837 49.5826 59.8401 48.9564 59.0053 48.1216C58.2226 47.2345 57.6486 46.0605 57.2834 44.5995C56.9181 43.0863 56.7355 41.234 56.7355 39.0425V20.0234C56.7355 18.4059 56.9181 17.0232 57.2834 15.8752C57.7008 14.6751 58.2748 13.7098 59.0053 12.9793C59.7358 12.1967 60.6489 11.6227 61.7447 11.2574C62.8404 10.8922 64.0666 10.7096 65.4232 10.7096C67.5626 10.7096 69.154 11.0226 70.1976 11.6488C71.2933 12.2749 72.1021 13.0054 72.6239 13.8403V0.691282H79.9811V50H74.9719L74.1892 46.3214C73.9283 46.8954 73.5109 47.5215 72.937 48.1998C72.363 48.826 71.5803 49.3739 70.5889 49.8435C69.5975 50.3131 68.2931 50.5479 66.6755 50.5479ZM68.2409 46.3214C69.2845 46.3214 70.0932 46.1388 70.6672 45.7735C71.2933 45.3561 71.7369 44.8343 71.9977 44.2082C72.2586 43.5299 72.4152 42.7994 72.4674 42.0167C72.5717 41.234 72.6239 40.4252 72.6239 39.5904V17.6754C72.5195 17.3623 72.3108 17.0232 71.9977 16.6579C71.7369 16.2405 71.2933 15.9013 70.6672 15.6404C70.0932 15.3274 69.3105 15.1708 68.3192 15.1708C67.2756 15.1708 66.4668 15.3274 65.8929 15.6404C65.3189 15.9013 64.9015 16.3188 64.6406 16.8927C64.3797 17.4145 64.2231 18.0146 64.171 18.6929C64.1188 19.3712 64.0927 20.1017 64.0927 20.8844V40.6079C64.0927 41.6514 64.1449 42.6167 64.2492 43.5038C64.4058 44.3386 64.771 45.0169 65.345 45.5387C65.9711 46.0605 66.9364 46.3214 68.2409 46.3214ZM96.9279 50.5479C95.1538 50.5479 93.6406 50.3652 92.3883 50C91.1361 49.5826 90.0925 48.9564 89.2576 48.1216C88.475 47.2345 87.901 46.0605 87.5357 44.5995C87.1705 43.0863 86.9879 41.234 86.9879 39.0425V20.0234C86.9879 18.4059 87.1705 17.0232 87.5357 15.8752C87.9532 14.6751 88.5271 13.7098 89.2576 12.9793C89.9881 12.1967 90.9013 11.6227 91.997 11.2574C93.0928 10.8922 94.3189 10.7096 95.6756 10.7096C97.8149 10.7096 99.4064 11.0226 100.45 11.6488C101.546 12.2749 102.354 13.0054 102.876 13.8403V0.691282H110.233V50H105.224L104.442 46.3214C104.181 46.8954 103.763 47.5215 103.189 48.1998C102.615 48.826 101.833 49.3739 100.841 49.8435C99.8499 50.3131 98.5454 50.5479 96.9279 50.5479ZM98.4932 46.3214C99.5368 46.3214 100.346 46.1388 100.92 45.7735C101.546 45.3561 101.989 44.8343 102.25 44.2082C102.511 43.5299 102.668 42.7994 102.72 42.0167C102.824 41.234 102.876 40.4252 102.876 39.5904V17.6754C102.772 17.3623 102.563 17.0232 102.25 16.6579C101.989 16.2405 101.546 15.9013 100.92 15.6404C100.346 15.3274 99.5629 15.1708 98.5715 15.1708C97.5279 15.1708 96.7192 15.3274 96.1452 15.6404C95.5712 15.9013 95.1538 16.3188 94.8929 16.8927C94.632 17.4145 94.4755 18.0146 94.4233 18.6929C94.3711 19.3712 94.345 20.1017 94.345 20.8844V40.6079C94.345 41.6514 94.3972 42.6167 94.5016 43.5038C94.6581 44.3386 95.0234 45.0169 95.5973 45.5387C96.2235 46.0605 97.1888 46.3214 98.4932 46.3214ZM129.059 50.6261C126.398 50.6261 124.18 50.3392 122.406 49.7652C120.684 49.1391 119.38 47.965 118.492 46.2431C117.658 44.5213 117.24 41.9384 117.24 38.4946V20.3365C117.24 16.5796 118.179 14.0229 120.058 12.6663C121.936 11.2574 124.858 10.553 128.824 10.553C132.789 10.553 135.711 11.2574 137.59 12.6663C139.468 14.0229 140.407 16.5796 140.407 20.3365V30.6679H124.597V41.3905C124.597 43.3211 124.884 44.6778 125.458 45.4605C126.084 46.2431 127.258 46.6345 128.98 46.6345C130.546 46.6345 131.615 46.2692 132.189 45.5387C132.763 44.7561 133.05 43.3733 133.05 41.3905V35.677H140.407V38.4164C140.407 41.808 139.964 44.3908 139.077 46.1649C138.242 47.9389 136.99 49.1391 135.32 49.7652C133.65 50.3392 131.563 50.6261 129.059 50.6261ZM124.597 27.2241H133.05V20.0234C133.05 18.2494 132.763 16.971 132.189 16.1883C131.615 15.4056 130.494 15.0143 128.824 15.0143C127.206 15.0143 126.084 15.4056 125.458 16.1883C124.884 16.971 124.597 18.2494 124.597 20.0234V27.2241ZM146.974 50V11.2574H153.235L153.862 15.7187C154.383 14.4142 155.192 13.4489 156.288 12.8228C157.384 12.1445 158.505 11.6749 159.653 11.414C161.271 10.84 162.915 10.7357 164.584 11.1009V16.8145C164.428 16.7623 164.036 16.7101 163.41 16.6579C162.784 16.5536 162.08 16.5275 161.297 16.5796C160.514 16.6318 159.836 16.8145 159.262 17.1275C157.749 17.4928 156.549 18.2494 155.662 19.3973C154.775 20.493 154.331 21.8758 154.331 23.5455V50H146.974Z" fill="#181D17"/>
<circle cx="170.87" cy="44.13" r="5.87008" fill="#22983C"/>
</svg>
