<svg width="320" height="339" viewBox="0 0 320 339" fill="none" xmlns="http://www.w3.org/2000/svg">
<g clip-path="url(#clip0_189_28140)">
<path d="M308.785 155.147C308.785 155.147 308.486 155.069 307.952 154.962C307.418 154.855 306.621 154.763 305.652 154.898C304.698 155.033 303.566 155.425 302.576 156.244C301.594 157.049 300.746 158.259 300.412 159.69V159.726L300.269 160.238L300.07 159.754C299.515 158.387 298.539 157.305 297.471 156.607C296.403 155.902 295.257 155.603 294.295 155.532C292.344 155.397 291.198 156.009 291.184 155.931C291.177 155.916 291.447 155.76 291.974 155.589C292.501 155.418 293.306 155.247 294.31 155.297C295.306 155.34 296.517 155.624 297.642 156.351C298.767 157.063 299.799 158.195 300.383 159.633L300.056 159.662V159.619C300.426 158.102 301.323 156.835 302.37 156.002C303.417 155.154 304.613 154.77 305.61 154.663C306.614 154.549 307.433 154.685 307.967 154.834C308.508 154.984 308.778 155.133 308.771 155.154L308.785 155.147Z" fill="#E0E0E0"/>
<path d="M43.4632 113.208C43.4632 113.208 43.1642 113.13 42.6301 113.023C42.0961 112.916 41.2986 112.823 40.3302 112.959C39.3761 113.094 38.2439 113.486 37.2542 114.304C36.2716 115.109 35.4242 116.32 35.0896 117.751V117.786L34.9472 118.299L34.7478 117.815C34.1924 116.448 33.2169 115.365 32.1488 114.668C31.0808 113.963 29.9344 113.664 28.9731 113.592C27.0221 113.457 25.8757 114.069 25.8615 113.991C25.8543 113.977 26.1249 113.82 26.6518 113.649C27.1787 113.478 27.9834 113.308 28.9873 113.357C29.9842 113.4 31.1947 113.685 32.3197 114.411C33.4447 115.123 34.4772 116.255 35.0611 117.694L34.7335 117.722V117.68C35.1038 116.163 36.001 114.895 37.0477 114.062C38.0944 113.215 39.2906 112.831 40.2875 112.724C41.2915 112.61 42.1103 112.745 42.6444 112.895C43.1855 113.044 43.4561 113.194 43.449 113.208H43.4632Z" fill="#E0E0E0"/>
<path d="M227.662 98.5042C227.662 98.5042 227.391 98.8246 226.9 99.38C226.409 99.9425 225.732 100.79 225.035 101.915C223.625 104.144 222.208 107.697 222.258 111.762C222.258 111.805 222.258 111.848 222.258 111.884L221.916 111.912C221.325 107.91 219.224 104.72 217.38 102.876C215.529 100.989 214.019 100.263 214.069 100.192C214.069 100.185 214.169 100.227 214.34 100.313C214.511 100.412 214.774 100.534 215.08 100.74C215.714 101.132 216.59 101.772 217.551 102.705C218.512 103.631 219.53 104.884 220.392 106.429C221.261 107.974 221.944 109.833 222.25 111.862L221.909 111.891C221.909 111.848 221.909 111.805 221.909 111.762C221.859 107.604 223.34 104.001 224.821 101.78C225.561 100.655 226.266 99.8215 226.793 99.2803C227.05 99.0026 227.27 98.8175 227.42 98.6822C227.569 98.5469 227.648 98.4828 227.655 98.4971L227.662 98.5042Z" fill="#E0E0E0"/>
<path d="M252.477 269.124C241.262 271.787 232.703 282.967 233.052 294.487C225.868 286.569 212.731 284.953 203.844 290.899C194.958 296.844 191.433 309.604 196.012 319.267C185.395 310.978 168.128 313.278 160.046 324.052C158.209 317.266 152.99 311.491 146.425 308.97C139.86 306.45 132.12 307.247 126.21 311.057C124.295 299.045 114.597 288.642 102.748 285.9C90.8927 283.159 77.613 288.229 70.6136 298.183C64.6894 292.408 56.0167 289.596 47.8282 290.785C39.6397 291.974 32.1276 297.143 28.0903 304.363L35.2891 306.685C48.4192 309.084 59.9757 318.782 64.6182 331.3C71.226 324.066 81.4581 320.328 91.1775 321.595C100.89 322.862 109.826 329.107 114.355 337.794L169.787 337.765C183.587 337.652 194.125 338.399 206.878 337.765C211.926 320.014 235.124 304.242 252.562 310.259C256.059 296.816 267.508 285.772 281.051 282.717C276.074 272.478 263.564 266.497 252.477 269.132V269.124Z" fill="#EBEBEB"/>
<path d="M281.5 282.61C281.351 282.639 281.208 282.682 281.059 282.71C281.116 282.824 281.173 282.938 281.229 283.052L281.5 282.603V282.61Z" fill="#EBEBEB"/>
<path d="M138.229 249.693C138.656 246.609 134.299 244.067 131.03 243.804C129.471 243.676 127.847 243.918 126.373 243.398C123.169 242.28 121.895 238.143 118.769 236.826C116.433 235.843 113.742 236.719 111.478 237.858C109.213 238.998 106.977 240.436 104.443 240.593C102.242 240.735 99.8498 239.916 97.9273 240.991C96.489 241.796 95.7413 243.448 94.4169 244.423C93.121 245.378 91.4335 245.577 89.8314 245.67C88.2293 245.755 86.5631 245.776 85.1034 246.446C83.6437 247.115 82.4332 248.66 82.7323 250.241L138.236 249.693H138.229Z" fill="#EBEBEB"/>
<path d="M293.719 76.1531C294.224 72.4861 289.048 69.467 285.153 69.1537C283.294 69.0042 281.372 69.289 279.613 68.6766C275.804 67.3522 274.28 62.432 270.57 60.8584C267.793 59.6835 264.596 60.7302 261.897 62.0831C259.206 63.436 256.543 65.1449 253.531 65.3371C250.91 65.508 248.069 64.5325 245.784 65.8142C244.075 66.7683 243.185 68.7336 241.611 69.8942C240.073 71.0264 238.065 71.2685 236.157 71.3753C234.249 71.4821 232.269 71.4963 230.532 72.2938C228.794 73.0913 227.356 74.9284 227.719 76.8082L293.726 76.1602L293.719 76.1531Z" fill="#EBEBEB"/>
<path d="M90.9706 56.992C91.5046 53.1256 86.0433 49.9428 81.9419 49.6152C79.9838 49.4586 77.9544 49.7576 76.1031 49.1097C72.0872 47.7069 70.4851 42.5233 66.5688 40.8713C63.6423 39.6395 60.2672 40.736 57.4262 42.1672C54.5851 43.5984 51.7797 45.3928 48.6111 45.5993C45.8555 45.7773 42.8578 44.752 40.4439 46.0977C38.6424 47.1017 37.7025 49.1737 36.0435 50.3985C34.42 51.5947 32.3053 51.851 30.2902 51.9578C28.2751 52.0647 26.1959 52.086 24.3588 52.9262C22.5289 53.7664 21.0122 55.7032 21.3896 57.6827L90.9635 56.9991L90.9706 56.992Z" fill="#EBEBEB"/>
<path d="M306.813 204.214C307.532 199.002 300.177 194.716 294.644 194.267C292.009 194.053 289.268 194.459 286.776 193.591C281.364 191.704 279.207 184.711 273.924 182.49C269.979 180.824 265.429 182.305 261.605 184.234C257.782 186.157 254.001 188.585 249.721 188.856C246.004 189.091 241.967 187.716 238.713 189.532C236.292 190.885 235.017 193.676 232.782 195.328C230.596 196.937 227.74 197.279 225.035 197.429C222.322 197.578 219.516 197.607 217.045 198.732C214.575 199.864 212.531 202.477 213.044 205.14L306.813 204.214Z" fill="#F5F5F5"/>
<path d="M99.6292 167.174C100.277 162.453 93.6196 158.572 88.6139 158.166C86.2285 157.974 83.7506 158.337 81.4863 157.554C76.5874 155.845 74.6293 149.515 69.8515 147.5C66.277 145.99 62.1614 147.336 58.7009 149.081C55.2332 150.825 51.8154 153.018 47.9419 153.268C44.5739 153.481 40.9211 152.235 37.9733 153.88C35.7802 155.105 34.6267 157.632 32.6045 159.128C30.625 160.587 28.0402 160.894 25.5908 161.029C23.1343 161.164 20.5923 161.186 18.3564 162.211C16.1206 163.236 14.2693 165.6 14.7321 168.014L99.6221 167.174H99.6292Z" fill="#EBEBEB"/>
<path d="M320 296.118C320 296.118 319.651 295.734 318.982 294.972C318.647 294.594 318.249 294.103 317.707 293.59C317.444 293.327 317.159 293.042 316.853 292.736C316.554 292.423 316.212 292.116 315.835 291.803C315.464 291.483 315.073 291.148 314.66 290.785C314.254 290.422 313.77 290.101 313.293 289.738C312.353 288.983 311.228 288.307 310.032 287.531C307.589 286.085 304.613 284.675 301.11 283.607C297.613 282.546 293.562 281.834 289.14 281.941C288.585 281.955 288.029 281.977 287.467 281.991C286.904 282.048 286.342 282.105 285.765 282.162C285.48 282.19 285.195 282.219 284.904 282.247C284.619 282.297 284.334 282.347 284.042 282.397C283.465 282.497 282.881 282.603 282.297 282.703C279.976 283.251 277.598 283.963 275.262 285.01C272.941 286.078 270.613 287.346 268.413 288.948C266.219 290.55 264.105 292.408 262.161 294.523C258.323 298.788 255.161 304.136 253.545 310.259L253.502 310.423L253.346 310.366C249.216 308.935 244.566 308.743 240.023 309.576C235.466 310.409 230.973 312.21 226.801 314.717C222.628 317.23 218.733 320.456 215.415 324.315C212.111 328.167 209.356 332.703 207.889 337.773L207.853 337.894H207.725C200.704 338.257 193.456 338.179 186.065 338.036C182.369 337.972 178.631 337.901 174.857 337.894C171.083 337.894 167.281 337.901 163.443 337.908C146.738 337.908 130.539 337.922 115.195 337.929H115.088L115.038 337.83C112.567 333.116 108.858 329.214 104.578 326.43C100.299 323.639 95.4284 321.951 90.5652 321.574C85.6948 321.182 80.8814 322.036 76.5948 323.774C72.3012 325.511 68.5274 328.146 65.5724 331.357L65.4015 331.542L65.3161 331.307C63.1942 325.654 59.7906 320.833 55.853 317.031C53.8664 315.144 51.7516 313.506 49.5728 312.103C47.3939 310.701 45.1154 309.611 42.8653 308.693C40.601 307.788 38.3153 307.205 36.0937 306.749C35.5312 306.663 34.9758 306.585 34.4276 306.5C34.1499 306.457 33.8793 306.421 33.6016 306.379C33.3239 306.357 33.0533 306.336 32.7827 306.315C32.2345 306.272 31.7004 306.229 31.1664 306.186C30.6324 306.186 30.0983 306.172 29.5785 306.165C25.3704 306.129 21.5396 306.82 18.2143 307.817C14.8819 308.814 12.048 310.117 9.70537 311.441C8.55898 312.146 7.47667 312.773 6.56526 313.463C5.61824 314.097 4.82075 314.767 4.10158 315.35C3.36105 315.913 2.80566 316.518 2.27163 316.981C1.73759 317.451 1.34597 317.892 1.01131 318.234C0.356226 318.925 0.00732422 319.281 0.00732422 319.281C0.00732422 319.281 0.334865 318.911 0.982825 318.206C1.31037 317.857 1.70199 317.401 2.2289 316.931C2.75582 316.461 3.31121 315.849 4.04462 315.279C4.76378 314.688 5.55415 314.012 6.50117 313.371C7.41259 312.673 8.4949 312.039 9.63417 311.327C11.9768 309.989 14.8179 308.664 18.1645 307.653C21.504 306.642 25.3561 305.93 29.5857 305.959C30.1126 305.959 30.6466 305.966 31.1878 305.973C31.7218 306.015 32.2701 306.058 32.8183 306.101C33.0889 306.122 33.3666 306.144 33.6443 306.165C33.922 306.201 34.1926 306.243 34.4703 306.286C35.0257 306.364 35.5882 306.45 36.1507 306.528C38.3865 306.984 40.6936 307.568 42.9721 308.472C45.2435 309.383 47.5363 310.48 49.7294 311.89C51.9225 313.3 54.0586 314.937 56.0595 316.831C60.0256 320.655 63.4647 325.504 65.6151 331.208L65.3588 331.158C68.3351 327.911 72.1517 325.248 76.4809 323.489C80.8102 321.73 85.6734 320.862 90.5936 321.246C95.5139 321.631 100.441 323.332 104.77 326.145C109.093 328.958 112.852 332.902 115.359 337.673L115.202 337.573C130.546 337.566 146.745 337.552 163.45 337.545C167.281 337.545 171.09 337.538 174.864 337.531C178.638 337.538 182.376 337.609 186.079 337.673C193.477 337.815 200.711 337.894 207.718 337.545L207.554 337.673C209.042 332.539 211.833 327.968 215.166 324.087C218.512 320.199 222.436 316.96 226.644 314.432C230.852 311.911 235.381 310.095 239.988 309.262C244.58 308.422 249.28 308.622 253.474 310.074L253.274 310.181C254.919 304.008 258.109 298.624 261.983 294.338C263.941 292.209 266.07 290.343 268.284 288.734C270.506 287.132 272.849 285.857 275.191 284.789C277.548 283.743 279.941 283.024 282.276 282.482C282.867 282.383 283.451 282.276 284.035 282.176C284.327 282.126 284.612 282.077 284.904 282.027C285.195 281.998 285.48 281.97 285.772 281.941C286.349 281.884 286.919 281.827 287.481 281.777C288.051 281.763 288.606 281.749 289.162 281.728C293.612 281.628 297.678 282.354 301.188 283.437C304.705 284.519 307.682 285.943 310.124 287.41C311.32 288.186 312.445 288.877 313.385 289.638C313.862 290.009 314.339 290.336 314.745 290.699C315.158 291.063 315.55 291.404 315.913 291.725C316.29 292.038 316.625 292.351 316.924 292.672C317.23 292.978 317.508 293.27 317.771 293.533C318.313 294.053 318.704 294.544 319.032 294.929C319.687 295.698 320.014 296.104 320.014 296.104L320 296.118Z" fill="#263238"/>
<path d="M159.783 28.0759L163.507 35.6165C163.77 36.1505 164.283 36.5279 164.874 36.6134L173.198 37.8238C174.693 38.0374 175.284 39.8745 174.209 40.9283L168.185 46.8027C167.758 47.2228 167.558 47.8209 167.658 48.4119L169.082 56.7001C169.338 58.1883 167.779 59.3205 166.44 58.6155L158.992 54.6993C158.465 54.4216 157.832 54.4216 157.298 54.6993L149.85 58.6155C148.511 59.3205 146.952 58.1812 147.208 56.7001L148.632 48.4119C148.732 47.8209 148.54 47.2157 148.105 46.8027L142.081 40.9283C140.999 39.8745 141.597 38.0374 143.092 37.8238L151.416 36.6134C152.007 36.5279 152.52 36.1576 152.783 35.6165L156.507 28.0759C157.177 26.7231 159.106 26.7231 159.768 28.0759H159.783Z" fill="#22983C"/>
<path d="M145.592 33.0603C145.52 33.1315 140.8 28.7453 135.039 23.2625C129.279 17.7798 124.672 13.2725 124.743 13.1942C124.814 13.123 129.535 17.5092 135.295 22.9919C141.049 28.4747 145.663 32.9819 145.592 33.0531V33.0603Z" fill="#22983C"/>
<path d="M135.716 37.7028C135.716 37.8025 131.657 37.6387 126.658 37.3397C121.66 37.0335 117.615 36.7059 117.623 36.6062C117.623 36.5066 121.681 36.6703 126.68 36.9694C131.678 37.2756 135.723 37.6031 135.716 37.7028Z" fill="#22983C"/>
<path d="M151.117 24.1882C151.025 24.2309 149.85 21.8028 148.497 18.7624C147.144 15.722 146.126 13.2298 146.218 13.1871C146.311 13.1444 147.486 15.5724 148.839 18.6129C150.191 21.6533 151.21 24.1454 151.117 24.1882Z" fill="#22983C"/>
<path d="M157.419 0C157.518 0 157.604 4.96295 157.604 11.0794C157.604 17.1959 157.518 22.1588 157.419 22.1588C157.319 22.1588 157.233 17.1959 157.233 11.0794C157.233 4.96295 157.319 0 157.419 0Z" fill="#22983C"/>
<path d="M170.008 13.3936C170.1 13.4363 169.047 15.843 167.658 18.7695C166.263 21.696 165.059 24.0315 164.967 23.9888C164.874 23.9461 165.928 21.5393 167.323 18.6128C168.712 15.6863 169.922 13.3508 170.008 13.4007V13.3936Z" fill="#22983C"/>
<path d="M190.344 17.0178C190.401 17.1033 184.968 20.991 178.218 25.7048C171.46 30.4185 165.935 34.171 165.878 34.0927C165.821 34.0072 171.247 30.1194 178.011 25.4057C184.768 20.692 190.294 16.9395 190.351 17.0249L190.344 17.0178Z" fill="#22983C"/>
<path d="M190.885 32.7612C190.92 32.8538 188.236 33.9859 184.882 35.289C181.529 36.592 178.78 37.5675 178.744 37.4749C178.709 37.3824 181.393 36.2502 184.747 34.9472C188.101 33.6441 190.849 32.6686 190.885 32.7612Z" fill="#22983C"/>
<path d="M143.534 47.942C143.57 48.0417 136.506 50.5552 127.762 53.5672C119.018 56.5791 111.898 58.936 111.869 58.8363C111.834 58.7366 118.897 56.2231 127.641 53.2111C136.385 50.2063 143.505 47.8423 143.534 47.942Z" fill="#22983C"/>
<path d="M199.195 55.7033C199.166 55.803 192.95 54.1439 185.31 52.0007C177.669 49.8574 171.496 48.0417 171.525 47.942C171.553 47.8423 177.769 49.5014 185.409 51.6446C193.05 53.7879 199.216 55.6036 199.187 55.7033H199.195Z" fill="#22983C"/>
<path d="M137.716 68.5698C137.652 68.4915 139.532 66.7399 141.925 64.6607C144.317 62.5815 146.311 60.9581 146.375 61.0364C146.439 61.1147 144.559 62.8592 142.167 64.9455C139.774 67.0247 137.781 68.6482 137.716 68.5698Z" fill="#22983C"/>
<path d="M158.01 86.0079C157.91 86.0079 157.86 79.9199 157.896 72.4221C157.938 64.9172 158.052 58.8363 158.152 58.8363C158.252 58.8363 158.302 64.9172 158.266 72.4221C158.223 79.9271 158.109 86.0079 158.01 86.0079Z" fill="#22983C"/>
<path d="M179.001 70.0937C178.93 70.1649 176.971 68.4346 174.629 66.2201C172.286 64.0057 170.442 62.1544 170.513 62.076C170.584 61.9977 172.543 63.7351 174.885 65.9496C177.228 68.164 179.072 70.0153 179.001 70.0937Z" fill="#22983C"/>
<path d="M194.26 44.4316L194.324 45.6563C194.324 45.7417 194.374 45.8201 194.452 45.8699L195.499 46.5107C195.684 46.6247 195.663 46.9095 195.456 46.9878L194.31 47.4293C194.232 47.4578 194.168 47.529 194.146 47.6144L193.861 48.8035C193.812 49.0171 193.534 49.0812 193.399 48.9103L192.63 47.9562C192.573 47.885 192.487 47.8494 192.402 47.8565L191.177 47.9491C190.956 47.9633 190.814 47.7212 190.935 47.5432L191.604 46.5179C191.654 46.4467 191.661 46.3541 191.626 46.2686L191.156 45.1365C191.07 44.93 191.255 44.7235 191.469 44.7805L192.651 45.1009C192.736 45.1223 192.829 45.1009 192.893 45.0439L193.826 44.2464C193.997 44.104 194.253 44.218 194.26 44.4316Z" fill="#22983C"/>
<path d="M202.121 31.5222L202.676 32.1061C202.719 32.1488 202.776 32.1702 202.833 32.1559L203.631 32.0278C203.773 32.0064 203.88 32.1559 203.816 32.2841L203.431 32.9961C203.403 33.046 203.403 33.1101 203.431 33.1599L203.801 33.8791C203.866 34.0073 203.759 34.1568 203.616 34.1283L202.819 33.9859C202.762 33.9788 202.705 33.993 202.662 34.0357L202.093 34.6054C201.993 34.7051 201.815 34.6481 201.793 34.5057L201.687 33.7082C201.68 33.6512 201.644 33.6014 201.594 33.5729L200.875 33.2098C200.747 33.1457 200.747 32.9605 200.875 32.8965L201.601 32.5476C201.651 32.5262 201.687 32.4764 201.701 32.4194L201.822 31.6219C201.843 31.4795 202.021 31.4225 202.121 31.5293V31.5222Z" fill="#22983C"/>
<path d="M111.812 21.8313L112.368 22.4152C112.411 22.4579 112.468 22.4793 112.524 22.465L113.322 22.3368C113.464 22.3155 113.571 22.465 113.507 22.5932L113.123 23.3052C113.094 23.3551 113.094 23.4192 113.123 23.469L113.493 24.1882C113.557 24.3163 113.45 24.4659 113.308 24.4374L112.51 24.295C112.453 24.2879 112.396 24.3021 112.354 24.3448L111.784 24.9145C111.684 25.0141 111.506 24.9572 111.485 24.8148L111.378 24.0173C111.371 23.9603 111.335 23.9105 111.286 23.882L110.566 23.5188C110.438 23.4548 110.438 23.2696 110.566 23.2055L111.293 22.8566C111.342 22.8353 111.378 22.7854 111.392 22.7285L111.513 21.931C111.535 21.7886 111.713 21.7316 111.812 21.8384V21.8313Z" fill="#22983C"/>
<path d="M40.971 193.982C40.971 193.982 40.672 193.904 40.1379 193.797C39.6039 193.69 38.8064 193.598 37.838 193.733C36.8839 193.868 35.7517 194.26 34.762 195.079C33.7794 195.883 32.932 197.094 32.5974 198.525V198.561L32.455 199.073L32.2556 198.589C31.7002 197.222 30.7247 196.14 29.6566 195.442C28.5886 194.737 27.4422 194.438 26.4809 194.367C24.5299 194.232 23.3835 194.844 23.3693 194.766C23.3622 194.751 23.6327 194.595 24.1596 194.424C24.6866 194.253 25.4912 194.082 26.4952 194.132C27.492 194.175 28.7025 194.459 29.8275 195.186C30.9526 195.898 31.985 197.03 32.5689 198.468L32.2414 198.497V198.454C32.6116 196.937 33.5088 195.67 34.5555 194.837C35.6022 193.989 36.7984 193.605 37.7953 193.498C38.7993 193.384 39.6181 193.519 40.1522 193.669C40.6933 193.819 40.9639 193.968 40.9568 193.989L40.971 193.982Z" fill="#263238"/>
<path d="M75.4341 191.248C75.4341 191.248 75.0567 191.697 74.3589 192.494C73.6611 193.284 72.707 194.488 71.7101 196.09C69.7093 199.251 67.7084 204.278 67.7796 210.046C67.7796 210.103 67.7796 210.167 67.7796 210.224L67.2955 210.267C66.4624 204.592 63.486 200.077 60.8728 197.464C58.2454 194.794 56.1092 193.762 56.1804 193.662C56.1876 193.648 56.3229 193.705 56.5649 193.84C56.807 193.975 57.1773 194.153 57.6188 194.445C58.5159 195.001 59.7549 195.905 61.1149 197.222C62.4749 198.539 63.9132 200.305 65.138 202.498C66.3698 204.684 67.3382 207.319 67.7725 210.196L67.2883 210.238C67.2883 210.181 67.2883 210.117 67.2883 210.06C67.2171 204.172 69.3177 199.066 71.4182 195.912C72.4649 194.317 73.4689 193.135 74.2165 192.373C74.5797 191.981 74.9001 191.718 75.0995 191.526C75.306 191.341 75.4199 191.248 75.4341 191.255V191.248Z" fill="#263238"/>
<path d="M251.566 148.931C251.566 148.931 250.967 148.725 249.871 148.483C248.774 148.241 247.13 148.027 245.136 148.298C243.156 148.561 240.807 149.358 238.756 151.053C236.705 152.712 234.954 155.226 234.249 158.209C234.249 158.238 234.234 158.266 234.227 158.288L234.099 158.8L233.9 158.316C232.753 155.482 230.717 153.232 228.502 151.801C226.288 150.341 223.903 149.743 221.916 149.601C219.915 149.458 218.292 149.75 217.209 150.035C216.12 150.32 215.55 150.576 215.536 150.54C215.536 150.526 215.671 150.462 215.942 150.341C216.213 150.22 216.626 150.063 217.167 149.9C218.249 149.572 219.887 149.245 221.923 149.358C223.945 149.465 226.388 150.056 228.666 151.53C230.938 152.976 233.031 155.276 234.206 158.181L233.878 158.209C233.878 158.209 233.893 158.152 233.9 158.131C234.619 155.069 236.428 152.499 238.542 150.811C240.657 149.088 243.071 148.298 245.093 148.063C247.13 147.82 248.796 148.07 249.892 148.354C250.448 148.497 250.861 148.639 251.138 148.753C251.416 148.867 251.558 148.924 251.558 148.938L251.566 148.931Z" fill="#263238"/>
<path d="M298.931 122.942C298.931 122.942 298.596 122.849 297.991 122.721C297.386 122.6 296.488 122.493 295.399 122.643C294.317 122.792 293.042 123.234 291.924 124.159C290.813 125.063 289.859 126.438 289.475 128.054L289.461 128.097L289.332 128.609L289.133 128.125C288.506 126.587 287.403 125.355 286.199 124.572C284.996 123.775 283.7 123.44 282.611 123.362C281.521 123.276 280.631 123.426 280.033 123.575C279.435 123.725 279.115 123.853 279.107 123.825C279.107 123.81 279.179 123.775 279.328 123.703C279.478 123.632 279.706 123.54 280.005 123.447C280.596 123.262 281.507 123.07 282.632 123.12C283.75 123.169 285.11 123.49 286.377 124.309C287.638 125.106 288.805 126.381 289.461 127.997L289.133 128.026L289.147 127.983C289.546 126.281 290.557 124.85 291.732 123.917C292.914 122.963 294.253 122.529 295.371 122.408C296.503 122.279 297.421 122.429 298.026 122.593C298.333 122.671 298.56 122.756 298.71 122.828C298.86 122.892 298.938 122.934 298.938 122.942H298.931Z" fill="#263238"/>
<path d="M267.964 112.304C267.964 112.304 267.637 112.674 267.053 113.336C266.469 113.998 265.664 115.002 264.831 116.334C263.151 118.976 261.47 123.184 261.527 128.011C261.527 128.061 261.527 128.111 261.527 128.161L261.186 128.189C260.829 125.833 260.039 123.668 259.049 121.866C258.06 120.051 256.899 118.584 255.795 117.473C254.699 116.362 253.695 115.579 252.976 115.081C252.256 114.582 251.836 114.333 251.858 114.305C251.858 114.297 251.972 114.347 252.178 114.454C252.378 114.568 252.691 114.718 253.054 114.967C253.802 115.43 254.834 116.191 255.973 117.295C257.105 118.392 258.309 119.873 259.327 121.71C260.352 123.54 261.164 125.74 261.527 128.14L261.186 128.168C261.186 128.118 261.186 128.068 261.186 128.018C261.129 123.105 262.873 118.84 264.625 116.206C265.493 114.867 266.334 113.884 266.953 113.244C267.252 112.916 267.516 112.695 267.686 112.532C267.857 112.375 267.957 112.297 267.964 112.304Z" fill="#263238"/>
<path d="M128.688 132.391H188.307C190.6 132.391 190.6 128.83 188.307 128.83H128.688C126.395 128.83 126.395 132.391 128.688 132.391Z" fill="#455A64"/>
<path d="M130.753 64.3262H126.48V337.737H130.753V64.3262Z" fill="#455A64"/>
<path d="M130.532 337.737C130.432 337.737 130.347 276.565 130.347 201.124C130.347 125.683 130.432 64.5042 130.532 64.5042C130.632 64.5042 130.717 125.662 130.717 201.124C130.717 276.587 130.632 337.737 130.532 337.737Z" fill="#263238"/>
<path d="M128.688 104.721H188.307C190.6 104.721 190.6 101.16 188.307 101.16H128.688C126.395 101.16 126.395 104.721 128.688 104.721Z" fill="#455A64"/>
<path d="M190.379 64.8887H186.107V337.737H190.379V64.8887Z" fill="#455A64"/>
<path d="M186.214 303.367C186.114 303.367 186.029 250.084 186.029 184.37C186.029 118.655 186.114 65.3586 186.214 65.3586C186.314 65.3586 186.399 118.634 186.399 184.37C186.399 250.106 186.314 303.367 186.214 303.367Z" fill="#263238"/>
<path d="M128.617 314.624H188.236C190.529 314.624 190.529 311.064 188.236 311.064H128.617C126.324 311.064 126.324 314.624 128.617 314.624Z" fill="#455A64"/>
<path d="M129.863 259.434H185.879C188.172 259.434 188.172 255.873 185.879 255.873H129.863C127.57 255.873 127.57 259.434 129.863 259.434Z" fill="#455A64"/>
<path d="M128.617 220.862H188.236C190.529 220.862 190.529 217.302 188.236 217.302H128.617C126.324 217.302 126.324 220.862 128.617 220.862Z" fill="#455A64"/>
<path d="M128.617 190.436H188.236C190.529 190.436 190.529 186.876 188.236 186.876H128.617C126.324 186.876 126.324 190.436 128.617 190.436Z" fill="#455A64"/>
<path d="M128.617 160.73H188.236C190.529 160.73 190.529 157.17 188.236 157.17H128.617C126.324 157.17 126.324 160.73 128.617 160.73Z" fill="#455A64"/>
<path d="M129.207 287.873H185.879C188.172 287.873 188.172 284.312 185.879 284.312H129.207C126.915 284.312 126.915 287.873 129.207 287.873Z" fill="#455A64"/>
<path d="M177.698 108.444L174.081 100.391C174.081 100.391 174.273 96.0905 173.66 95.7273C172.82 95.2289 172.614 95.6419 172.379 97.0802L172.037 99.195C172.037 99.195 170.656 96.1901 169.367 96.062C168.491 95.9765 168.242 97.5003 168.242 97.5003C168.242 97.5003 166.789 96.1403 165.75 96.4607C164.774 96.7669 165.045 98.2052 165.045 98.2052C165.045 98.2052 163.827 97.4789 163.293 98.7677C162.688 100.242 165.344 102.477 165.75 103.467C166.597 105.539 164.803 105.603 164.803 105.603C164.803 105.603 160.174 105.012 160.416 106.194C160.658 107.376 162.197 107.383 163.386 107.497C164.375 107.597 168.085 108.523 169.288 108.822C169.538 108.886 169.78 108.993 170.001 109.135L172.763 111.969L177.705 108.444H177.698Z" fill="#FFBE9D"/>
<path d="M175.826 293.405L175.662 314.083L164.511 314.218L164.625 293.505L175.826 293.405Z" fill="#BAF0B6"/>
<path d="M170.157 313.371C170.065 313.371 170.079 308.842 170.193 303.26C170.307 297.677 170.471 293.156 170.563 293.156C170.656 293.156 170.642 297.684 170.528 303.267C170.414 308.849 170.25 313.371 170.157 313.371Z" fill="#263238"/>
<path d="M164.546 307.596C164.546 307.596 164.625 307.418 164.838 307.148C165.052 306.877 165.379 306.5 165.842 306.094C166.305 305.688 166.91 305.254 167.658 304.905C168.399 304.556 169.303 304.314 170.264 304.335C172.194 304.364 173.803 305.325 174.593 306.279C174.999 306.749 175.256 307.19 175.398 307.504C175.54 307.817 175.59 308.002 175.569 308.009C175.505 308.045 175.248 307.311 174.422 306.443C173.625 305.574 172.094 304.705 170.264 304.677C168.441 304.648 166.925 305.553 165.999 306.279C165.059 307.027 164.596 307.632 164.546 307.596Z" fill="#263238"/>
<path opacity="0.3" d="M164.511 300.988L164.504 303.267H175.825V300.988H164.511Z" fill="black"/>
<path d="M164.511 314.218L164.518 312.061H175.683L175.662 314.083L164.511 314.218Z" fill="#E0E0E0"/>
<path d="M152.42 239.745L152.271 259.59L141.569 259.718L141.676 239.845L152.42 239.745Z" fill="#BAF0B6"/>
<path d="M146.987 258.907C146.895 258.907 146.916 254.563 147.023 249.209C147.13 243.854 147.293 239.51 147.379 239.51C147.471 239.51 147.45 243.854 147.343 249.216C147.236 254.57 147.073 258.914 146.987 258.914V258.907Z" fill="#263238"/>
<path d="M141.604 253.367C141.604 253.367 141.682 253.196 141.882 252.94C142.081 252.676 142.401 252.32 142.85 251.929C143.299 251.537 143.875 251.117 144.595 250.789C145.307 250.455 146.175 250.22 147.094 250.241C148.945 250.262 150.49 251.188 151.245 252.107C151.637 252.555 151.879 252.982 152.014 253.281C152.149 253.588 152.199 253.758 152.178 253.766C152.121 253.794 151.872 253.096 151.074 252.263C150.305 251.43 148.838 250.597 147.08 250.569C145.328 250.54 143.875 251.409 142.992 252.107C142.088 252.826 141.647 253.41 141.604 253.367Z" fill="#263238"/>
<path opacity="0.3" d="M141.569 247.023L141.562 249.209H152.42V247.023H141.569Z" fill="black"/>
<path d="M141.569 259.718L141.576 257.653H152.285L152.271 259.59L141.569 259.718Z" fill="#E0E0E0"/>
<path d="M154.464 106.75L154.749 106.679C155.603 105.133 157.341 104.172 159.099 104.08C160.858 103.987 162.617 104.713 163.934 105.881C164.853 106.693 165.579 107.704 166.498 108.516C167.416 109.327 168.648 109.933 169.844 109.676C169.994 110.125 169.153 110.388 169.21 110.858C169.232 111.079 169.467 111.229 169.687 111.271C170.008 111.335 170.343 111.257 170.67 111.271C170.998 111.278 171.368 111.435 171.453 111.755C171.496 111.912 171.453 112.076 171.411 112.232C171.047 113.628 170.464 115.009 169.467 116.049C168.463 117.089 166.982 117.737 165.565 117.473C164.433 117.26 163.486 116.519 162.588 115.793C160.879 114.426 159.171 113.051 157.469 111.684C156.678 111.05 155.881 110.41 155.29 109.598C154.692 108.786 154.314 107.761 154.471 106.764L154.464 106.75Z" fill="#263238"/>
<path d="M155.532 107.035C154.834 106.479 154.03 106.024 153.147 105.853C152.271 105.682 151.31 105.817 150.583 106.344C149.907 106.835 149.494 107.59 149.017 108.281C148.54 108.964 147.906 109.634 147.087 109.755C146.945 109.776 146.781 109.783 146.674 109.883C146.489 110.061 146.624 110.41 146.859 110.517C147.094 110.623 147.372 110.566 147.621 110.509C147.215 110.986 146.639 111.314 146.019 111.414C146.154 112.026 146.866 112.432 147.457 112.247C147.222 113.215 146.98 114.198 146.987 115.195C146.987 116.192 147.272 117.224 147.949 117.957C148.696 118.762 149.907 119.218 150.234 120.264" fill="#263238"/>
<path d="M162.717 142.224L149.387 142.053L150.875 130.689C150.875 130.689 149.964 130.496 149.9 125.548C149.836 120.606 149.615 112.204 149.615 112.204C155.333 109.747 161.933 110.573 166.861 114.376L167.594 114.938L162.717 142.224Z" fill="#FFBE9D"/>
<path d="M166.049 121.012C166.135 120.976 169.446 120.008 169.332 123.39C169.218 126.772 165.857 125.968 165.857 125.868C165.857 125.769 166.049 121.012 166.049 121.012Z" fill="#FFBE9D"/>
<path d="M150.192 120.307C150.106 120.272 147.102 119.46 147.208 122.842C147.315 126.224 150.683 125.42 150.683 125.32C150.683 125.22 150.192 120.314 150.192 120.314V120.307Z" fill="#FFBE9D"/>
<path d="M167.139 120.635C166.633 123.469 166.733 124.957 166.27 126.851C165.529 129.841 164.048 132.141 161.35 133.637C158.658 135.132 155.013 135.103 152.698 133.067C151.096 131.657 149.957 130.055 149.715 127.933C149.48 125.804 148.853 121.81 148.839 119.673C148.811 115.814 148.939 112.354 148.939 112.354L159.954 110.36L166.22 114.091L167.139 120.642V120.635Z" fill="#263238"/>
<path d="M155.781 135.345C155.767 135.424 156.629 135.637 157.711 135.516C158.793 135.402 159.591 135.004 159.555 134.925C159.527 134.84 158.708 135.096 157.675 135.203C156.643 135.324 155.796 135.253 155.781 135.338V135.345Z" fill="#263238"/>
<path d="M166.611 125.455C166.932 122.55 167.145 119.232 167.594 116.17C167.765 115.024 168.171 113.365 168.071 112.211C167.971 111.05 167.651 111.407 167.138 110.353C166.497 109.043 164.048 108.167 162.617 107.875C161.186 107.59 161.008 106.344 159.911 107.312C159.113 106.109 157.533 105.489 156.13 105.81C154.727 106.137 153.588 107.391 153.389 108.822C152.605 108.074 151.309 107.939 150.391 108.501C149.465 109.064 148.995 110.274 149.294 111.314C148.504 111.442 147.792 111.998 147.472 112.731C147.151 113.464 147.222 114.362 147.657 115.031C148.169 115.814 149.088 116.248 149.65 117.003C150.298 117.865 150.37 119.125 149.821 120.058" fill="#263238"/>
<path d="M152.42 124.85C152.349 124.836 152.193 126.238 152.798 127.819C153.389 129.414 154.436 130.361 154.478 130.297C154.549 130.233 153.652 129.229 153.09 127.705C152.506 126.189 152.52 124.843 152.42 124.843V124.85Z" fill="#455A64"/>
<path d="M150.939 122.386C150.868 122.351 150.441 123.554 150.726 125.064C150.989 126.573 151.815 127.549 151.872 127.492C151.95 127.442 151.281 126.438 151.032 125.007C150.761 123.582 151.032 122.401 150.946 122.386H150.939Z" fill="#455A64"/>
<path d="M164.81 110.694C163.97 109.377 162.823 108.195 161.378 107.618C159.925 107.042 158.145 107.163 156.956 108.174" fill="#263238"/>
<path d="M164.532 118.178C164.475 118.164 164.532 117.786 164.639 117.181C164.739 116.576 164.903 115.75 164.895 114.839C164.888 113.927 164.66 113.123 164.39 112.596C164.126 112.062 163.856 111.791 163.899 111.741C163.927 111.706 164.276 111.919 164.625 112.453C164.981 112.987 165.273 113.856 165.28 114.824C165.287 115.793 165.073 116.64 164.903 117.238C164.724 117.829 164.575 118.185 164.525 118.171L164.532 118.178Z" fill="#455A64"/>
<path d="M162.254 119.296C162.154 119.239 162.432 118.57 162.695 117.737C162.966 116.896 163.129 116.191 163.236 116.206C163.343 116.213 163.35 116.975 163.065 117.85C162.788 118.733 162.346 119.346 162.254 119.296Z" fill="#455A64"/>
<path d="M151.68 118.427C151.68 118.427 151.267 118.043 150.925 117.217C150.583 116.405 150.327 115.138 150.598 113.785C150.868 112.432 151.587 111.364 152.221 110.744C152.855 110.118 153.36 109.883 153.382 109.918C153.417 109.968 152.976 110.282 152.42 110.929C151.865 111.57 151.231 112.596 150.982 113.856C150.733 115.123 150.925 116.313 151.189 117.117C151.452 117.929 151.744 118.385 151.687 118.42L151.68 118.427Z" fill="#455A64"/>
<path d="M163.713 105.853C163.685 105.902 163.279 105.689 162.624 105.397C161.969 105.112 161.036 104.735 159.968 104.742C158.893 104.742 158.01 105.233 157.561 105.76C157.091 106.28 157.006 106.743 156.942 106.721C156.899 106.721 156.885 106.216 157.34 105.582C157.568 105.276 157.91 104.955 158.366 104.72C158.821 104.485 159.377 104.357 159.961 104.35C161.136 104.336 162.111 104.792 162.745 105.148C163.386 105.518 163.735 105.81 163.706 105.853H163.713Z" fill="#455A64"/>
<path d="M148.661 108.986C148.618 108.971 148.697 108.594 149.053 108.088C149.401 107.59 150.071 106.992 150.982 106.728C151.901 106.465 152.784 106.607 153.339 106.842C153.909 107.077 154.179 107.348 154.151 107.391C154.115 107.44 153.802 107.255 153.254 107.106C152.712 106.956 151.908 106.871 151.089 107.106C150.27 107.348 149.644 107.846 149.266 108.266C148.882 108.687 148.718 109.014 148.661 108.986Z" fill="#455A64"/>
<path d="M152.292 121.411C152.278 121.361 152.833 121.218 153.723 120.82C154.606 120.421 155.824 119.737 156.985 118.612L157.625 117.993L157.277 118.819C157.07 119.31 156.899 119.851 156.8 120.428C156.743 120.706 156.7 121.055 156.8 121.105C156.871 121.19 157.177 121.04 157.426 120.862C158.323 120.286 159.085 119.581 159.69 118.854L160.274 118.15L160.004 119.018C159.733 119.887 159.484 120.706 159.263 121.439L159.007 121.283C160.552 119.816 161.086 118.513 161.164 118.563C161.193 118.577 161.079 118.904 160.787 119.445C160.488 119.987 159.997 120.734 159.22 121.51L158.807 121.923L158.964 121.354C159.171 120.613 159.406 119.794 159.648 118.919L159.968 119.089C159.349 119.851 158.565 120.592 157.633 121.19C157.497 121.275 157.369 121.368 157.198 121.446C157.042 121.518 156.785 121.582 156.565 121.418C156.351 121.247 156.337 120.998 156.344 120.834C156.358 120.656 156.387 120.514 156.415 120.364C156.529 119.759 156.707 119.196 156.942 118.684L157.234 118.883C156.016 120.022 154.735 120.684 153.809 121.033C152.876 121.382 152.299 121.453 152.292 121.425V121.411Z" fill="#455A64"/>
<path d="M158.729 108.373C158.515 107.967 158.11 107.683 157.661 107.547C157.22 107.419 156.742 107.433 156.294 107.512C155.183 107.711 154.143 108.309 153.424 109.178C153.261 109.377 153.111 109.683 153.289 109.868C153.382 109.968 153.531 109.99 153.666 109.997C155.325 110.132 156.999 110.075 158.644 109.819" fill="#263238"/>
<path d="M136.969 207.668C137.189 208.067 139.888 217.095 145.841 218.626C151.794 220.157 170.335 219.139 170.848 218.626C171.361 218.114 176.808 215.109 179.442 208.871C182.077 202.634 163.151 191.747 163.151 191.747L136.969 207.668Z" fill="#263238"/>
<path d="M182.575 210.11L182.746 215.144C182.746 215.921 182.654 219.823 182.568 220.592L180.254 251.857C180.026 251.765 178.68 271.104 178.559 277.861C178.445 284.384 177.904 302.128 177.904 302.128H162.688L161.663 272.756L161.022 240.949L160.075 218.698L182.575 210.103V210.11Z" fill="#263238"/>
<path d="M136.969 202.691C136.969 202.691 137.303 203.189 137.225 210.11C137.168 215.401 140.379 248.012 140.379 248.012L153.381 247.621L155.98 214.966L136.976 202.698L136.969 202.691Z" fill="#263238"/>
<path d="M161.278 219.089C161.278 219.089 160.894 219.167 160.189 219.246C159.484 219.317 158.466 219.417 157.198 219.495C154.677 219.666 151.124 219.716 147.308 218.918C143.463 218.106 140.408 215.92 138.92 213.848C138.158 212.816 137.717 211.869 137.496 211.192C137.368 210.858 137.325 210.58 137.275 210.402C137.232 210.217 137.218 210.124 137.232 210.117C137.325 210.075 137.567 211.705 139.126 213.692C140.636 215.678 143.634 217.772 147.386 218.562C151.153 219.353 154.67 219.345 157.191 219.239C158.401 219.189 159.413 219.139 160.189 219.11C160.894 219.082 161.292 219.075 161.292 219.103L161.278 219.089Z" fill="#455A64"/>
<path d="M176.686 218.462C176.694 218.512 176.06 218.69 175.02 218.904C173.974 219.118 172.521 219.345 170.905 219.488C169.281 219.63 167.814 219.659 166.746 219.63C165.685 219.602 165.023 219.538 165.03 219.488C165.03 219.431 165.685 219.409 166.746 219.367C167.807 219.324 169.267 219.253 170.876 219.118C172.485 218.975 173.931 218.79 174.985 218.648C176.031 218.505 176.686 218.413 176.694 218.462H176.686Z" fill="#455A64"/>
<path d="M176.245 224.187C176.245 224.237 175.398 224.166 174.052 223.967C172.706 223.767 170.848 223.418 168.833 222.92C166.811 222.422 165.009 221.866 163.72 221.418C162.432 220.969 161.655 220.641 161.67 220.592C161.691 220.542 162.496 220.784 163.799 221.168C165.102 221.553 166.903 222.066 168.918 222.564C170.926 223.062 172.763 223.447 174.095 223.71C175.426 223.974 176.252 224.138 176.245 224.187Z" fill="#455A64"/>
<path d="M172.628 114.653C172.692 114.454 170.749 111.328 170.749 111.328C170.749 111.328 174.95 106.878 177.477 107.006L179.877 110.331L172.628 114.653Z" fill="white"/>
<path d="M192.509 128.645C191.59 125.783 180.076 109.171 180.076 109.171C175.84 109.171 171.696 114.319 171.696 114.319L179.877 131.55L171.275 139.468L180.988 150.939C180.988 150.939 187.118 143.271 188.955 140.486C193.05 134.299 193.427 131.508 192.509 128.638V128.645Z" fill="#BAF0B6"/>
<path opacity="0.3" d="M136.599 206.749C136.599 206.749 137.56 213.151 142.914 215.045C148.269 216.939 160.637 215.045 160.637 215.045L162.076 210.381L163.614 215.885L182.746 213.428L182.476 209.063L162.197 200.64L136.599 206.749Z" fill="black"/>
<path d="M178.332 185.424C177.926 183.152 177.406 182.013 177.306 180.639C177 176.559 177.029 166.775 177.306 165.522C177.669 163.884 180.995 150.932 180.995 150.932L179.862 140.907L165.735 138.528L164.746 136.257C164.746 136.257 155.318 133.815 149.351 137.019L148.319 139.454L144.638 140.38C144.082 140.6 141.198 141.405 139.012 141.996C136.577 142.658 134.541 144.339 133.473 146.624C133.145 147.329 132.811 148.162 132.483 149.138C131.508 152.029 125.897 168.007 125.647 172.87C125.355 178.56 130.397 178.759 133.459 178.04C136.435 177.335 139.917 170.421 139.917 170.421L141.854 183.9C141.854 183.9 141.448 186.748 140.508 189.311C138.628 194.438 135.922 204.357 135.922 204.357C136.983 207.661 140.814 212.901 142.815 213.635C144.823 214.361 158.245 213.777 158.245 213.777L162.197 203.267L165.849 214.311L184.897 211.342L178.332 185.424Z" fill="#BAF0B6"/>
<path d="M162.196 181.536C162.253 181.621 159.512 183.437 156.073 185.58C152.634 187.731 149.807 189.404 149.75 189.311C149.693 189.226 152.434 187.41 155.873 185.267C159.306 183.117 162.139 181.45 162.189 181.536H162.196Z" fill="#263238"/>
<path d="M157.177 187.076C157.234 187.161 154.314 189.098 150.669 191.405C147.016 193.712 144.018 195.506 143.961 195.421C143.904 195.335 146.824 193.399 150.469 191.091C154.122 188.784 157.12 186.99 157.177 187.076Z" fill="#263238"/>
<path d="M172.243 171.98C172.329 172.016 171.517 173.76 169.958 175.519C168.406 177.285 166.775 178.303 166.725 178.225C166.654 178.132 168.163 177 169.68 175.27C171.211 173.554 172.151 171.916 172.243 171.973V171.98Z" fill="#263238"/>
<path d="M172.628 173.775C172.671 173.796 172.443 174.351 171.987 175.206C171.531 176.06 170.834 177.199 169.958 178.389C169.082 179.578 168.192 180.582 167.515 181.265C166.839 181.949 166.376 182.333 166.341 182.298C166.262 182.219 167.936 180.525 169.666 178.168C171.403 175.818 172.535 173.725 172.635 173.775H172.628Z" fill="#263238"/>
<path d="M173.07 191.248C173.02 191.227 173.233 190.508 173.561 189.347C173.896 188.186 174.337 186.577 174.757 184.776C175.17 182.981 175.484 181.337 175.697 180.147C175.911 178.958 176.039 178.218 176.089 178.225C176.139 178.225 176.103 178.98 175.953 180.19C175.804 181.393 175.533 183.053 175.113 184.861C174.693 186.67 174.209 188.279 173.81 189.425C173.411 190.572 173.112 191.262 173.07 191.248Z" fill="#263238"/>
<path d="M180.083 149.366C179.983 149.423 178.723 147.23 176.8 144.787C174.892 142.331 173.076 140.572 173.155 140.494C173.19 140.458 173.682 140.857 174.422 141.569C175.163 142.281 176.124 143.328 177.092 144.559C178.054 145.798 178.83 146.987 179.342 147.878C179.855 148.768 180.119 149.344 180.076 149.366H180.083Z" fill="#263238"/>
<path d="M183.138 144.296C183.038 144.36 182.17 142.608 180.318 141.184C178.488 139.732 176.58 139.319 176.616 139.205C176.623 139.162 177.107 139.205 177.855 139.447C178.602 139.682 179.592 140.152 180.546 140.892C181.493 141.633 182.191 142.487 182.604 143.149C183.017 143.819 183.181 144.275 183.138 144.296Z" fill="#263238"/>
<path d="M141.846 183.9C141.747 183.914 140.607 176.544 139.297 167.444C137.994 158.337 137.011 150.953 137.118 150.939C137.218 150.925 138.357 158.288 139.667 167.395C140.97 176.495 141.953 183.886 141.846 183.9Z" fill="#263238"/>
<path d="M165.921 138.585C165.921 138.642 164.924 138.571 163.315 138.514C161.713 138.45 159.491 138.422 157.049 138.543C154.606 138.664 152.399 138.92 150.811 139.141C149.223 139.361 148.241 139.532 148.227 139.475C148.227 139.447 148.462 139.376 148.896 139.269C149.33 139.162 149.971 139.027 150.769 138.884C152.356 138.592 154.571 138.301 157.035 138.179C159.498 138.058 161.727 138.13 163.336 138.258C164.141 138.322 164.789 138.393 165.237 138.457C165.686 138.521 165.928 138.571 165.928 138.592L165.921 138.585Z" fill="#263238"/>
<g opacity="0.3">
<path d="M139.981 170.926C139.219 165.23 138.186 159.534 137.425 153.837C135.367 159.448 136.506 166.056 139.981 170.926Z" fill="black"/>
</g>
<g opacity="0.3">
<path d="M179.713 131.33C181.037 130.062 182.768 129.236 184.583 129.001C185.452 128.887 186.413 128.937 187.068 129.521C187.211 129.649 187.346 129.827 187.318 130.012C187.289 130.205 187.104 130.34 186.919 130.383C186.727 130.418 186.534 130.383 186.342 130.347C184.156 129.948 181.785 130.596 179.713 131.387" fill="black"/>
</g>
<g opacity="0.3">
<path d="M149.031 139.539C150.832 140.088 152.769 139.981 154.649 139.824C157.974 139.539 161.285 139.105 164.568 138.528C159.284 137.816 153.866 138.115 148.696 139.425" fill="black"/>
</g>
<g opacity="0.3">
<path d="M148.383 192.879C155.874 190.778 162.731 186.477 167.879 180.646C161.962 184.412 154.214 188.735 148.383 192.879Z" fill="black"/>
</g>
<path d="M184.356 130.482C184.334 130.589 183.174 130.29 181.821 130.682C180.454 131.052 179.628 131.913 179.549 131.835C179.514 131.807 179.67 131.543 180.041 131.223C180.404 130.895 180.995 130.532 181.721 130.333C182.447 130.133 183.138 130.133 183.615 130.219C184.099 130.304 184.37 130.447 184.356 130.489V130.482Z" fill="#263238"/>
</g>
<defs>
<clipPath id="clip0_189_28140">
<rect width="320" height="338.178" fill="white"/>
</clipPath>
</defs>
</svg>
