<svg width="300" height="333" viewBox="0 0 300 333" fill="none" xmlns="http://www.w3.org/2000/svg">
<path d="M58.9756 132.424L95.6745 130.746L89.0047 166.58L58.9756 132.424Z" fill="#EBEBEB"/>
<path d="M84.4119 154.43L70.7349 138.873L7.82374 194.181L21.5008 209.738L84.4119 154.43Z" fill="#EBEBEB"/>
<path d="M208.67 77.038L245.362 75.3596L238.699 111.194L208.67 77.038Z" fill="#EBEBEB"/>
<path d="M234.104 99.0465L220.427 83.4893L157.515 138.797L171.192 154.354L234.104 99.0465Z" fill="#EBEBEB"/>
<path d="M68.1592 85.3718L91.7073 84.2892L87.4278 107.285L68.1592 85.3718Z" fill="#F5F5F5"/>
<path d="M84.4734 99.4858L75.6992 89.5054L35.3355 124.991L44.1097 134.971L84.4734 99.4858Z" fill="#F5F5F5"/>
<path d="M269.252 86.6214L292.8 85.5388L288.52 108.535L269.252 86.6214Z" fill="#F5F5F5"/>
<path d="M285.565 100.742L276.791 90.7617L236.428 126.247L245.202 136.228L285.565 100.742Z" fill="#F5F5F5"/>
<path d="M215.66 275.922H181.889C180.914 275.922 180.124 276.712 180.124 277.687V286.486C180.124 287.461 180.914 288.251 181.889 288.251H215.66C216.635 288.251 217.426 287.461 217.426 286.486V277.687C217.426 276.712 216.635 275.922 215.66 275.922Z" fill="#EBEBEB"/>
<path d="M224.626 275.98C224.626 275.98 224.989 276.016 225.534 275.682C225.796 275.515 226.086 275.224 226.232 274.795C226.392 274.367 226.304 273.814 226.319 273.211C226.312 271.983 226.297 270.501 226.29 268.772C226.29 267.907 226.283 266.985 226.275 266.004C226.275 265.51 226.319 265.016 226.043 264.601C225.803 264.187 225.36 263.875 224.858 263.81C216.14 263.817 204.129 263.831 190.862 263.846C190.114 263.831 189.416 264.42 189.307 265.154C189.257 265.909 189.293 266.774 189.286 267.566C189.286 269.186 189.286 270.777 189.286 272.347C189.286 272.739 189.286 273.131 189.286 273.516C189.3 273.902 189.249 274.301 189.337 274.621C189.504 275.297 190.158 275.798 190.833 275.798C192.337 275.798 193.812 275.798 195.251 275.805C201.005 275.82 206.186 275.834 210.545 275.849C214.883 275.871 218.399 275.892 220.855 275.907C222.054 275.921 222.991 275.936 223.66 275.943C223.965 275.95 224.205 275.958 224.386 275.965C224.553 275.965 224.633 275.98 224.633 275.987C224.633 275.994 224.546 276.001 224.386 276.009C224.205 276.009 223.965 276.023 223.66 276.03C222.998 276.038 222.054 276.052 220.855 276.067C218.399 276.081 214.883 276.103 210.545 276.125C206.186 276.139 201.005 276.147 195.251 276.168C193.812 276.168 192.337 276.168 190.826 276.168C189.99 276.168 189.184 275.558 188.981 274.723C188.872 274.294 188.93 273.909 188.915 273.524C188.915 273.139 188.915 272.746 188.915 272.354C188.915 270.785 188.915 269.193 188.915 267.573C188.93 266.752 188.886 265.982 188.944 265.103C189.075 264.195 189.94 263.461 190.87 263.475C204.159 263.483 216.161 263.475 224.909 263.548C225.491 263.628 226.006 263.991 226.275 264.478C226.413 264.718 226.5 264.987 226.522 265.255C226.537 265.531 226.522 265.764 226.522 266.011C226.522 266.992 226.515 267.915 226.508 268.779C226.493 270.501 226.486 271.991 226.479 273.219C226.45 273.822 226.537 274.381 226.355 274.846C226.181 275.304 225.868 275.602 225.592 275.762C225.309 275.929 225.062 275.98 224.895 275.994C224.728 276.009 224.648 275.994 224.648 275.994L224.626 275.98Z" fill="#E0E0E0"/>
<path d="M35.5364 54.8849H1.76556C0.790468 54.8849 0 55.6754 0 56.6504V65.4492C0 66.4243 0.790468 67.2147 1.76556 67.2147H35.5364C36.5115 67.2147 37.302 66.4243 37.302 65.4492V56.6504C37.302 55.6754 36.5115 54.8849 35.5364 54.8849Z" fill="#F5F5F5"/>
<path d="M54.1872 54.8849C54.1872 54.8849 54.5505 54.9213 55.0955 54.587C55.357 54.4199 55.6476 54.1293 55.793 53.7006C55.9528 53.272 55.8656 52.7198 55.8801 52.1167C55.8729 50.8888 55.8583 49.4066 55.8511 47.6774C55.8511 46.8128 55.8438 45.89 55.8365 44.9092C55.8365 44.4151 55.8801 43.921 55.604 43.5069C55.3643 43.0927 54.9211 42.7803 54.4197 42.7149C45.7009 42.7222 33.6908 42.7367 20.4236 42.7513C19.6752 42.7367 18.9777 43.3252 18.8688 44.0591C18.8179 44.8147 18.8542 45.6721 18.847 46.4713C18.847 48.0915 18.847 49.6827 18.847 51.2521C18.847 51.6444 18.847 52.0368 18.847 52.4219C18.8615 52.807 18.8106 53.2066 18.8978 53.5263C19.0649 54.202 19.7188 54.7033 20.3946 54.7033C21.8985 54.7033 23.3735 54.7033 24.8121 54.7106C30.5665 54.7251 35.7469 54.7396 40.1063 54.7542C44.444 54.776 47.9606 54.7978 50.4164 54.8123C51.6152 54.8268 52.5525 54.8413 53.2209 54.8486C53.5261 54.8559 53.7658 54.8631 53.9475 54.8704C54.1146 54.8704 54.1945 54.8849 54.1945 54.8922C54.1945 54.8995 54.1073 54.9067 53.9475 54.914C53.7658 54.914 53.5261 54.9285 53.2209 54.9358C52.5597 54.9431 51.6152 54.9576 50.4164 54.9721C47.9606 54.9867 44.444 55.0085 40.1063 55.0303C35.7469 55.0448 30.5665 55.0521 24.8121 55.0739C23.3735 55.0739 21.8985 55.0739 20.3873 55.0739C19.5517 55.0739 18.7452 54.4635 18.5418 53.628C18.4328 53.1993 18.4909 52.8142 18.4764 52.4291C18.4764 52.0441 18.4764 51.6517 18.4764 51.2594C18.4764 49.69 18.4764 48.0988 18.4764 46.4785C18.4909 45.6575 18.4473 44.8874 18.5055 44.0082C18.6363 43.1 19.5009 42.3662 20.4309 42.3807C33.7198 42.388 45.7227 42.3807 54.4706 42.4534C55.0519 42.5333 55.5677 42.8966 55.8365 43.3834C55.9746 43.6231 56.0618 43.892 56.0836 44.1608C56.0981 44.4369 56.0836 44.6694 56.0836 44.9164C56.0836 45.8973 56.0763 46.82 56.069 47.6846C56.0545 49.4066 56.0473 50.8961 56.04 52.124C56.0109 52.727 56.0981 53.2865 55.9165 53.7515C55.7421 54.2092 55.4297 54.5071 55.1536 54.667C54.8702 54.8341 54.6232 54.8849 54.4561 54.8995C54.289 54.914 54.209 54.8995 54.209 54.8995L54.1872 54.8849Z" fill="#E0E0E0"/>
<path d="M298.234 297.922H264.464C263.488 297.922 262.698 298.712 262.698 299.688V308.486C262.698 309.461 263.488 310.252 264.464 310.252H298.234C299.21 310.252 300 309.461 300 308.486V299.688C300 298.712 299.21 297.922 298.234 297.922Z" fill="#EBEBEB"/>
<path d="M291.383 217.963C291.383 217.963 291.746 218 292.291 217.665C292.553 217.498 292.843 217.208 292.989 216.779C293.149 216.35 293.061 215.798 293.076 215.195C293.069 213.967 293.054 212.485 293.047 210.756C293.047 209.891 293.04 208.968 293.032 207.987C293.032 207.493 293.076 206.999 292.8 206.585C292.56 206.171 292.117 205.859 291.616 205.793C282.897 205.8 270.887 205.815 257.619 205.83C256.871 205.815 256.174 206.403 256.065 207.137C256.014 207.893 256.05 208.75 256.043 209.55C256.043 211.17 256.043 212.761 256.043 214.33C256.043 214.723 256.043 215.115 256.043 215.5C256.057 215.885 256.006 216.285 256.094 216.605C256.261 217.28 256.915 217.782 257.59 217.782C259.094 217.782 260.569 217.782 262.008 217.789C267.762 217.803 272.943 217.818 277.302 217.832C281.64 217.854 285.156 217.876 287.612 217.891C288.811 217.905 289.748 217.92 290.417 217.927C290.722 217.934 290.962 217.941 291.143 217.949C291.31 217.949 291.39 217.963 291.39 217.97C291.39 217.978 291.303 217.985 291.143 217.992C290.962 217.992 290.722 218.007 290.417 218.014C289.756 218.021 288.811 218.036 287.612 218.05C285.156 218.065 281.64 218.087 277.302 218.109C272.943 218.123 267.762 218.13 262.008 218.152C260.569 218.152 259.094 218.152 257.583 218.152C256.748 218.152 255.941 217.542 255.738 216.706C255.629 216.278 255.687 215.892 255.672 215.507C255.672 215.122 255.672 214.73 255.672 214.338C255.672 212.768 255.672 211.177 255.672 209.557C255.687 208.736 255.643 207.966 255.701 207.086C255.832 206.178 256.697 205.444 257.627 205.459C270.916 205.466 282.919 205.459 291.666 205.532C292.248 205.612 292.764 205.975 293.032 206.462C293.17 206.701 293.258 206.97 293.279 207.239C293.294 207.515 293.279 207.748 293.279 207.995C293.279 208.976 293.272 209.898 293.265 210.763C293.25 212.485 293.243 213.974 293.236 215.202C293.207 215.805 293.294 216.365 293.112 216.83C292.938 217.287 292.625 217.585 292.349 217.745C292.066 217.912 291.819 217.963 291.652 217.978C291.485 217.992 291.405 217.978 291.405 217.978L291.383 217.963Z" fill="#E0E0E0"/>
<path d="M63.008 249.525C63.008 249.525 63.3713 249.562 63.9163 249.227C64.1778 249.06 64.4684 248.77 64.6138 248.341C64.7736 247.912 64.6864 247.36 64.7009 246.757C64.6937 245.529 64.6791 244.047 64.6719 242.318C64.6719 241.453 64.6646 240.53 64.6573 239.55C64.6573 239.055 64.7009 238.561 64.4249 238.147C64.1851 237.733 63.7419 237.421 63.2405 237.355C54.5217 237.363 42.5116 237.377 29.2444 237.392C28.4961 237.377 27.7985 237.966 27.6896 238.699C27.6387 239.455 27.675 240.312 27.6678 241.112C27.6678 242.732 27.6678 244.323 27.6678 245.892C27.6678 246.285 27.6678 246.677 27.6678 247.062C27.6823 247.447 27.6314 247.847 27.7186 248.167C27.8857 248.842 28.5396 249.344 29.2154 249.344C30.7193 249.344 32.1943 249.344 33.6329 249.351C39.3873 249.365 44.5677 249.38 48.9271 249.395C53.2648 249.416 56.7814 249.438 59.2372 249.453C60.436 249.467 61.3733 249.482 62.0417 249.489C62.3469 249.496 62.5866 249.504 62.7683 249.511C62.9354 249.511 63.0153 249.525 63.0153 249.533C63.0153 249.54 62.9281 249.547 62.7683 249.554C62.5866 249.554 62.3469 249.569 62.0417 249.576C61.3805 249.583 60.436 249.598 59.2372 249.613C56.7814 249.627 53.2648 249.649 48.9271 249.671C44.5677 249.685 39.3873 249.692 33.6329 249.714C32.1943 249.714 30.7193 249.714 29.2081 249.714C28.3725 249.714 27.566 249.104 27.3626 248.268C27.2536 247.84 27.3117 247.455 27.2972 247.07C27.2972 246.684 27.2972 246.292 27.2972 245.9C27.2972 244.33 27.2972 242.739 27.2972 241.119C27.3117 240.298 27.2682 239.528 27.3263 238.649C27.4571 237.74 28.3217 237.007 29.2517 237.021C42.5406 237.028 54.5435 237.021 63.2914 237.094C63.8727 237.174 64.3885 237.537 64.6573 238.024C64.7954 238.264 64.8826 238.532 64.9044 238.801C64.9189 239.077 64.9044 239.31 64.9044 239.557C64.9044 240.538 64.8971 241.46 64.8899 242.325C64.8753 244.047 64.8681 245.536 64.8608 246.764C64.8317 247.367 64.9189 247.927 64.7373 248.392C64.5629 248.85 64.2505 249.148 63.9744 249.307C63.691 249.474 63.444 249.525 63.2769 249.54C63.1098 249.554 63.0298 249.54 63.0298 249.54L63.008 249.525Z" fill="#E0E0E0"/>
<path d="M279.583 57.7767C279.583 57.7767 279.947 57.813 280.492 57.4788C280.753 57.3117 281.044 57.021 281.189 56.5924C281.349 56.1637 281.262 55.6115 281.276 55.0084C281.269 53.7805 281.255 52.2983 281.247 50.5691C281.247 49.7045 281.24 48.7818 281.233 47.8009C281.233 47.3068 281.276 46.8128 281 46.3986C280.761 45.9845 280.317 45.672 279.816 45.6066C271.097 45.6139 259.087 45.6284 245.82 45.643C245.071 45.6284 244.374 46.217 244.265 46.9508C244.214 47.7064 244.25 48.5638 244.243 49.363C244.243 50.9833 244.243 52.5744 244.243 54.1438C244.243 54.5362 244.243 54.9285 244.243 55.3136C244.258 55.6987 244.207 56.0983 244.294 56.418C244.461 57.0937 245.115 57.595 245.791 57.595C247.295 57.595 248.77 57.595 250.208 57.6023C255.963 57.6168 261.143 57.6313 265.503 57.6459C269.84 57.6677 273.357 57.6895 275.813 57.704C277.011 57.7185 277.949 57.7331 278.617 57.7403C278.922 57.7476 279.162 57.7549 279.344 57.7621C279.511 57.7621 279.591 57.7767 279.591 57.7839C279.591 57.7912 279.504 57.7985 279.344 57.8057C279.162 57.8057 278.922 57.8203 278.617 57.8275C277.956 57.8348 277.011 57.8493 275.813 57.8639C273.357 57.8784 269.84 57.9002 265.503 57.922C261.143 57.9365 255.963 57.9438 250.208 57.9656C248.77 57.9656 247.295 57.9656 245.784 57.9656C244.948 57.9656 244.141 57.3553 243.938 56.5197C243.829 56.091 243.887 55.7059 243.873 55.3209C243.873 54.9358 243.873 54.5434 243.873 54.1511C243.873 52.5817 243.873 50.9905 243.873 49.3703C243.887 48.5492 243.844 47.7791 243.902 46.8999C244.033 45.9917 244.897 45.2579 245.827 45.2724C259.116 45.2797 271.119 45.2724 279.867 45.3451C280.448 45.425 280.964 45.7883 281.233 46.2751C281.371 46.5149 281.458 46.7837 281.48 47.0525C281.494 47.3286 281.48 47.5611 281.48 47.8082C281.48 48.789 281.473 49.7118 281.465 50.5764C281.451 52.2983 281.444 53.7878 281.436 55.0157C281.407 55.6188 281.494 56.1782 281.313 56.6432C281.138 57.101 280.826 57.3989 280.55 57.5587C280.266 57.7258 280.019 57.7767 279.852 57.7912C279.685 57.8057 279.605 57.7912 279.605 57.7912L279.583 57.7767Z" fill="#E0E0E0"/>
<path d="M147.123 308.653H113.352C112.377 308.653 111.586 309.444 111.586 310.419V319.218C111.586 320.193 112.377 320.983 113.352 320.983H147.123C148.098 320.983 148.888 320.193 148.888 319.218V310.419C148.888 309.444 148.098 308.653 147.123 308.653Z" fill="#EBEBEB"/>
<path d="M291.383 0H257.612C256.637 0 255.846 0.790468 255.846 1.76556V10.5643C255.846 11.5394 256.637 12.3299 257.612 12.3299H291.383C292.358 12.3299 293.148 11.5394 293.148 10.5643V1.76556C293.148 0.790468 292.358 0 291.383 0Z" fill="#F5F5F5"/>
<path d="M0.0654297 332.063C0.0654297 332.063 0.130821 332.049 0.261603 332.049C0.399651 332.049 0.588559 332.042 0.835592 332.034C1.35146 332.027 2.10709 332.013 3.10248 332.005C5.10781 331.991 8.05768 331.969 11.8867 331.94C19.552 331.911 30.6975 331.875 44.6549 331.831L44.4152 332.071C44.4006 322.938 44.3788 312.57 44.357 301.184V300.894H44.6549C60.0218 300.879 77.2415 300.857 95.8489 300.836L95.5002 301.184C95.5002 292.059 95.4856 282.461 95.4856 272.587V272.216H95.8562C110.991 272.216 127.033 272.216 143.541 272.209C146.76 272.209 149.964 272.209 153.139 272.209L152.761 272.587C152.761 261.376 152.761 250.412 152.768 239.782V239.411H153.139C173.781 239.426 193.195 239.441 210.828 239.455L210.501 239.782C210.53 219.235 210.56 201.114 210.581 186.154V185.907H210.828C226.304 185.958 238.62 185.994 247.062 186.016C251.276 186.045 254.531 186.067 256.733 186.081C257.83 186.096 258.658 186.11 259.225 186.118C259.501 186.125 259.712 186.132 259.857 186.132C259.995 186.132 260.068 186.147 260.068 186.147C260.068 186.147 259.995 186.161 259.857 186.161C259.712 186.161 259.501 186.169 259.225 186.176C258.658 186.183 257.823 186.198 256.733 186.212C254.531 186.227 251.276 186.248 247.062 186.278C238.612 186.307 226.304 186.343 210.828 186.387L211.075 186.139C211.097 201.107 211.126 219.22 211.155 239.767V240.094H210.828C193.195 240.109 173.773 240.124 153.139 240.138L153.509 239.767C153.509 250.397 153.509 261.361 153.517 272.572V272.95H153.139C149.956 272.95 146.76 272.95 143.541 272.95C127.033 272.95 110.991 272.95 95.8562 272.943L96.2267 272.572C96.2267 282.453 96.2122 292.044 96.2122 301.17V301.519H95.8635C77.256 301.497 60.0364 301.482 44.6695 301.46L44.9601 301.17C44.9383 312.555 44.9165 322.923 44.902 332.056V332.296H44.6622C30.7048 332.252 19.5593 332.216 11.894 332.187C8.07221 332.158 5.11508 332.136 3.10975 332.122C2.11435 332.107 1.35872 332.1 0.842858 332.092C0.588559 332.092 0.399651 332.078 0.268869 332.078C0.138087 332.078 0.0726954 332.063 0.0726954 332.063H0.0654297Z" fill="#263238"/>
<path d="M14.3571 295.793C16.0718 296.534 17.3361 298.125 17.9682 299.884C18.6003 301.642 18.6584 303.56 18.4477 305.42C18.0408 309.017 15.9992 312.642 13.7977 315.512C10.7752 312.875 10.0776 308.268 9.86694 305.907C9.53999 302.18 11.2184 295.241 14.3571 295.8" fill="#22983C"/>
<path d="M17.3143 321.441C16.8275 319.407 17.6776 317.183 19.2324 315.796C20.7945 314.408 22.967 313.819 25.0522 313.979C26.0113 314.052 27.0576 314.335 27.6097 315.127C28.1256 315.868 28.0675 316.9 27.6461 317.699C27.2247 318.499 26.5054 319.094 25.7425 319.574C23.1196 321.216 20.2787 322.328 17.3143 321.441Z" fill="#22983C"/>
<path d="M13.4345 332.456C13.4345 332.456 13.4563 332.187 13.5435 331.722C13.638 331.206 13.7615 330.53 13.9068 329.724C14.241 328.06 14.6697 325.67 15.963 323.352C17.2417 321.041 19.0291 319.334 20.5403 318.491C21.2887 318.055 21.9426 317.801 22.4076 317.663C22.6329 317.583 22.8218 317.554 22.9453 317.525C23.0688 317.496 23.1342 317.489 23.1342 317.496C23.156 317.554 22.0879 317.75 20.6348 318.644C19.1817 319.516 17.4524 321.201 16.1955 323.475C14.924 325.75 14.4662 328.104 14.0884 329.76C13.9068 330.596 13.7542 331.272 13.638 331.737C13.5217 332.202 13.449 332.456 13.4272 332.456H13.4345Z" fill="#263238"/>
<path d="M13.5505 301.184C13.5505 301.184 13.5723 301.293 13.5869 301.504C13.6014 301.744 13.6159 302.049 13.645 302.427C13.6886 303.233 13.7322 304.396 13.783 305.834C13.8775 308.712 13.9501 312.693 13.9283 317.089C13.9065 321.485 13.7976 325.466 13.6813 328.343C13.6232 329.782 13.5651 330.945 13.5142 331.751C13.4851 332.129 13.4706 332.434 13.4488 332.674C13.4343 332.884 13.4197 332.993 13.4125 332.993C13.4052 332.993 13.3979 332.884 13.3979 332.667C13.3979 332.427 13.4052 332.122 13.4125 331.737C13.4343 330.901 13.4633 329.746 13.4924 328.329C13.5651 325.452 13.6377 321.47 13.6595 317.082C13.6813 312.686 13.6377 308.712 13.5869 305.834C13.5651 304.418 13.5433 303.262 13.536 302.427C13.536 302.049 13.536 301.737 13.536 301.497C13.536 301.286 13.536 301.17 13.5505 301.17V301.184Z" fill="#263238"/>
<path d="M12.0829 323.628C11.3927 319.283 8.4646 315.352 4.49754 313.449C3.48761 312.962 2.16526 312.65 1.33697 313.398C0.501415 314.154 0.690323 315.505 1.0972 316.551C2.7901 320.903 7.34569 323.977 12.0175 323.926" fill="#22983C"/>
<path d="M4.98427 316.856C4.98427 316.856 5.21677 316.944 5.62365 317.14C5.82709 317.234 6.07412 317.358 6.35022 317.525C6.61905 317.692 6.95327 317.859 7.27296 318.106C7.59992 318.339 7.97047 318.586 8.32648 318.898C8.7043 319.189 9.06758 319.545 9.45267 319.923C10.201 320.693 10.9494 321.608 11.5888 322.669C12.2209 323.737 12.6786 324.827 12.9983 325.851C13.1436 326.367 13.2817 326.861 13.3543 327.326C13.4561 327.791 13.4924 328.234 13.536 328.634C13.5941 329.034 13.5723 329.404 13.5868 329.724C13.6014 330.044 13.5868 330.32 13.565 330.545C13.5287 330.995 13.5069 331.242 13.4851 331.242C13.427 331.242 13.5287 330.24 13.3543 328.656C13.3035 328.256 13.2526 327.828 13.1436 327.37C13.0637 326.905 12.9184 326.425 12.7731 325.924C12.4461 324.921 11.9884 323.853 11.3708 322.807C10.7387 321.768 10.0121 320.86 9.28555 320.097C8.915 319.726 8.55899 319.37 8.1957 319.072C7.84695 318.753 7.49093 318.506 7.17124 318.259C5.87068 317.329 4.96247 316.915 4.98427 316.864V316.856Z" fill="#263238"/>
<path d="M180.676 39.0385L187.026 35.9942C188.283 32.1506 190.586 28.5904 193.899 25.7786C203.432 17.7064 217.709 18.8835 225.781 28.4161C233.853 37.9486 232.676 52.2257 223.143 60.2979C213.611 68.37 199.334 67.193 191.262 57.6604C187.89 53.6788 186.139 48.8762 185.929 44.0373V44.0518L180.676 39.0385Z" fill="white"/>
<path d="M180.676 39.0385C180.676 39.0385 180.777 39.1474 180.995 39.3581C181.228 39.5834 181.555 39.9031 181.976 40.3245C182.87 41.1964 184.178 42.4606 185.871 44.1099C185.9 44.139 185.95 44.139 185.98 44.1099C185.987 44.1026 185.994 44.0881 186.001 44.0736V44.059L185.849 44.0445C185.965 46.9508 186.684 50.8161 189.009 54.7251C189.583 55.6987 190.266 56.665 191.044 57.6023C191.865 58.4959 192.686 59.4623 193.703 60.2833C195.665 61.9835 198.062 63.4584 200.794 64.4465C203.526 65.4347 206.592 65.9433 209.76 65.7689C212.921 65.6018 216.183 64.759 219.198 63.175C222.221 61.6129 224.924 59.2443 227.023 56.338C229.116 53.4318 230.598 49.9588 231.078 46.2533L231.252 44.8583L231.303 43.4633L231.325 42.7658L231.288 42.0682L231.201 40.6878C231.158 40.23 231.063 39.7796 230.998 39.3218C230.918 38.8713 230.881 38.4136 230.743 37.9777C230.504 37.0985 230.322 36.2048 229.973 35.3693C228.76 31.9762 226.762 28.961 224.306 26.5923C221.828 24.231 218.908 22.5236 215.892 21.4991C212.877 20.4746 209.775 20.1259 206.861 20.3439C203.948 20.5546 201.237 21.332 198.876 22.4364C197.677 22.9668 196.617 23.657 195.585 24.3109C194.618 25.0593 193.659 25.7423 192.853 26.5415C189.562 29.6803 187.818 33.2041 186.939 35.9578L186.982 35.9142C184.926 36.9241 183.342 37.7016 182.252 38.232C181.736 38.4863 181.337 38.6824 181.053 38.8278C180.785 38.9585 180.661 39.0312 180.661 39.0312C180.661 39.0312 180.814 38.9658 181.09 38.835C181.38 38.7042 181.787 38.5081 182.318 38.261C183.4 37.7524 184.984 37.0113 187.04 36.0523C187.062 36.045 187.077 36.0232 187.084 36.0087C187.985 33.284 189.736 29.8038 193.013 26.7159C193.812 25.9312 194.771 25.2627 195.73 24.5216C196.755 23.8822 197.801 23.1993 198.992 22.6834C201.325 21.6008 204.006 20.8452 206.876 20.649C209.746 20.4456 212.804 20.7943 215.776 21.8115C218.748 22.8215 221.618 24.5144 224.052 26.8394C226.464 29.1789 228.426 32.1433 229.617 35.4855C229.959 36.3066 230.14 37.1857 230.373 38.0503C230.504 38.479 230.54 38.9295 230.62 39.3727C230.685 39.8159 230.772 40.2664 230.816 40.7168L230.896 42.0755L230.932 42.7585L230.911 43.4415L230.86 44.8147L230.685 46.1879C230.213 49.8353 228.753 53.2501 226.696 56.1128C224.633 58.9682 221.974 61.3078 219.002 62.8481C216.045 64.4102 212.834 65.253 209.717 65.4201C206.592 65.5945 203.57 65.1077 200.874 64.1414C198.171 63.175 195.803 61.7292 193.856 60.0581C192.846 59.2516 192.032 58.2998 191.218 57.4206C190.441 56.4979 189.765 55.5461 189.191 54.587C186.866 50.7362 186.125 46.9072 185.98 44.0227C185.98 43.9791 185.943 43.9428 185.9 43.9501C185.863 43.9501 185.834 43.9791 185.827 44.0154V44.03L185.958 43.9864C184.25 42.3879 182.935 41.1528 182.042 40.31C181.598 39.8958 181.257 39.5834 181.017 39.3581C180.785 39.1402 180.654 39.0312 180.654 39.0312L180.676 39.0385Z" fill="#263238"/>
<path d="M208.627 57.5079C216.014 57.5079 222.003 51.5192 222.003 44.1317C222.003 36.7443 216.014 30.7556 208.627 30.7556C201.239 30.7556 195.25 36.7443 195.25 44.1317C195.25 51.5192 201.239 57.5079 208.627 57.5079Z" fill="#22983C"/>
<path opacity="0.3" d="M208.627 57.5079C216.014 57.5079 222.003 51.5192 222.003 44.1317C222.003 36.7443 216.014 30.7556 208.627 30.7556C201.239 30.7556 195.25 36.7443 195.25 44.1317C195.25 51.5192 201.239 57.5079 208.627 57.5079Z" fill="black"/>
<path d="M213.689 55.0259C220.527 52.2299 223.803 44.42 221.007 37.5822C218.211 30.7443 210.401 27.4678 203.564 30.2638C196.726 33.0599 193.449 40.8697 196.245 47.7076C199.041 54.5454 206.851 57.8219 213.689 55.0259Z" fill="#22983C"/>
<path d="M214.963 48.9882C218.462 45.4897 218.462 39.8174 214.963 36.3189C211.465 32.8203 205.792 32.8203 202.294 36.3189C198.795 39.8174 198.795 45.4897 202.294 48.9882C205.792 52.4868 211.465 52.4868 214.963 48.9882Z" fill="white"/>
<path d="M208.627 47.038C211.046 47.038 213.008 45.0765 213.008 42.6568C213.008 40.2372 211.046 38.2756 208.627 38.2756C206.207 38.2756 204.245 40.2372 204.245 42.6568C204.245 45.0765 206.207 47.038 208.627 47.038Z" fill="#22983C"/>
<path d="M217.948 32.8626L217.585 30.0072L220.491 26.9048L220.695 29.9782L217.948 32.8626Z" fill="#455A64"/>
<path d="M224.182 30.5957L221.233 30.356L218.283 33.1968L221.233 33.5093L224.182 30.5957Z" fill="#455A64"/>
<path opacity="0.3" d="M209.208 42.5915L219.438 34.7809C219.089 34.265 218.646 33.7419 218.159 33.2188L209.215 41.894V42.5915H209.208Z" fill="black"/>
<path d="M220.818 29.5495C219.431 30.9372 218.043 32.325 216.655 33.7127C214.454 35.9142 212.252 38.1157 210.051 40.3172C209.542 40.8258 209.041 41.3272 208.532 41.8358C208.053 42.3153 208.801 43.0564 209.281 42.5769C210.668 41.1891 212.056 39.8014 213.444 38.4136C215.645 36.2121 217.847 34.0106 220.048 31.8091C220.557 31.3005 221.058 30.7992 221.567 30.2906C222.046 29.8111 221.298 29.07 220.818 29.5495Z" fill="#263238"/>
<path d="M144.028 49.5011L146.796 18.7382C147.239 11.0656 152.071 4.91887 159.729 5.57278L160.433 5.6745C167.525 6.69897 172.64 12.991 172.189 20.1332C171.768 26.7813 171.223 34.1269 170.671 37.6435C169.53 44.931 162.061 45.0109 162.061 45.0109C162.046 45.0109 161.56 49.4648 161.342 51.6227L160.419 56.6433L156.67 54.7469L144.028 49.4938V49.5011Z" fill="#FFBF9D"/>
<path d="M162.09 44.7711C162.09 44.7711 157.447 44.3787 152.986 40.5861C152.986 40.5861 154.483 46.4059 161.865 46.7982L162.09 44.7711Z" fill="#FF9A6C"/>
<path d="M168.971 26.4543C168.913 27.0065 168.39 27.4134 167.816 27.3625C167.234 27.3117 166.82 26.8176 166.878 26.2654C166.936 25.7132 167.46 25.3063 168.033 25.3572C168.615 25.4081 169.036 25.9021 168.971 26.4543Z" fill="#263238"/>
<path d="M170.199 22.8869C170.053 23.0032 169.341 22.3057 168.222 22.1458C167.104 21.9714 166.195 22.4292 166.094 22.2766C166.043 22.2039 166.21 21.9787 166.602 21.768C166.995 21.5573 167.634 21.3902 168.331 21.4992C169.029 21.6009 169.581 21.9424 169.879 22.2548C170.184 22.5672 170.264 22.8288 170.191 22.8869H170.199Z" fill="#263238"/>
<path d="M159.169 25.132C159.111 25.6842 158.588 26.0911 158.014 26.0403C157.433 25.9894 157.011 25.4953 157.077 24.9431C157.135 24.391 157.658 23.9841 158.232 24.0349C158.813 24.0858 159.235 24.5799 159.169 25.132Z" fill="#263238"/>
<path d="M159.162 21.5573C159.01 21.6735 158.305 20.976 157.186 20.8162C156.067 20.6418 155.159 21.0995 155.057 20.9469C155.006 20.8743 155.173 20.649 155.573 20.4456C155.965 20.2349 156.605 20.0678 157.302 20.1768C158 20.2785 158.552 20.6272 158.85 20.9324C159.155 21.2448 159.235 21.5064 159.162 21.5645V21.5573Z" fill="#263238"/>
<path d="M161.945 30.7629C161.945 30.6975 162.664 30.6757 163.812 30.6975C164.103 30.7121 164.379 30.6975 164.459 30.5014C164.553 30.3052 164.481 29.9782 164.393 29.6222C164.226 28.8884 164.045 28.1255 163.863 27.319C163.136 24.0422 162.65 21.3684 162.78 21.3393C162.911 21.3103 163.609 23.9405 164.343 27.2173C164.517 28.0238 164.684 28.7939 164.837 29.5278C164.895 29.8693 165.033 30.2689 164.822 30.6758C164.713 30.8792 164.481 31.0027 164.292 31.0245C164.103 31.0536 163.936 31.0318 163.798 31.0245C162.65 30.9228 161.945 30.8283 161.952 30.7629H161.945Z" fill="#263238"/>
<path d="M160.034 18.0988C159.838 18.3603 158.792 17.9026 157.476 17.6846C156.161 17.4376 155.021 17.5102 154.926 17.1978C154.89 17.0452 155.151 16.82 155.645 16.6602C156.14 16.4931 156.881 16.4131 157.673 16.5512C158.465 16.6892 159.126 17.0162 159.54 17.3431C159.954 17.6701 160.121 17.968 160.034 18.0988Z" fill="#263238"/>
<path d="M170.729 19.5956C170.46 19.8208 169.581 19.4357 168.484 19.2831C167.387 19.0942 166.428 19.1959 166.246 18.898C166.166 18.76 166.348 18.5202 166.784 18.3313C167.22 18.1424 167.91 18.0334 168.666 18.1497C169.421 18.2659 170.046 18.5856 170.395 18.8908C170.751 19.2032 170.845 19.4793 170.722 19.5956H170.729Z" fill="#263238"/>
<path d="M146.643 23.9767C146.527 23.904 141.841 21.7679 141.281 26.7812C140.722 31.7946 145.873 31.3223 145.895 31.1843C145.917 31.0389 146.643 23.9767 146.643 23.9767Z" fill="#FFBF9D"/>
<path d="M144.573 29.1136C144.573 29.1136 144.478 29.1644 144.326 29.2153C144.173 29.2662 143.919 29.2807 143.672 29.1572C143.163 28.9029 142.814 28.0092 142.887 27.1083C142.923 26.6505 143.069 26.2291 143.272 25.8876C143.468 25.5389 143.73 25.3064 144.006 25.2918C144.275 25.2628 144.449 25.4444 144.493 25.5897C144.544 25.735 144.5 25.8368 144.529 25.844C144.544 25.8586 144.645 25.7714 144.631 25.5607C144.624 25.4589 144.573 25.3354 144.471 25.2264C144.362 25.1175 144.188 25.0448 143.999 25.0448C143.606 25.0303 143.221 25.3427 142.996 25.7205C142.756 26.0983 142.582 26.5706 142.538 27.0865C142.458 28.1036 142.865 29.1063 143.57 29.3969C143.911 29.5277 144.217 29.4551 144.384 29.3533C144.551 29.2444 144.594 29.1354 144.573 29.1281V29.1136Z" fill="#FF9A6C"/>
<path d="M183.023 14.3206C182.979 14.0155 182.79 13.7467 182.543 13.565C182.005 13.1581 181.344 13.1291 180.705 13.0491C179.114 12.8457 177.588 12.2572 176.251 11.378C176.774 11.1819 177.268 10.9348 177.704 10.5861C178.605 9.86678 179.215 8.68248 178.968 7.56356C178.925 7.35286 178.83 7.12762 178.627 7.04043C178.314 6.90238 177.995 7.19301 177.733 7.41825C176.89 8.16661 176.164 8.44997 175.059 8.21021C174.376 8.06489 173.723 7.83239 173.221 7.43278C173.199 7.41098 173.185 7.38192 173.163 7.35286C172.931 7.05496 172.705 6.7716 172.487 6.48824C170.816 4.40299 169.341 2.92079 167.75 2.06344C165.418 0.79921 161.364 -0.0654059 158.741 0.31241C156.111 0.690225 153.582 2.49938 152.935 5.0787C151.642 3.70548 149.492 3.47298 147.668 3.97431L147.624 3.95252C145.604 4.42479 144.267 6.35019 143.468 8.26107C143.425 8.36278 143.388 8.47177 143.345 8.58076C142.567 9.54709 141.579 10.3391 140.438 10.8331C140.235 10.9203 140.01 11.0293 139.959 11.2473C139.915 11.458 140.075 11.6541 140.235 11.7995C140.664 12.1845 141.18 12.4679 141.732 12.6277C141.499 13.0782 141.238 13.5142 140.933 13.921C140.671 14.2698 140.359 14.6839 140.511 15.0908C140.627 15.4032 140.991 15.5703 141.325 15.5631C141.659 15.5485 141.972 15.4032 142.277 15.2579C142.001 15.752 141.724 16.246 141.448 16.7401C142.139 16.9436 142.872 16.9654 143.577 16.8418C143.781 18.7382 143.701 22.2039 144.035 23.5117C145.365 23.6861 145.706 23.5771 146.345 23.875C147.181 24.2601 146.672 25.7641 147.857 25.4517C148.46 25.2918 149.586 23.2138 149.848 22.6544C151.569 18.9126 152.463 14.7929 152.463 10.6805C153.364 9.91764 154.418 9.32185 155.537 8.9513L155.442 9.0167C157.571 8.53716 159.969 8.10122 161.807 9.28553C163.231 10.201 163.936 11.8721 164.924 13.2453C166.791 15.8537 169.065 17.394 172.24 17.8954C172.277 20.1405 171.95 23.7733 171.819 25.8513L174.05 21.9205V21.9351C174.217 21.7098 174.362 21.4773 174.507 21.2448L174.558 21.1722C174.783 20.7871 175.001 20.4165 175.27 20.0533C175.27 20.0533 175.285 20.0678 175.285 20.0751C176.295 21.1867 178.111 19.8716 177.37 18.5638C177.225 18.3022 177.036 18.0697 176.818 17.8663C177.275 18.404 178.009 18.7236 178.707 18.5929C179.404 18.4621 180 17.8445 180.022 17.1397C180.036 16.6602 179.746 16.1952 179.332 15.9554C180.225 16.1298 181.177 16.0353 182.013 15.6793C182.565 15.4468 183.124 15.0181 183.023 14.3497V14.3206Z" fill="#263238"/>
<path d="M155.137 6.16125C155.137 6.16125 154.81 6.3211 154.323 6.74978C153.844 7.17845 153.277 7.95588 152.921 9.06026C152.739 9.60519 152.601 10.23 152.521 10.9057C152.441 11.5815 152.412 12.308 152.376 13.0782C152.34 13.8483 152.303 14.6548 152.158 15.4904C152.085 15.9045 151.984 16.3259 151.846 16.7401C151.707 17.147 151.548 17.5902 151.184 17.9099C150.901 18.1714 150.465 18.2586 150.109 18.1424C149.753 18.0334 149.448 17.8009 149.237 17.5102C148.83 16.9072 148.787 16.1952 148.743 15.563L148.896 15.5994C148.583 16.1225 148.264 16.6384 147.828 17.038C147.399 17.4376 146.847 17.6628 146.309 17.6556C146.04 17.6556 145.779 17.5756 145.568 17.4376C145.35 17.2995 145.205 17.0888 145.11 16.8709C145.023 16.6529 144.994 16.4204 145.03 16.2024C145.067 15.9845 145.176 15.7883 145.328 15.6575L145.401 15.7374C144.761 16.3187 144.122 16.5948 143.693 16.7401C143.475 16.8127 143.301 16.8491 143.185 16.8709C143.069 16.8927 143.003 16.8999 143.003 16.8927C143.003 16.8927 143.061 16.8709 143.178 16.8418C143.294 16.8127 143.461 16.7619 143.679 16.682C144.1 16.5221 144.725 16.2315 145.335 15.6575L145.408 15.7374C145.132 15.9699 145.067 16.4277 145.234 16.82C145.321 17.0162 145.452 17.2051 145.648 17.3213C145.837 17.4449 146.077 17.5102 146.324 17.5102C146.818 17.5102 147.334 17.2995 147.733 16.9217C148.14 16.5439 148.452 16.0426 148.765 15.5122L148.896 15.287L148.917 15.5485C148.961 16.1734 149.012 16.8636 149.39 17.4085C149.579 17.6701 149.855 17.8808 150.167 17.9753C150.48 18.077 150.836 18.0043 151.083 17.7791C151.395 17.503 151.555 17.0816 151.693 16.682C151.831 16.2751 151.925 15.8682 151.998 15.4541C152.143 14.633 152.18 13.8265 152.223 13.0637C152.26 12.2935 152.296 11.5669 152.383 10.8839C152.47 10.201 152.623 9.57613 152.812 9.01667C153.182 7.89775 153.785 7.12033 154.287 6.69892C154.795 6.27751 155.144 6.16125 155.144 6.16125H155.137Z" fill="#455A64"/>
<path d="M177.021 15.8828C177.021 15.8828 176.999 15.8973 176.956 15.9264C176.905 15.9554 176.84 15.9918 176.76 16.0426C176.672 16.0935 176.563 16.1516 176.425 16.2097C176.287 16.2679 176.135 16.3405 175.953 16.3914C175.234 16.6384 174.108 16.8346 172.749 16.6021C171.405 16.3696 169.835 15.7084 168.506 14.466C167.162 13.2453 166.05 11.5452 165.2 9.64883C164.764 8.69703 164.437 7.73796 164.052 6.84428C163.674 5.9506 163.231 5.10778 162.664 4.42481C162.105 3.73457 161.429 3.19691 160.695 2.89901C160.332 2.74643 159.954 2.67378 159.598 2.64471C159.235 2.62292 158.886 2.65924 158.552 2.72464C157.898 2.86268 157.346 3.15331 156.917 3.473C156.488 3.79269 156.183 4.14144 155.965 4.45387C155.558 5.09325 155.486 5.52192 155.464 5.50739C155.464 5.50739 155.464 5.47833 155.478 5.43474C155.493 5.37661 155.515 5.30395 155.537 5.21676C155.595 5.02786 155.711 4.75176 155.907 4.41754C156.118 4.09785 156.423 3.7273 156.859 3.40034C157.288 3.07339 157.847 2.76096 158.523 2.60838C158.857 2.53573 159.22 2.49213 159.598 2.51393C159.976 2.54299 160.368 2.61565 160.746 2.76823C161.502 3.06612 162.206 3.61831 162.78 4.32309C163.362 5.02059 163.812 5.87794 164.197 6.77889C164.59 7.67983 164.917 8.6389 165.345 9.57617C166.188 11.458 167.278 13.1364 168.6 14.3497C169.901 15.5849 171.434 16.2461 172.756 16.4858C174.086 16.7329 175.205 16.5585 175.917 16.3333C176.636 16.108 176.999 15.8683 177.007 15.8901L177.021 15.8828Z" fill="#455A64"/>
<path d="M178.06 12.7367C178.06 12.7367 177.966 12.8021 177.777 12.8893C177.588 12.9838 177.312 13.0855 176.956 13.1945C176.6 13.3035 176.164 13.3979 175.677 13.456C175.19 13.5069 174.645 13.5287 174.079 13.4851C173.512 13.4342 172.974 13.3253 172.502 13.1945C172.03 13.0564 171.616 12.8893 171.281 12.7295C170.947 12.5624 170.686 12.4171 170.518 12.2935C170.344 12.1773 170.257 12.1046 170.264 12.0974C170.279 12.0683 170.664 12.3226 171.332 12.6205C171.666 12.7731 172.081 12.9184 172.546 13.0492C173.011 13.1727 173.534 13.2671 174.093 13.318C174.653 13.3616 175.183 13.3471 175.662 13.3035C176.142 13.2526 176.571 13.1727 176.927 13.0782C177.639 12.8966 178.053 12.7077 178.067 12.7367H178.06Z" fill="#455A64"/>
<path d="M161.487 34.1778C161.451 33.9889 160.216 34.3231 159.053 33.5166C157.891 32.7028 157.665 31.3587 157.491 31.395C157.411 31.395 157.331 31.751 157.469 32.3105C157.6 32.8554 157.992 33.6038 158.704 34.1051C159.416 34.5992 160.208 34.6791 160.724 34.5846C161.255 34.4902 161.516 34.2722 161.487 34.185V34.1778Z" fill="#263238"/>
<path d="M127.469 45.0327C127.469 45.0327 122.594 42.9039 118.736 47.0308C114.878 51.1649 100.666 78.7963 98.7988 84.0131C95.7181 92.5866 102.352 99.9177 107.874 100.216C113.396 100.513 135.004 93.5675 135.004 93.5675L130.303 81.1722L116.512 82.2766L127.208 60.7992L127.476 45.04L127.469 45.0327Z" fill="#455A64"/>
<path d="M151.09 69.3582C151.09 69.3582 156.408 96.3139 158.944 98.4936C161.48 100.673 181.482 109.632 181.482 109.632L187.476 99.8959L171.579 90.2034L171.499 69.7433C171.339 63.9671 169.022 60.356 166.377 58.4233L151.097 69.3655L151.09 69.3582Z" fill="#455A64"/>
<path d="M162.337 50.9906L158.733 55.6479L156.496 49.8717L143.788 41.6251L140.09 45.178C140.09 45.178 125.834 45.4541 124.919 46.1516C122.87 47.6992 119.128 70.775 119.128 70.775L111.913 114.296C111.303 116.04 117.363 117.261 120.872 118.118L153.204 122.746C153.204 122.746 157.048 123.655 158.138 121.286C159.017 119.375 160.855 99.271 162.715 88.2999C163.209 85.3936 163.652 75.0182 163.652 75.0182L167.249 58.9683L163.354 56.033L162.345 50.9833L162.337 50.9906Z" fill="#455A64"/>
<path d="M121.519 72.3589C121.569 72.3807 121.33 72.9547 120.901 73.8702C120.48 74.7857 119.869 76.0354 119.172 77.4013C118.481 78.7745 117.828 80.0024 117.348 80.8888C116.868 81.7753 116.542 82.3056 116.491 82.2766C116.447 82.2548 116.687 81.6735 117.108 80.7653C117.53 79.8498 118.14 78.6074 118.83 77.2342C119.52 75.8683 120.167 74.6404 120.654 73.7539C121.141 72.8675 121.46 72.3371 121.511 72.3589H121.519Z" fill="#263238"/>
<path d="M155.769 50.046C155.769 50.046 155.326 50.6055 154.497 51.4846C153.669 52.3638 152.485 53.5917 151.083 55.0157L150.974 55.1247L150.85 55.0303C149.949 54.34 148.975 53.5699 147.98 52.7416C145.75 50.8816 143.831 49.0797 142.494 47.7283C141.826 47.0525 141.296 46.4931 140.94 46.1007C140.584 45.7084 140.395 45.4759 140.416 45.4614C140.438 45.4396 140.656 45.6357 141.049 45.999C141.492 46.4204 142.044 46.929 142.691 47.5393C144.071 48.8326 146.011 50.5982 148.234 52.4509C149.223 53.2792 150.189 54.0567 151.075 54.7542L150.843 54.7687C152.26 53.3592 153.48 52.1676 154.352 51.332C155.224 50.4965 155.754 50.0242 155.776 50.0533L155.769 50.046Z" fill="#263238"/>
<path d="M165.607 65.3766C165.708 65.3911 165.512 68.0431 165.171 71.2981C164.822 74.5604 164.459 77.1906 164.357 77.1833C164.255 77.1688 164.451 74.5241 164.793 71.2618C165.142 67.9995 165.505 65.3693 165.607 65.3766Z" fill="#263238"/>
<path d="M180.145 96.6263C180.145 96.6263 184.112 89.9492 184.948 90.2107C185.783 90.4723 186.212 92.2088 185.711 93.4876C185.209 94.7663 183.807 99.8959 183.807 99.8959L180.145 96.6263Z" fill="#FFBF9D"/>
<path d="M181.475 212.826L177.537 230.591C177.537 230.591 194.495 239.259 194.081 242.608L159.14 237.515L164.139 209.586L181.468 212.826H181.475Z" fill="#455A64"/>
<g opacity="0.6">
<path d="M167.074 227.111C166.369 227.169 165.766 227.837 165.795 228.549C165.825 229.254 166.5 229.879 167.212 229.828C167.917 229.777 168.665 229 168.556 228.302C168.447 227.605 167.612 226.914 166.936 227.132" fill="white"/>
</g>
<g opacity="0.6">
<path d="M159.14 237.515L159.641 234.696L193.209 240.792C193.209 240.792 194.255 241.446 194.219 242.884L159.14 237.508V237.515Z" fill="white"/>
</g>
<path d="M178.125 230.518C178.089 230.685 177.224 230.605 176.294 230.998C175.35 231.361 174.783 232.022 174.638 231.921C174.485 231.862 174.928 230.889 176.069 230.438C177.203 229.973 178.191 230.366 178.125 230.511V230.518Z" fill="#263238"/>
<path d="M181.489 232.698C181.497 232.872 180.712 233.025 180 233.635C179.273 234.224 178.983 234.972 178.816 234.936C178.648 234.936 178.714 233.919 179.615 233.177C180.501 232.429 181.511 232.538 181.489 232.705V232.698Z" fill="#263238"/>
<path d="M182.754 237.435C182.594 237.442 182.514 236.549 183.117 235.706C183.72 234.856 184.584 234.638 184.628 234.79C184.701 234.95 184.09 235.35 183.604 236.055C183.102 236.745 182.921 237.45 182.746 237.435H182.754Z" fill="#263238"/>
<path d="M178.576 226.37C178.474 226.508 177.74 226.137 176.774 226.021C175.808 225.89 175.001 226.072 174.943 225.912C174.87 225.774 175.713 225.28 176.854 225.425C177.995 225.563 178.692 226.253 178.583 226.37H178.576Z" fill="#263238"/>
<g opacity="0.3">
<path d="M180.69 216.343L179.985 219.511L162.955 216.212L163.463 213.335L180.69 216.343Z" fill="black"/>
</g>
<path d="M125.914 244.962L123.655 263.018C123.655 263.018 141.347 270.058 141.252 273.437L105.992 271.635L108.353 243.357L125.914 244.962Z" fill="#455A64"/>
<g opacity="0.6">
<path d="M112.916 260.533C112.218 260.656 111.681 261.383 111.775 262.08C111.87 262.785 112.603 263.337 113.301 263.221C113.998 263.105 114.674 262.262 114.5 261.572C114.325 260.889 113.432 260.278 112.778 260.562" fill="white"/>
</g>
<g opacity="0.6">
<path d="M105.992 271.635L106.231 268.787L140.22 271.715C140.22 271.715 141.325 272.267 141.419 273.705L105.992 271.642V271.635Z" fill="white"/>
</g>
<path d="M124.243 262.894C124.221 263.069 123.357 263.069 122.463 263.548C121.555 263.999 121.053 264.703 120.901 264.623C120.748 264.573 121.09 263.57 122.187 263.01C123.277 262.444 124.294 262.742 124.243 262.894Z" fill="#263238"/>
<path d="M127.796 264.747C127.818 264.914 127.048 265.139 126.401 265.815C125.733 266.469 125.515 267.246 125.347 267.217C125.18 267.232 125.151 266.214 125.972 265.393C126.786 264.565 127.803 264.58 127.789 264.747H127.796Z" fill="#263238"/>
<path d="M129.496 269.346C129.336 269.368 129.177 268.489 129.7 267.588C130.216 266.68 131.058 266.382 131.124 266.534C131.211 266.687 130.644 267.145 130.223 267.886C129.787 268.619 129.671 269.339 129.503 269.346H129.496Z" fill="#263238"/>
<path d="M124.301 258.724C124.214 258.876 123.451 258.564 122.47 258.549C121.497 258.506 120.712 258.767 120.632 258.615C120.545 258.484 121.337 257.91 122.485 257.953C123.633 257.982 124.388 258.6 124.294 258.731L124.301 258.724Z" fill="#263238"/>
<g opacity="0.3">
<path d="M125.464 248.537L125.064 251.756L107.794 250.07L108.033 247.157L125.464 248.537Z" fill="black"/>
</g>
<path d="M108.805 32.2279C109.624 24.8457 104.304 18.1973 96.9212 17.3784C89.539 16.5595 82.8906 21.8801 82.0717 29.2624C81.2527 36.6446 86.5734 43.293 93.9557 44.1119C101.338 44.9309 107.986 39.6102 108.805 32.2279Z" fill="#22983C"/>
<path d="M259.123 186.147L245.696 154.991L108.237 24.4344L90.1018 44.4805L226.827 174.057L259.123 186.147Z" fill="#22983C"/>
<g opacity="0.8">
<path d="M226.827 174.057C227.038 172.727 228.193 171.797 229.458 172.269C228.099 170.162 228.237 167.198 229.799 165.236C231.354 163.274 234.217 162.461 236.571 163.311C236.069 160.884 236.963 158.217 238.823 156.583C240.69 154.948 243.451 154.41 245.791 155.231L259.116 186.154L226.827 174.057Z" fill="#F7FBF2"/>
</g>
<path d="M253.725 173.621C253.725 173.621 247.397 172.16 245.893 181.199L259.123 186.154L253.725 173.621Z" fill="#263238"/>
<path opacity="0.2" d="M236.571 163.303L100.274 35.0133L108.847 25.052L245.696 154.991L245.798 155.224C245.798 155.224 244.447 154.672 242.717 154.875C241.562 155.013 240.167 155.471 238.983 156.445C237.457 157.694 236.752 159.307 236.527 160.666C236.28 162.134 236.571 163.303 236.571 163.303Z" fill="black"/>
<path opacity="0.3" d="M229.465 172.269L92.3833 42.0465L90.1091 44.6767L226.827 174.049C226.827 174.049 227.053 172.102 228.971 172.139C229.123 172.139 229.283 172.218 229.458 172.262L229.465 172.269Z" fill="black"/>
<path d="M243.793 165.243C243.793 165.243 243.742 165.091 243.502 165.018C243.284 164.938 242.819 164.996 242.623 165.454C242.434 165.883 242.441 166.515 242.601 167.161C242.696 167.481 242.863 167.815 243.153 168.055C243.437 168.295 243.858 168.44 244.251 168.302C244.643 168.179 244.933 167.801 245.115 167.379C245.304 166.958 245.384 166.471 245.449 165.97C245.558 164.975 245.522 163.856 245.181 162.788C244.999 162.264 244.679 161.741 244.142 161.523C243.611 161.305 242.972 161.451 242.492 161.792C241.519 162.533 241.134 163.892 241.025 165.163C240.836 167.779 242.194 170.315 244.163 171.412C244.657 171.666 245.231 171.688 245.711 171.463C246.19 171.245 246.568 170.867 246.873 170.475C247.476 169.668 247.898 168.804 248.181 167.997C248.755 166.362 248.799 164.931 248.748 163.972C248.712 163.492 248.661 163.115 248.617 162.867C248.574 162.613 248.559 162.482 248.559 162.482C248.559 162.482 248.726 162.998 248.821 163.972C248.893 164.938 248.879 166.384 248.312 168.041C248.029 168.869 247.615 169.741 247.004 170.576C246.692 170.983 246.299 171.383 245.784 171.623C245.275 171.877 244.621 171.848 244.091 171.579C242.034 170.438 240.647 167.852 240.843 165.163C240.887 164.495 241.039 163.841 241.272 163.231C241.511 162.628 241.86 162.039 242.39 161.661C242.914 161.284 243.618 161.124 244.221 161.371C244.824 161.618 245.173 162.199 245.355 162.744C245.704 163.863 245.733 164.982 245.616 166.006C245.551 166.515 245.464 167.009 245.26 167.459C245.064 167.895 244.752 168.309 244.301 168.448C243.851 168.593 243.393 168.426 243.088 168.164C242.776 167.903 242.601 167.539 242.507 167.205C242.354 166.522 242.354 165.897 242.565 165.44C242.783 164.953 243.299 164.902 243.524 164.996C243.778 165.098 243.807 165.272 243.807 165.258L243.793 165.243Z" fill="white"/>
<path d="M240.276 178.787C240.276 178.787 240.443 178.438 240.61 177.769C240.785 177.101 240.872 176.091 240.683 174.878C240.509 173.657 240.022 172.262 239.404 170.743C238.816 169.225 238.089 167.525 237.995 165.599C237.908 163.681 238.445 161.865 239.303 160.455C240.153 159.031 241.33 158.036 242.398 157.404C243.473 156.764 244.461 156.481 245.137 156.343C245.82 156.205 246.205 156.205 246.205 156.205C246.205 156.205 246.111 156.227 245.929 156.256C245.747 156.285 245.486 156.328 245.152 156.408C244.483 156.568 243.517 156.873 242.463 157.513C241.417 158.152 240.276 159.14 239.448 160.542C238.62 161.93 238.089 163.718 238.176 165.592C238.264 167.474 238.976 169.16 239.557 170.685C240.167 172.204 240.647 173.621 240.807 174.863C240.981 176.098 240.872 177.13 240.669 177.798C240.472 178.467 240.262 178.801 240.262 178.801L240.276 178.787Z" fill="white"/>
<path d="M232.793 176.411C232.749 176.382 233.628 176.135 234.122 174.936C234.594 173.773 234.747 171.993 234.82 170.075C234.871 168.142 234.689 166.391 234.485 165.142C234.391 164.517 234.282 164.016 234.217 163.667C234.144 163.318 234.108 163.129 234.122 163.122C234.137 163.122 234.195 163.303 234.289 163.652C234.384 163.994 234.5 164.495 234.616 165.127C234.856 166.377 235.059 168.142 235.009 170.09C234.987 171.063 234.907 171.986 234.791 172.822C234.674 173.657 234.515 174.413 234.246 175.001C233.984 175.597 233.599 175.982 233.301 176.186C232.996 176.382 232.8 176.418 232.8 176.418L232.793 176.411Z" fill="white"/>
<path d="M230.569 164.466C230.569 164.466 230.773 164.844 230.998 165.498C231.209 166.152 231.485 167.103 231.354 168.179C231.245 169.261 230.613 170.133 230.002 170.489C229.705 170.678 229.428 170.765 229.232 170.802C229.036 170.838 228.927 170.831 228.927 170.816C228.92 170.78 229.37 170.765 229.923 170.373C230.482 170.002 231.056 169.189 231.158 168.15C231.281 167.118 231.041 166.188 230.86 165.527C230.671 164.866 230.533 164.459 230.562 164.451L230.569 164.466Z" fill="white"/>
<path d="M244.563 180.763C244.563 180.763 244.534 180.712 244.498 180.61C244.461 180.509 244.41 180.363 244.352 180.167C244.301 179.971 244.229 179.724 244.258 179.433C244.28 179.135 244.41 178.816 244.592 178.511C244.948 177.871 245.508 177.217 246.06 176.454C246.612 175.691 247.142 174.79 247.615 173.81C248.566 171.841 249.14 169.937 249.555 168.571C249.729 167.975 249.889 167.438 250.041 166.944C250.158 166.558 250.23 166.348 250.238 166.355C250.252 166.355 250.201 166.573 250.114 166.965C250.02 167.358 249.874 167.917 249.685 168.615C249.3 169.995 248.748 171.913 247.782 173.897C247.302 174.885 246.765 175.793 246.198 176.556C245.631 177.326 245.064 177.966 244.701 178.576C244.28 179.172 244.301 179.767 244.418 180.153C244.512 180.538 244.57 180.756 244.556 180.763H244.563Z" fill="white"/>
<path d="M102.712 18.777L83.5899 38.0126C83.3211 38.2829 83.3224 38.7199 83.5928 38.9887L89.5237 44.8845C89.7941 45.1533 90.2311 45.152 90.4998 44.8816L109.622 25.6461C109.89 25.3757 109.889 24.9387 109.619 24.67L103.688 18.7741C103.417 18.5054 102.98 18.5067 102.712 18.777Z" fill="#E0E0E0"/>
<path d="M109.617 25.6623C109.617 25.6623 109.661 25.6114 109.719 25.4952C109.77 25.3862 109.828 25.19 109.748 24.9648C109.675 24.7396 109.399 24.5579 109.145 24.2963C108.876 24.0348 108.571 23.7442 108.237 23.4172C107.546 22.7415 106.718 21.935 105.752 20.9905C105.265 20.5182 104.749 20.0096 104.204 19.4719C104.066 19.3339 103.928 19.2031 103.79 19.0651C103.638 18.9197 103.529 18.7817 103.369 18.7454C103.209 18.6945 103.027 18.7236 102.889 18.818C102.766 18.9125 102.599 19.1014 102.46 19.2394C97.6506 24.1002 91.0388 30.7773 83.7295 38.1593C83.5552 38.3264 83.5334 38.617 83.6787 38.8059C83.8531 39.0021 84.1219 39.2491 84.3326 39.4671C84.7903 39.9176 85.2408 40.368 85.6913 40.8185C86.585 41.7122 87.4714 42.5913 88.3432 43.456C88.7792 43.8919 89.2079 44.3206 89.6365 44.742C89.7964 44.9236 90.0507 44.9599 90.2469 44.8655C90.2977 44.8437 90.3413 44.8074 90.3776 44.771L90.5375 44.6112L90.8499 44.2988C91.6855 43.4632 92.4992 42.6495 93.2912 41.8502C96.4735 38.6679 99.3435 35.8052 101.756 33.393C104.161 31.0098 106.115 29.0772 107.488 27.7112C108.157 27.0646 108.68 26.5487 109.058 26.1782C109.225 26.0183 109.363 25.8875 109.472 25.7858C109.566 25.6986 109.617 25.655 109.624 25.6623C109.624 25.6623 109.588 25.7204 109.501 25.8149C109.399 25.9239 109.268 26.0619 109.109 26.229C108.738 26.6141 108.229 27.1372 107.59 27.8129C106.239 29.1934 104.313 31.1624 101.945 33.5746C99.5469 36.0086 96.6988 38.8858 93.5382 42.09C92.7463 42.8892 91.9325 43.7103 91.1042 44.5458L90.7918 44.8582L90.6319 45.0181C90.5665 45.0835 90.4866 45.1416 90.4067 45.1852C90.0725 45.3668 89.6147 45.2724 89.375 44.9963C88.9463 44.5749 88.5176 44.1462 88.0817 43.7103C87.2098 42.8456 86.3234 41.9665 85.4297 41.0728C84.9792 40.6296 84.5288 40.1791 84.071 39.7287C83.8385 39.4889 83.6278 39.3072 83.3735 39.0166C83.1265 38.6824 83.1701 38.1738 83.468 37.8832C90.8063 30.5376 97.4472 23.8822 102.279 19.0433C102.446 18.8907 102.548 18.7526 102.751 18.5928C102.955 18.4547 103.223 18.4184 103.449 18.4911C103.696 18.5637 103.841 18.7526 103.972 18.8834C104.11 19.0215 104.248 19.1595 104.386 19.2976C104.924 19.8425 105.432 20.3584 105.912 20.8379C106.856 21.797 107.677 22.6252 108.353 23.3082C108.68 23.6424 108.978 23.9476 109.239 24.2164C109.479 24.4853 109.755 24.6742 109.835 24.943C109.915 25.2046 109.835 25.408 109.77 25.517C109.697 25.626 109.639 25.6623 109.639 25.6623H109.617Z" fill="#263238"/>
<path d="M85.8876 35.9796C85.9602 35.907 87.5587 37.3092 89.4478 39.1184C91.3441 40.9276 92.819 42.4606 92.7537 42.5333C92.6883 42.6059 91.0825 41.2037 89.1862 39.3945C87.2899 37.5853 85.8149 36.0523 85.8876 35.9796Z" fill="#263238"/>
<path d="M92.95 28.4233C93.0226 28.3434 94.6792 29.7965 96.7281 31.5694C98.777 33.3494 100.441 34.7808 100.375 34.868C100.31 34.9479 98.53 33.6401 96.4811 31.86C94.4249 30.0799 92.8846 28.5032 92.9572 28.4233H92.95Z" fill="#263238"/>
<path d="M108.535 26.665C108.462 26.7377 106.827 25.3354 104.88 23.5263C102.933 21.7171 101.414 20.184 101.487 20.1114C101.553 20.0315 103.195 21.441 105.142 23.2502C107.089 25.0593 108.615 26.5924 108.535 26.665Z" fill="#263238"/>
<path d="M152.441 68.5008C152.441 68.5008 145.968 69.1983 144.028 69.4744C142.088 69.7505 139.472 70.2809 138.571 71.8212C138.201 72.446 132.526 80.7507 132.526 80.7507L130.361 81.361L133.827 90.8936L139.69 87.9801C139.69 87.9801 141.681 85.7495 143.272 83.6352C144.863 81.5209 145.343 80.758 145.343 80.758C145.343 80.758 151.148 81.0268 152.325 80.0241C152.972 79.472 152.579 78.4911 152.579 78.4911L146.251 77.9316C146.251 77.9316 153.131 77.9098 154.272 77.1542C154.374 77.0888 154.461 77.0162 154.541 76.9362C155.202 76.2751 154.686 75.1343 153.749 75.1271L146.345 75.0762C146.345 75.0762 154.846 74.3061 155.035 73.3543C155.071 73.1871 155.086 73.0346 155.093 72.8892C155.13 72.2789 154.635 71.7703 154.025 71.7921L147.086 72.0101C147.086 72.0101 153.8 70.9348 153.858 69.9975C153.982 68.2174 152.441 68.5008 152.441 68.5008Z" fill="#FFBF9D"/>
<path d="M108.578 86.9193C110.315 84.2673 113.345 82.5889 116.505 82.2838C116.81 82.2547 130.622 80.7798 130.622 80.7798L134.851 94.0033L114.565 99.2855" fill="#455A64"/>
<path d="M114.566 99.2782C114.566 99.2782 114.697 99.22 114.951 99.1474C115.234 99.0675 115.605 98.9585 116.07 98.8277C117.087 98.5516 118.504 98.1592 120.277 97.6797C123.909 96.7134 128.966 95.3765 134.808 93.8289L134.684 94.0614C133.893 91.5911 133.035 88.9246 132.149 86.1563C131.568 84.3326 131.001 82.5598 130.456 80.8451L130.652 80.9759C127.295 81.3247 124.149 81.6516 121.301 81.9495C119.884 82.0948 118.54 82.2329 117.29 82.3564C116.033 82.4581 114.907 82.6397 113.912 82.9958C111.921 83.6787 110.57 84.7613 109.756 85.5678C108.942 86.3961 108.615 86.9483 108.586 86.9265C108.579 86.9265 108.659 86.7812 108.826 86.5269C108.993 86.2726 109.269 85.9093 109.661 85.4734C110.461 84.6305 111.812 83.4898 113.832 82.7633C114.827 82.3782 116.012 82.182 117.261 82.0658C118.511 81.9277 119.848 81.7751 121.265 81.6225C124.106 81.3101 127.252 80.9686 130.608 80.6054L130.761 80.5908L130.805 80.7361C131.357 82.4508 131.924 84.2309 132.505 86.0473C133.384 88.8156 134.241 91.4893 135.026 93.9597L135.084 94.1413L134.895 94.1922C129.032 95.6889 123.968 96.9822 120.327 97.9122C118.547 98.3554 117.116 98.7042 116.099 98.9585C115.627 99.0674 115.256 99.1546 114.965 99.22C114.704 99.2782 114.573 99.3 114.566 99.2927V99.2782Z" fill="#263238"/>
<path d="M184.309 96.401C184.309 96.401 188.377 95.0133 189.453 95.7471C190.528 96.4809 190.891 97.6652 190.891 97.6652C190.891 97.6652 193.376 97.687 192.635 100.281C192.635 100.281 194.815 100.717 194.154 103.26C194.154 103.26 195.752 103.216 194.989 105.316C194.226 107.416 190.964 111.608 190.216 112.175C188.661 113.345 188.232 111.492 188.61 110.751C188.988 110.01 191.124 105.934 191.124 105.934C191.124 105.934 187.426 111.753 186.176 110.78C185.464 110.228 185.616 109.37 186.561 107.663C187.215 106.478 188.414 104.139 188.414 104.139L185.507 107.728C184.962 108.397 183.865 108.135 183.72 107.285C183.669 106.987 183.698 106.624 183.865 106.195C184.556 104.422 186.016 102.272 186.016 102.272L183.655 104.589C183.124 105.113 182.245 105.069 181.787 104.48C181.504 104.11 181.344 103.645 181.606 103.114C182.252 101.814 185.849 98.0285 185.849 98.0285L184.301 96.401H184.309Z" fill="#FFBF9D"/>
<path d="M114.34 115.474C114.34 115.474 110.969 132.403 114.398 139.777C117.827 147.152 126.822 150.698 136.181 153.567C148.685 157.404 170.286 169.29 170.286 169.29C170.286 169.29 167.488 181.62 165.643 188.995C163.87 196.079 158.922 221.865 158.922 221.865L181.656 224.996L197.866 166.668C197.866 166.668 202.393 154.686 192.555 148.743C184.127 143.65 154.316 123.531 154.316 123.531L152.005 118.184L114.333 115.459L114.34 115.474Z" fill="#263238"/>
<path d="M114.747 135.636L118.983 145.335L113.228 191.393C113.228 191.393 108.302 206.534 107.212 214.526C106.123 222.519 103.725 254.706 103.725 254.706H126.009C126.009 254.706 129.46 215.544 136.152 203.781C141.419 194.517 145.001 178.394 145.219 177.341C145.437 176.287 153.204 150.487 153.204 150.487L142.32 128.087L114.754 135.636H114.747Z" fill="#263238"/>
<path d="M178.147 163.907C178.191 164.016 176.135 164.735 173.962 166.253C171.775 167.757 170.395 169.443 170.3 169.363C170.264 169.334 170.562 168.876 171.15 168.215C171.739 167.554 172.633 166.718 173.744 165.941C174.856 165.171 175.953 164.626 176.774 164.299C177.595 163.972 178.133 163.856 178.147 163.899V163.907Z" fill="#455A64"/>
<path d="M181.649 225.011C181.649 225.011 181.511 225.011 181.25 224.975C180.974 224.938 180.581 224.895 180.08 224.829C179.034 224.691 177.515 224.495 175.568 224.241C171.63 223.71 165.948 222.947 158.9 222.003L158.762 221.981L158.792 221.843C160.078 215.108 161.618 207.094 163.449 198.186C163.907 195.963 164.386 193.674 164.909 191.349C165.454 189.024 166.006 186.655 166.573 184.236C167.706 179.404 168.891 174.391 170.097 169.247L170.191 169.45C168.52 168.542 166.726 167.583 164.909 166.631C159.845 163.986 154.854 161.509 149.956 159.264C145.059 157.033 140.271 154.999 135.549 153.546C130.826 152.071 126.357 150.458 122.536 148.227C120.632 147.108 118.896 145.83 117.457 144.355C116.018 142.887 114.878 141.223 114.144 139.487C113.388 137.743 113.148 135.941 112.945 134.263C112.865 133.42 112.792 132.599 112.785 131.807C112.742 131.008 112.756 130.237 112.763 129.496C112.807 126.517 113.054 123.96 113.301 121.882C113.555 119.804 113.81 118.198 114.006 117.108C114.108 116.578 114.187 116.171 114.238 115.873C114.296 115.597 114.333 115.459 114.333 115.459C114.333 115.459 114.318 115.604 114.275 115.88C114.231 116.171 114.166 116.585 114.078 117.116C113.911 118.205 113.672 119.811 113.446 121.889C113.221 123.967 112.996 126.517 112.974 129.489C112.974 130.23 112.967 131 113.01 131.792C113.025 132.584 113.098 133.398 113.185 134.234C113.388 135.89 113.643 137.677 114.391 139.378C115.125 141.078 116.244 142.705 117.668 144.144C119.092 145.59 120.807 146.847 122.703 147.951C126.496 150.153 130.949 151.751 135.665 153.211C140.409 154.665 145.219 156.692 150.124 158.922C155.021 161.167 160.027 163.645 165.091 166.29C166.907 167.241 168.709 168.193 170.38 169.109L170.504 169.174L170.475 169.312C169.261 174.464 168.077 179.477 166.936 184.309C166.37 186.721 165.81 189.089 165.258 191.414C164.735 193.739 164.248 196.014 163.783 198.244C161.938 207.145 160.361 215.151 159.046 221.879L158.937 221.727C165.977 222.722 171.652 223.521 175.583 224.081C177.53 224.364 179.041 224.582 180.087 224.735C180.589 224.815 180.981 224.873 181.257 224.916C181.519 224.96 181.649 224.989 181.649 224.989V225.011Z" fill="#455A64"/>
</svg>
