<svg width="56" height="56" viewBox="0 0 56 56" fill="none" xmlns="http://www.w3.org/2000/svg">
<g clip-path="url(#clip0_253_28457)">
<rect x="8" y="8" width="40" height="40" rx="8" fill="#2D322C" fill-opacity="0.12"/>
<g opacity="0.38">
<path d="M37.375 28C37.375 28.2984 37.2565 28.5845 37.0455 28.7955C36.8345 29.0065 36.5484 29.125 36.25 29.125H29.125V36.25C29.125 36.5484 29.0065 36.8345 28.7955 37.0455C28.5845 37.2565 28.2984 37.375 28 37.375C27.7016 37.375 27.4155 37.2565 27.2045 37.0455C26.9935 36.8345 26.875 36.5484 26.875 36.25V29.125H19.75C19.4516 29.125 19.1655 29.0065 18.9545 28.7955C18.7435 28.5845 18.625 28.2984 18.625 28C18.625 27.7016 18.7435 27.4155 18.9545 27.2045C19.1655 26.9935 19.4516 26.875 19.75 26.875H26.875V19.75C26.875 19.4516 26.9935 19.1655 27.2045 18.9545C27.4155 18.7435 27.7016 18.625 28 18.625C28.2984 18.625 28.5845 18.7435 28.7955 18.9545C29.0065 19.1655 29.125 19.4516 29.125 19.75V26.875H36.25C36.5484 26.875 36.8345 26.9935 37.0455 27.2045C37.2565 27.4155 37.375 27.7016 37.375 28Z" fill="#424940"/>
</g>
</g>
<defs>
<clipPath id="clip0_253_28457">
<rect x="8" y="8" width="40" height="40" rx="8" fill="white"/>
</clipPath>
</defs>
</svg>
