<svg width="42" height="42" viewBox="0 0 42 42" fill="none" xmlns="http://www.w3.org/2000/svg">
<rect width="42" height="42" rx="21" fill="#BAF0B6"/>
<path d="M18.375 27.8438C18.875 28.9844 19.125 30.2031 19.125 31.5C19.125 30.2031 19.3672 28.9844 19.8516 27.8438C20.3516 26.7031 21.0234 25.7109 21.8672 24.8672C22.7109 24.0234 23.7031 23.3594 24.8438 22.875C25.9844 22.375 27.2031 22.125 28.5 22.125C27.2031 22.125 25.9844 21.8828 24.8438 21.3984C23.7336 20.9198 22.7238 20.2359 21.8672 19.3828C21.0141 18.5262 20.3302 17.5164 19.8516 16.4062C19.3672 15.2656 19.125 14.0469 19.125 12.75C19.125 14.0469 18.875 15.2656 18.375 16.4062C17.8906 17.5469 17.2266 18.5391 16.3828 19.3828C15.5262 20.2359 14.5164 20.9198 13.4062 21.3984C12.2656 21.8828 11.0469 22.125 9.75 22.125C11.0469 22.125 12.2656 22.375 13.4062 22.875C14.5469 23.3594 15.5391 24.0234 16.3828 24.8672C17.2266 25.7109 17.8906 26.7031 18.375 27.8438Z" fill="#2D322C"/>
<path d="M26.985 17.745C27.245 18.2925 27.375 18.8775 27.375 19.5C27.375 18.8775 27.5009 18.2925 27.7528 17.745C28.0128 17.1975 28.3622 16.7213 28.8009 16.3162C29.2397 15.9113 29.7556 15.5925 30.3488 15.36C30.9419 15.12 31.5756 15 32.25 15C31.5756 15 30.9419 14.8837 30.3488 14.6512C29.7715 14.4215 29.2464 14.0933 28.8009 13.6837C28.3573 13.2726 28.0017 12.7879 27.7528 12.255C27.5009 11.7075 27.375 11.1225 27.375 10.5C27.375 11.1225 27.245 11.7075 26.985 12.255C26.7331 12.8025 26.3878 13.2787 25.9491 13.6837C25.5036 14.0933 24.9785 14.4215 24.4012 14.6512C23.8081 14.8837 23.1744 15 22.5 15C23.1744 15 23.8081 15.12 24.4012 15.36C24.9944 15.5925 25.5103 15.9113 25.9491 16.3162C26.3878 16.7213 26.7331 17.1975 26.985 17.745Z" fill="#2D322C"/>
</svg>
