<svg width="25" height="24" viewBox="0 0 25 24" fill="none" xmlns="http://www.w3.org/2000/svg">
<g id="Icon">
<path id="Vector" d="M21.75 11.25V20.25C21.75 20.449 21.671 20.6397 21.5303 20.7804C21.3897 20.921 21.1989 21 21 21H15.75C15.5511 21 15.3603 20.921 15.2197 20.7804C15.079 20.6397 15 20.449 15 20.25V15.375C15 15.2756 14.9605 15.1802 14.8902 15.1099C14.8198 15.0395 14.7245 15 14.625 15H10.875C10.7755 15 10.6802 15.0395 10.6098 15.1099C10.5395 15.1802 10.5 15.2756 10.5 15.375V20.25C10.5 20.449 10.421 20.6397 10.2803 20.7804C10.1397 20.921 9.94891 21 9.75 21H4.5C4.30109 21 4.11032 20.921 3.96967 20.7804C3.82902 20.6397 3.75 20.449 3.75 20.25V11.25C3.75018 10.8523 3.90834 10.4709 4.18969 10.1897L11.6897 2.68972C11.971 2.40863 12.3523 2.25073 12.75 2.25073C13.1477 2.25073 13.529 2.40863 13.8103 2.68972L21.3103 10.1897C21.5917 10.4709 21.7498 10.8523 21.75 11.25Z" fill="#181D17"/>
</g>
</svg>
