<svg width="25" height="24" viewBox="0 0 25 24" fill="none" xmlns="http://www.w3.org/2000/svg">
<path d="M19.25 15.75C18.5849 15.7506 17.9388 15.9718 17.4129 16.379C16.887 16.7862 16.511 17.3563 16.3438 18H7.25C6.45435 18 5.69129 17.6839 5.12868 17.1213C4.56607 16.5587 4.25 15.7956 4.25 15C4.25 14.2044 4.56607 13.4413 5.12868 12.8787C5.69129 12.3161 6.45435 12 7.25 12H16.25C17.2446 12 18.1984 11.6049 18.9016 10.9017C19.6049 10.1984 20 9.24456 20 8.25C20 7.25544 19.6049 6.30161 18.9016 5.59835C18.1984 4.89509 17.2446 4.5 16.25 4.5H7.25C7.05109 4.5 6.86032 4.57902 6.71967 4.71967C6.57902 4.86032 6.5 5.05109 6.5 5.25C6.5 5.44891 6.57902 5.63968 6.71967 5.78033C6.86032 5.92098 7.05109 6 7.25 6H16.25C16.8467 6 17.419 6.23705 17.841 6.65901C18.2629 7.08097 18.5 7.65326 18.5 8.25C18.5 8.84674 18.2629 9.41903 17.841 9.84099C17.419 10.2629 16.8467 10.5 16.25 10.5H7.25C6.05653 10.5 4.91193 10.9741 4.06802 11.818C3.22411 12.6619 2.75 13.8065 2.75 15C2.75 16.1935 3.22411 17.3381 4.06802 18.182C4.91193 19.0259 6.05653 19.5 7.25 19.5H16.3438C16.484 20.0432 16.7738 20.5362 17.1802 20.923C17.5866 21.3098 18.0933 21.5749 18.6427 21.6882C19.1922 21.8015 19.7625 21.7584 20.2887 21.5639C20.8149 21.3694 21.2761 21.0312 21.6197 20.5877C21.9634 20.1443 22.1758 19.6133 22.2329 19.0552C22.29 18.4971 22.1894 17.9341 21.9426 17.4303C21.6958 16.9265 21.3127 16.5019 20.8367 16.2049C20.3608 15.9079 19.811 15.7503 19.25 15.75ZM19.25 20.25C18.9533 20.25 18.6633 20.162 18.4166 19.9972C18.17 19.8324 17.9777 19.5981 17.8642 19.324C17.7506 19.0499 17.7209 18.7483 17.7788 18.4574C17.8367 18.1664 17.9796 17.8991 18.1893 17.6893C18.3991 17.4796 18.6664 17.3367 18.9574 17.2788C19.2483 17.2209 19.5499 17.2506 19.824 17.3642C20.0981 17.4777 20.3324 17.67 20.4972 17.9166C20.662 18.1633 20.75 18.4533 20.75 18.75C20.75 19.1478 20.592 19.5294 20.3107 19.8107C20.0294 20.092 19.6478 20.25 19.25 20.25Z" fill="#F7FBF2"/>
</svg>
