<svg width="25" height="24" viewBox="0 0 25 24" fill="none" xmlns="http://www.w3.org/2000/svg">
<path d="M22.5612 6.87846L17.6215 1.93971C17.4823 1.80038 17.3169 1.68986 17.1349 1.61446C16.9529 1.53905 16.7578 1.50024 16.5608 1.50024C16.3637 1.50024 16.1687 1.53905 15.9867 1.61446C15.8046 1.68986 15.6393 1.80038 15.5 1.93971L2.43873 15C2.2994 15.1393 2.18888 15.3047 2.11348 15.4867C2.03808 15.6687 1.99927 15.8638 1.99927 16.0608C1.99927 16.2578 2.03808 16.4529 2.11348 16.6349C2.18888 16.8169 2.2994 16.9823 2.43873 17.1216L7.37842 22.0603C7.51771 22.1997 7.68308 22.3102 7.86509 22.3856C8.0471 22.461 8.24219 22.4998 8.4392 22.4998C8.63621 22.4998 8.83129 22.461 9.0133 22.3856C9.19531 22.3102 9.36069 22.1997 9.49998 22.0603L22.5612 9.00002C22.7006 8.86072 22.8111 8.69535 22.8865 8.51334C22.9619 8.33133 23.0007 8.13625 23.0007 7.93924C23.0007 7.74222 22.9619 7.54714 22.8865 7.36513C22.8111 7.18312 22.7006 7.01775 22.5612 6.87846ZM8.43873 21L3.49998 16.0603L6.49998 13.0603L8.96935 15.5306C9.03904 15.6003 9.12176 15.6556 9.21281 15.6933C9.30385 15.731 9.40143 15.7504 9.49998 15.7504C9.59853 15.7504 9.69611 15.731 9.78715 15.6933C9.8782 15.6556 9.96092 15.6003 10.0306 15.5306C10.1003 15.461 10.1556 15.3782 10.1933 15.2872C10.231 15.1961 10.2504 15.0986 10.2504 15C10.2504 14.9015 10.231 14.8039 10.1933 14.7128C10.1556 14.6218 10.1003 14.5391 10.0306 14.4694L7.56029 12L9.49998 10.0603L11.9694 12.5306C12.1101 12.6714 12.301 12.7504 12.5 12.7504C12.699 12.7504 12.8899 12.6714 13.0306 12.5306C13.1713 12.3899 13.2504 12.199 13.2504 12C13.2504 11.801 13.1713 11.6101 13.0306 11.4694L10.5603 9.00002L12.5 7.06033L14.9694 9.53064C15.039 9.60033 15.1218 9.6556 15.2128 9.69331C15.3039 9.73102 15.4014 9.75043 15.5 9.75043C15.5985 9.75043 15.6961 9.73102 15.7872 9.69331C15.8782 9.6556 15.9609 9.60033 16.0306 9.53064C16.1003 9.46096 16.1556 9.37823 16.1933 9.28719C16.231 9.19615 16.2504 9.09856 16.2504 9.00002C16.2504 8.90147 16.231 8.80389 16.1933 8.71284C16.1556 8.6218 16.1003 8.53907 16.0306 8.46939L13.5603 6.00002L16.5603 3.00002L21.5 7.9397L8.43873 21Z" fill="#F7FBF2"/>
</svg>
