<svg width="24" height="24" viewBox="0 0 24 24" fill="none" xmlns="http://www.w3.org/2000/svg">
<path d="M10.7193 14.4694L19.7193 5.46939C19.789 5.39971 19.8717 5.34444 19.9628 5.30672C20.0538 5.26901 20.1514 5.2496 20.2499 5.2496C20.3485 5.2496 20.4461 5.26901 20.5371 5.30672C20.6281 5.34444 20.7109 5.39971 20.7806 5.46939C20.8502 5.53908 20.9055 5.6218 20.9432 5.71285C20.9809 5.80389 21.0003 5.90147 21.0003 6.00002C21.0003 6.09856 20.9809 6.19615 20.9432 6.28719C20.9055 6.37824 20.8502 6.46096 20.7806 6.53064L11.7806 15.5306C11.7109 15.6003 11.6281 15.6556 11.5371 15.6933C11.4461 15.731 11.3485 15.7504 11.2499 15.7504C11.1514 15.7504 11.0538 15.731 10.9628 15.6933C10.8717 15.6556 10.789 15.6003 10.7193 15.5306C10.6496 15.461 10.5943 15.3782 10.5566 15.2872C10.5189 15.1961 10.4995 15.0986 10.4995 15C10.4995 14.9015 10.5189 14.8039 10.5566 14.7128C10.5943 14.6218 10.6496 14.5391 10.7193 14.4694ZM11.9999 8.25002C12.6514 8.24919 13.2987 8.35464 13.9162 8.56221C14.0099 8.59545 14.1094 8.6097 14.2087 8.60415C14.308 8.59859 14.4052 8.57333 14.4947 8.52984C14.5842 8.48635 14.6641 8.42549 14.7298 8.35082C14.7955 8.27615 14.8457 8.18914 14.8775 8.09488C14.9093 8.00061 14.922 7.90097 14.9149 7.80175C14.9078 7.70253 14.881 7.60571 14.8361 7.51693C14.7912 7.42816 14.7291 7.3492 14.6535 7.28465C14.5778 7.2201 14.49 7.17126 14.3952 7.14096C13.2 6.73802 11.9225 6.64302 10.6809 6.86474C9.43924 7.08646 8.27356 7.61774 7.29168 8.40943C6.3098 9.20111 5.54344 10.2276 5.0635 11.394C4.58355 12.5605 4.40552 13.8291 4.54587 15.0825C4.56616 15.2658 4.65329 15.4353 4.7906 15.5584C4.92792 15.6815 5.1058 15.7498 5.29024 15.75C5.31743 15.75 5.34556 15.75 5.37368 15.7453C5.57134 15.7234 5.75219 15.6239 5.87649 15.4687C6.00078 15.3134 6.05834 15.1152 6.03649 14.9175C6.01209 14.6959 5.99988 14.473 5.99993 14.25C6.00167 12.6593 6.63437 11.1341 7.75921 10.0093C8.88405 8.88445 10.4092 8.25176 11.9999 8.25002ZM21.3506 9.46877C21.3056 9.38111 21.2439 9.30316 21.1688 9.23937C21.0937 9.17559 21.0068 9.12721 20.9131 9.097C20.8193 9.06679 20.7205 9.05535 20.6224 9.06332C20.5242 9.07129 20.4285 9.09852 20.3409 9.14346C20.2532 9.18839 20.1753 9.25015 20.1115 9.32522C20.0477 9.40028 19.9993 9.48717 19.9691 9.58093C19.9389 9.67468 19.9274 9.77347 19.9354 9.87165C19.9434 9.96984 19.9706 10.0655 20.0156 10.1531C20.5704 11.2428 20.8981 12.4338 20.9787 13.6539C21.0593 14.874 20.8911 16.0978 20.4843 17.251L3.50618 17.2444C3.03249 15.8865 2.89023 14.4351 3.09128 13.0112C3.29232 11.5872 3.83084 10.2319 4.66194 9.05825C5.49304 7.88462 6.59264 6.92665 7.86909 6.26421C9.14553 5.60177 10.5618 5.25404 11.9999 5.25002H12.0824C13.4792 5.2588 14.8544 5.59601 16.0968 6.23439C16.1847 6.28277 16.2814 6.31302 16.3812 6.32335C16.481 6.33368 16.5819 6.32388 16.6778 6.29453C16.7737 6.26518 16.8628 6.21689 16.9398 6.1525C17.0167 6.08811 17.0799 6.00893 17.1257 5.91966C17.1715 5.8304 17.199 5.73285 17.2064 5.63279C17.2138 5.53274 17.2011 5.43221 17.1689 5.33716C17.1368 5.24212 17.0859 5.15448 17.0193 5.07945C16.9527 5.00441 16.8717 4.94351 16.7812 4.90033C14.9108 3.94232 12.7961 3.56757 10.7104 3.82454C8.62474 4.08151 6.66417 4.95839 5.0823 6.34174C3.50043 7.7251 2.37004 9.55128 1.83734 11.5841C1.30465 13.6169 1.39416 15.7627 2.09431 17.7441C2.19773 18.0376 2.38954 18.292 2.64336 18.4721C2.89718 18.6522 3.20056 18.7493 3.51181 18.75H20.4871C20.7982 18.7502 21.1017 18.6537 21.3554 18.4738C21.6092 18.2939 21.8008 18.0395 21.9037 17.746C22.3767 16.4006 22.5716 14.9731 22.4765 13.5501C22.3814 12.1272 21.9984 10.7383 21.3506 9.46783V9.46877Z" fill="#F7FBF2"/>
</svg>
