<svg width="19" height="26" viewBox="0 0 19 26" fill="none" xmlns="http://www.w3.org/2000/svg">
<path d="M17.5 0C17.2348 0 16.9804 0.105357 16.7929 0.292893C16.6054 0.48043 16.5 0.734784 16.5 1V5H2.5V1C2.5 0.734784 2.39464 0.48043 2.20711 0.292893C2.01957 0.105357 1.76522 0 1.5 0C1.23478 0 0.98043 0.105357 0.792893 0.292893C0.605357 0.48043 0.5 0.734784 0.5 1V25C0.5 25.2652 0.605357 25.5196 0.792893 25.7071C0.98043 25.8946 1.23478 26 1.5 26C1.76522 26 2.01957 25.8946 2.20711 25.7071C2.39464 25.5196 2.5 25.2652 2.5 25V21H16.5V25C16.5 25.2652 16.6054 25.5196 16.7929 25.7071C16.9804 25.8946 17.2348 26 17.5 26C17.7652 26 18.0196 25.8946 18.2071 25.7071C18.3946 25.5196 18.5 25.2652 18.5 25V1C18.5 0.734784 18.3946 0.48043 18.2071 0.292893C18.0196 0.105357 17.7652 0 17.5 0ZM16.5 7V12H2.5V7H16.5ZM2.5 19V14H16.5V19H2.5Z" fill="#C2C9BD"/>
</svg>
