<svg width="26" height="26" viewBox="0 0 26 26" fill="none" xmlns="http://www.w3.org/2000/svg">
<path d="M13 0.5C9.68591 0.503639 6.5086 1.82177 4.16518 4.16518C1.82177 6.5086 0.503639 9.68591 0.5 13V23.5C0.5 24.0304 0.710714 24.5391 1.08579 24.9142C1.46086 25.2893 1.96957 25.5 2.5 25.5H13C16.3152 25.5 19.4946 24.183 21.8388 21.8388C24.183 19.4946 25.5 16.3152 25.5 13C25.5 9.68479 24.183 6.50537 21.8388 4.16117C19.4946 1.81696 16.3152 0.5 13 0.5ZM13 23.5H2.5V13C2.5 10.9233 3.11581 8.89323 4.26957 7.16651C5.42332 5.4398 7.0632 4.09399 8.98182 3.29926C10.9004 2.50454 13.0116 2.29661 15.0484 2.70175C17.0852 3.1069 18.9562 4.10693 20.4246 5.57538C21.8931 7.04383 22.8931 8.91475 23.2982 10.9516C23.7034 12.9884 23.4955 15.0996 22.7007 17.0182C21.906 18.9368 20.5602 20.5767 18.8335 21.7304C17.1068 22.8842 15.0767 23.5 13 23.5ZM14.5 13.5C14.5 13.7967 14.412 14.0867 14.2472 14.3334C14.0824 14.58 13.8481 14.7723 13.574 14.8858C13.2999 14.9993 12.9983 15.0291 12.7074 14.9712C12.4164 14.9133 12.1491 14.7704 11.9393 14.5607C11.7296 14.3509 11.5867 14.0836 11.5288 13.7926C11.4709 13.5017 11.5006 13.2001 11.6142 12.926C11.7277 12.6519 11.92 12.4176 12.1666 12.2528C12.4133 12.088 12.7033 12 13 12C13.3978 12 13.7794 12.158 14.0607 12.4393C14.342 12.7206 14.5 13.1022 14.5 13.5ZM9 13.5C9 13.7967 8.91203 14.0867 8.7472 14.3334C8.58238 14.58 8.34811 14.7723 8.07403 14.8858C7.79994 14.9993 7.49834 15.0291 7.20736 14.9712C6.91639 14.9133 6.64912 14.7704 6.43934 14.5607C6.22956 14.3509 6.0867 14.0836 6.02882 13.7926C5.97094 13.5017 6.00065 13.2001 6.11418 12.926C6.22771 12.6519 6.41997 12.4176 6.66665 12.2528C6.91332 12.088 7.20333 12 7.5 12C7.89782 12 8.27936 12.158 8.56066 12.4393C8.84196 12.7206 9 13.1022 9 13.5ZM20 13.5C20 13.7967 19.912 14.0867 19.7472 14.3334C19.5824 14.58 19.3481 14.7723 19.074 14.8858C18.7999 14.9993 18.4983 15.0291 18.2074 14.9712C17.9164 14.9133 17.6491 14.7704 17.4393 14.5607C17.2296 14.3509 17.0867 14.0836 17.0288 13.7926C16.9709 13.5017 17.0007 13.2001 17.1142 12.926C17.2277 12.6519 17.42 12.4176 17.6666 12.2528C17.9133 12.088 18.2033 12 18.5 12C18.8978 12 19.2794 12.158 19.5607 12.4393C19.842 12.7206 20 13.1022 20 13.5Z" fill="#424940"/>
</svg>
