<svg width="24" height="22" viewBox="0 0 24 22" fill="none" xmlns="http://www.w3.org/2000/svg">
<path d="M24.0003 10.9998C24.0003 11.265 23.8949 11.5194 23.7074 11.7069C23.5198 11.8945 23.2655 11.9998 23.0003 11.9998H12.0003C11.735 11.9998 11.4807 11.8945 11.2931 11.7069C11.1056 11.5194 11.0003 11.265 11.0003 10.9998C11.0003 10.7346 11.1056 10.4803 11.2931 10.2927C11.4807 10.1052 11.735 9.99982 12.0003 9.99982H23.0003C23.2655 9.99982 23.5198 10.1052 23.7074 10.2927C23.8949 10.4803 24.0003 10.7346 24.0003 10.9998ZM12.0003 3.99982H23.0003C23.2655 3.99982 23.5198 3.89447 23.7074 3.70693C23.8949 3.51939 24.0003 3.26504 24.0003 2.99982C24.0003 2.73461 23.8949 2.48025 23.7074 2.29272C23.5198 2.10518 23.2655 1.99982 23.0003 1.99982H12.0003C11.735 1.99982 11.4807 2.10518 11.2931 2.29272C11.1056 2.48025 11.0003 2.73461 11.0003 2.99982C11.0003 3.26504 11.1056 3.51939 11.2931 3.70693C11.4807 3.89447 11.735 3.99982 12.0003 3.99982ZM23.0003 17.9998H12.0003C11.735 17.9998 11.4807 18.1052 11.2931 18.2927C11.1056 18.4803 11.0003 18.7346 11.0003 18.9998C11.0003 19.265 11.1056 19.5194 11.2931 19.7069C11.4807 19.8945 11.735 19.9998 12.0003 19.9998H23.0003C23.2655 19.9998 23.5198 19.8945 23.7074 19.7069C23.8949 19.5194 24.0003 19.265 24.0003 18.9998C24.0003 18.7346 23.8949 18.4803 23.7074 18.2927C23.5198 18.1052 23.2655 17.9998 23.0003 17.9998ZM6.29275 0.292324L3.00025 3.58607L1.70775 2.29232C1.52011 2.10468 1.26561 1.99927 1.00025 1.99927C0.734887 1.99927 0.480392 2.10468 0.292751 2.29232C0.10511 2.47996 -0.000305174 2.73446 -0.000305176 2.99982C-0.000305178 3.26519 0.10511 3.51968 0.292751 3.70732L2.29275 5.70732C2.38562 5.8003 2.49591 5.87406 2.61731 5.92438C2.73871 5.97471 2.86884 6.00061 3.00025 6.00061C3.13167 6.00061 3.26179 5.97471 3.38319 5.92438C3.50459 5.87406 3.61488 5.8003 3.70775 5.70732L7.70775 1.70732C7.89539 1.51968 8.00081 1.26519 8.00081 0.999824C8.00081 0.73446 7.89539 0.479964 7.70775 0.292324C7.52011 0.104683 7.26561 -0.000732422 7.00025 -0.000732422C6.73489 -0.000732422 6.48039 0.104683 6.29275 0.292324ZM6.29275 8.29232L3.00025 11.5861L1.70775 10.2923C1.52011 10.1047 1.26561 9.99927 1.00025 9.99927C0.734887 9.99927 0.480392 10.1047 0.292751 10.2923C0.10511 10.48 -0.000305176 10.7345 -0.000305176 10.9998C-0.000305176 11.1312 0.025575 11.2613 0.0758576 11.3827C0.12614 11.5041 0.199841 11.6144 0.292751 11.7073L2.29275 13.7073C2.38562 13.8003 2.49591 13.8741 2.61731 13.9244C2.73871 13.9747 2.86884 14.0006 3.00025 14.0006C3.13167 14.0006 3.26179 13.9747 3.38319 13.9244C3.50459 13.8741 3.61488 13.8003 3.70775 13.7073L7.70775 9.70732C7.89539 9.51968 8.00081 9.26519 8.00081 8.99982C8.00081 8.73446 7.89539 8.47996 7.70775 8.29232C7.52011 8.10468 7.26561 7.99927 7.00025 7.99927C6.73489 7.99927 6.48039 8.10468 6.29275 8.29232ZM6.29275 16.2923L3.00025 19.5861L1.70775 18.2923C1.61484 18.1994 1.50454 18.1257 1.38315 18.0754C1.26175 18.0251 1.13165 17.9993 1.00025 17.9993C0.868856 17.9993 0.738747 18.0251 0.617354 18.0754C0.495961 18.1257 0.385661 18.1994 0.292751 18.2923C0.199841 18.3852 0.12614 18.4955 0.0758576 18.6169C0.025575 18.7383 -0.000305176 18.8684 -0.000305176 18.9998C-0.000305176 19.1312 0.025575 19.2613 0.0758576 19.3827C0.12614 19.5041 0.199841 19.6144 0.292751 19.7073L2.29275 21.7073C2.38562 21.8003 2.49591 21.8741 2.61731 21.9244C2.73871 21.9747 2.86884 22.0006 3.00025 22.0006C3.13167 22.0006 3.26179 21.9747 3.38319 21.9244C3.50459 21.8741 3.61488 21.8003 3.70775 21.7073L7.70775 17.7073C7.89539 17.5197 8.00081 17.2652 8.00081 16.9998C8.00081 16.7345 7.89539 16.48 7.70775 16.2923C7.52011 16.1047 7.26561 15.9993 7.00025 15.9993C6.73489 15.9993 6.48039 16.1047 6.29275 16.2923Z" fill="#22983C"/>
</svg>
