<svg width="24" height="22" viewBox="0 0 24 22" fill="none" xmlns="http://www.w3.org/2000/svg">
<path d="M24.0003 10.9998C24.0003 11.265 23.895 11.5194 23.7074 11.7069C23.5199 11.8945 23.2655 11.9998 23.0003 11.9998H12.0003C11.7351 11.9998 11.4807 11.8945 11.2932 11.7069C11.1057 11.5194 11.0003 11.265 11.0003 10.9998C11.0003 10.7346 11.1057 10.4803 11.2932 10.2927C11.4807 10.1052 11.7351 9.99982 12.0003 9.99982H23.0003C23.2655 9.99982 23.5199 10.1052 23.7074 10.2927C23.895 10.4803 24.0003 10.7346 24.0003 10.9998ZM12.0003 3.99982H23.0003C23.2655 3.99982 23.5199 3.89447 23.7074 3.70693C23.895 3.51939 24.0003 3.26504 24.0003 2.99982C24.0003 2.73461 23.895 2.48025 23.7074 2.29272C23.5199 2.10518 23.2655 1.99982 23.0003 1.99982H12.0003C11.7351 1.99982 11.4807 2.10518 11.2932 2.29272C11.1057 2.48025 11.0003 2.73461 11.0003 2.99982C11.0003 3.26504 11.1057 3.51939 11.2932 3.70693C11.4807 3.89447 11.7351 3.99982 12.0003 3.99982ZM23.0003 17.9998H12.0003C11.7351 17.9998 11.4807 18.1052 11.2932 18.2927C11.1057 18.4803 11.0003 18.7346 11.0003 18.9998C11.0003 19.265 11.1057 19.5194 11.2932 19.7069C11.4807 19.8945 11.7351 19.9998 12.0003 19.9998H23.0003C23.2655 19.9998 23.5199 19.8945 23.7074 19.7069C23.895 19.5194 24.0003 19.265 24.0003 18.9998C24.0003 18.7346 23.895 18.4803 23.7074 18.2927C23.5199 18.1052 23.2655 17.9998 23.0003 17.9998ZM6.29281 0.292324L3.00031 3.58607L1.70781 2.29232C1.52017 2.10468 1.26568 1.99927 1.00031 1.99927C0.734948 1.99927 0.480453 2.10468 0.292812 2.29232C0.105171 2.47996 -0.000244139 2.73446 -0.000244141 2.99982C-0.000244143 3.26519 0.105171 3.51968 0.292812 3.70732L2.29281 5.70732C2.38568 5.8003 2.49597 5.87406 2.61737 5.92438C2.73877 5.97471 2.8689 6.00061 3.00031 6.00061C3.13173 6.00061 3.26185 5.97471 3.38325 5.92438C3.50465 5.87406 3.61494 5.8003 3.70781 5.70732L7.70781 1.70732C7.89545 1.51968 8.00087 1.26519 8.00087 0.999824C8.00087 0.73446 7.89545 0.479964 7.70781 0.292324C7.52017 0.104683 7.26568 -0.000732422 7.00031 -0.000732422C6.73495 -0.000732422 6.48045 0.104683 6.29281 0.292324ZM6.29281 8.29232L3.00031 11.5861L1.70781 10.2923C1.52017 10.1047 1.26568 9.99927 1.00031 9.99927C0.734948 9.99927 0.480453 10.1047 0.292812 10.2923C0.105171 10.48 -0.000244141 10.7345 -0.000244141 10.9998C-0.000244141 11.1312 0.025636 11.2613 0.0759187 11.3827C0.126201 11.5041 0.199902 11.6144 0.292812 11.7073L2.29281 13.7073C2.38568 13.8003 2.49597 13.8741 2.61737 13.9244C2.73877 13.9747 2.8689 14.0006 3.00031 14.0006C3.13173 14.0006 3.26185 13.9747 3.38325 13.9244C3.50465 13.8741 3.61494 13.8003 3.70781 13.7073L7.70781 9.70732C7.89545 9.51968 8.00087 9.26519 8.00087 8.99982C8.00087 8.73446 7.89545 8.47996 7.70781 8.29232C7.52017 8.10468 7.26568 7.99927 7.00031 7.99927C6.73495 7.99927 6.48045 8.10468 6.29281 8.29232ZM6.29281 16.2923L3.00031 19.5861L1.70781 18.2923C1.6149 18.1994 1.5046 18.1257 1.38321 18.0754C1.26182 18.0251 1.13171 17.9993 1.00031 17.9993C0.868917 17.9993 0.738809 18.0251 0.617415 18.0754C0.496022 18.1257 0.385722 18.1994 0.292812 18.2923C0.199902 18.3852 0.126201 18.4955 0.0759187 18.6169C0.025636 18.7383 -0.000244141 18.8684 -0.000244141 18.9998C-0.000244141 19.1312 0.025636 19.2613 0.0759187 19.3827C0.126201 19.5041 0.199902 19.6144 0.292812 19.7073L2.29281 21.7073C2.38568 21.8003 2.49597 21.8741 2.61737 21.9244C2.73877 21.9747 2.8689 22.0006 3.00031 22.0006C3.13173 22.0006 3.26185 21.9747 3.38325 21.9244C3.50465 21.8741 3.61494 21.8003 3.70781 21.7073L7.70781 17.7073C7.89545 17.5197 8.00087 17.2652 8.00087 16.9998C8.00087 16.7345 7.89545 16.48 7.70781 16.2923C7.52017 16.1047 7.26568 15.9993 7.00031 15.9993C6.73495 15.9993 6.48045 16.1047 6.29281 16.2923Z" fill="#424940"/>
</svg>
